<svg id="porfolio_icon" class="img-responsive" version="1.0" 
	 xmlns="http://www.w3.org/2000/svg" xmlns:xlink="http://www.w3.org/1999/xlink" xmlns:a="http://ns.adobe.com/AdobeSVGViewerExtensions/3.0/"
	 x="0px" y="0px" width="385px" height="181.6px" viewBox="0 0 385 181.6" enable-background="new 0 0 385 181.6"
	 xml:space="preserve">
<defs>
</defs>
<line fill="none" stroke="#F7F7F8" stroke-width="3" stroke-miterlimit="10" x1="52.2" y1="161" x2="369.4" y2="161"/>
<line fill="none" stroke="#F7F7F8" stroke-width="3" stroke-miterlimit="10" x1="121.5" y1="161" x2="167.4" y2="161"/>
<line fill="none" stroke="#F7F7F8" stroke-width="3" stroke-miterlimit="10" x1="0" y1="160.6" x2="40.4" y2="160.6"/>
<line fill="none" stroke="#F7F7F8" stroke-width="3" stroke-miterlimit="10" x1="10.5" y1="180.1" x2="333.8" y2="180.1"/>
<line fill="none" stroke="#F7F7F8" stroke-width="3" stroke-miterlimit="10" x1="349.6" y1="180.1" x2="385" y2="180.1"/>
<g>
	<path fill="none" stroke="#F7F7F8" stroke-width="3" stroke-miterlimit="10" d="M268.5,135.1c0,7.7-6.9,14-15.5,14H126.2
		c-8.5,0-15.5-6.3-15.5-14V61.5c0-7.7,6.9-14,15.5-14h126.9c8.5,0,15.5,6.3,15.5,14V135.1z"/>
	<line fill="none" stroke="#F7F7F8" stroke-width="3" stroke-miterlimit="10" x1="138.3" y1="47.9" x2="138.3" y2="149.8"/>
	<line fill="none" stroke="#F7F7F8" stroke-width="3" stroke-miterlimit="10" x1="239.6" y1="47.9" x2="239.6" y2="149.8"/>
	<g id="XMLID_1_">
		<g>
			<path fill="#7BAFC9" d="M220.3,30.4l0,2.4h-61.1v-2.4c0-6,6-10.9,13.3-10.9h34.4C214.3,19.5,220.3,24.3,220.3,30.4z"/>
		</g>
		<g>
			<path fill="none" stroke="#F7F7F8" stroke-width="3" stroke-miterlimit="10" d="M220.3,32.8l0-2.4c0-6-6-10.9-13.3-10.9h-34.4
				c-7.4,0-13.3,4.9-13.3,10.9v2.4v14.9h61.2L220.3,32.8z"/>
			<polyline fill="none" stroke="#F7F7F8" stroke-width="3" stroke-miterlimit="10" points="220.5,32.8 220.3,32.8 159.2,32.8 			
				"/>
		</g>
	</g>
	<path fill="#C99F7E" stroke="#F7F7F8" stroke-width="3" stroke-miterlimit="10" d="M224,117.8c0,3.5-2.8,6.3-6.3,6.3
		c-3.5,0-6.3-2.8-6.3-6.3c0-3.5,2.8-6.3,6.3-6.3C221.2,111.5,224,114.3,224,117.8z"/>
	<rect x="123.1" y="64.3" fill="#C99F7E" stroke="#F7F7F8" stroke-width="3" stroke-miterlimit="10" width="7.2" height="7.2"/>
	<rect x="123.1" y="128.9" fill="#C99F7E" stroke="#F7F7F8" stroke-width="3" stroke-miterlimit="10" width="7.2" height="7.2"/>
	<rect x="250" y="64.8" fill="#C99F7E" stroke="#F7F7F8" stroke-width="3" stroke-miterlimit="10" width="7.2" height="7.2"/>
	<rect x="250" y="128.9" fill="#C99F7E" stroke="#F7F7F8" stroke-width="3" stroke-miterlimit="10" width="7.2" height="7.2"/>
	<polygon fill="#C99F7E" stroke="#F7F7F8" stroke-width="3" stroke-miterlimit="10" points="194.5,56 186.4,66.6 194.2,77.6 
		201.6,66.6 	"/>
	<rect x="147.1" y="116" fill="#C99F7E" stroke="#F7F7F8" stroke-width="3" stroke-miterlimit="10" width="32.3" height="15.3"/>
	<line fill="none" stroke="#F7F7F8" stroke-width="4" stroke-miterlimit="10" x1="130.2" y1="152.2" x2="157.3" y2="152.2"/>
	<line fill="none" stroke="#F7F7F8" stroke-width="4" stroke-miterlimit="10" x1="219.7" y1="152.2" x2="246.9" y2="152.2"/>
</g>
<g>
	<line fill="none" stroke="#7BAFC9" stroke-width="3" stroke-miterlimit="10" x1="20.2" y1="19.9" x2="20.2" y2="39.1"/>
	<line fill="none" stroke="#7BAFC9" stroke-width="3" stroke-miterlimit="10" x1="10.5" y1="30.2" x2="29" y2="30.2"/>
</g>
<g>
	<line fill="none" stroke="#C99F7E" stroke-width="4" stroke-miterlimit="10" x1="75.2" y1="0" x2="75.2" y2="19.1"/>
	<line fill="none" stroke="#C99F7E" stroke-width="4" stroke-miterlimit="10" x1="65.6" y1="10.2" x2="84" y2="10.2"/>
</g>
<g>
	<line fill="none" stroke="#C99F7E" stroke-width="3" stroke-miterlimit="10" x1="328.1" y1="122.1" x2="328.1" y2="134.9"/>
	<line fill="none" stroke="#C99F7E" stroke-width="3" stroke-miterlimit="10" x1="321.6" y1="129" x2="334" y2="129"/>
</g>
<g>
	<line fill="none" stroke="#7BAFC9" stroke-width="3" stroke-miterlimit="10" x1="371.3" y1="66.9" x2="371.3" y2="90.1"/>
	<line fill="none" stroke="#7BAFC9" stroke-width="3" stroke-miterlimit="10" x1="359.6" y1="79.3" x2="382" y2="79.3"/>
</g>
</svg>
