<svg version="1.1" class="img-responsive servicios_icono" id="servicios_icono1"
	 xmlns="http://www.w3.org/2000/svg" xmlns:xlink="http://www.w3.org/1999/xlink" xmlns:a="http://ns.adobe.com/AdobeSVGViewerExtensions/3.0/"
	 x="0px" y="0px" width="878.1px" height="456.7px" viewBox="0 0 878.1 456.7" enable-background="new 0 0 878.1 456.7"
	 xml:space="preserve">
<defs>
</defs>
<g id="Reloj-min_1_">
	<circle fill="none" stroke="#333399" stroke-width="3" stroke-miterlimit="10" cx="436.8" cy="95.6" r="52.5"/>
	<line fill="none" stroke="#333399" stroke-width="3" stroke-miterlimit="10" x1="436.8" y1="95.6" x2="436.8" y2="60.2"/>
</g>
<g id="Reloj-Hora_1_">
	<circle fill="none" stroke="#333399" stroke-width="3" stroke-miterlimit="10" cx="436.8" cy="95.6" r="61.8"/>
	<line fill="none" stroke="#333399" stroke-width="3" stroke-miterlimit="10" x1="420.6" y1="111.8" x2="436.8" y2="95.6"/>
</g>
<path fill="#AFAEB4" stroke="#333399" stroke-width="3" stroke-miterlimit="10" d="M612.1,393.6c0,4.4-3.6,8-8,8H266.2
	c-4.4,0-8-3.6-8-8V198c0-4.4,3.6-8,8-8h337.9c4.4,0,8,3.6,8,8V393.6z"/>
<rect x="272.4" y="202" fill="#F7F7F8" stroke="#333399" stroke-width="3" stroke-miterlimit="10" width="326.2" height="153.1"/>
<line fill="none" stroke="#333399" stroke-width="3" stroke-miterlimit="10" x1="27.4" y1="455.2" x2="857.2" y2="455.2"/>
<g>
	<circle fill="#C9BB9E" stroke="#333399" stroke-miterlimit="10" cx="436.7" cy="50.6" r="1.6"/>
	<circle fill="#C9BB9E" stroke="#333399" stroke-miterlimit="10" cx="426.3" cy="51.8" r="1.6"/>
	<circle fill="#C9BB9E" stroke="#333399" stroke-miterlimit="10" cx="416.5" cy="55.4" r="1.6"/>
	<circle fill="#C9BB9E" stroke="#333399" stroke-miterlimit="10" cx="407.7" cy="61.2" r="1.6"/>
	<circle fill="#C9BB9E" stroke="#333399" stroke-miterlimit="10" cx="400.5" cy="68.8" r="1.6"/>
	<circle fill="#C9BB9E" stroke="#333399" stroke-miterlimit="10" cx="395.3" cy="77.9" r="1.6"/>
	<circle fill="#C9BB9E" stroke="#333399" stroke-miterlimit="10" cx="392.3" cy="87.9" r="1.6"/>
	<circle fill="#C9BB9E" stroke="#333399" stroke-miterlimit="10" cx="391.7" cy="98.4" r="1.6"/>
	<path fill="#C9BB9E" stroke="#333399" stroke-miterlimit="10" d="M393,107.2c0.9-0.3,1.7,0.2,2,1.1s-0.2,1.7-1.1,2
		c-0.8,0.3-1.7-0.2-2-1.1C391.7,108.3,392.2,107.4,393,107.2z"/>
	<path fill="#C9BB9E" stroke="#333399" stroke-miterlimit="10" d="M396.8,116.9c0.8-0.4,1.7-0.2,2.2,0.6c0.4,0.8,0.2,1.8-0.6,2.2
		c-0.8,0.4-1.8,0.2-2.2-0.6C395.8,118.4,396.1,117.4,396.8,116.9z"/>
	<circle fill="#C9BB9E" stroke="#333399" stroke-miterlimit="10" cx="403.9" cy="126.7" r="1.6"/>
	<circle fill="#C9BB9E" stroke="#333399" stroke-miterlimit="10" cx="411.9" cy="133.5" r="1.6"/>
	<path fill="#C9BB9E" stroke="#333399" stroke-miterlimit="10" d="M419.8,137.6c0.3-0.8,1.2-1.3,2.1-1c0.8,0.3,1.3,1.2,1,2.1
		c-0.3,0.8-1.2,1.3-2.1,1C419.9,139.4,419.5,138.5,419.8,137.6z"/>
	<circle fill="#C9BB9E" stroke="#333399" stroke-miterlimit="10" cx="431.5" cy="140.6" r="1.6"/>
	<path fill="#C9BB9E" stroke="#333399" stroke-miterlimit="10" d="M440.4,140.8c-0.1-0.9,0.5-1.7,1.4-1.8s1.7,0.5,1.8,1.4
		c0.1,0.9-0.5,1.7-1.4,1.8S440.5,141.7,440.4,140.8z"/>
	<path fill="#C9BB9E" stroke="#333399" stroke-miterlimit="10" d="M450.7,138.7c-0.3-0.8,0.1-1.8,1-2.1c0.8-0.3,1.8,0.1,2.1,1
		c0.3,0.8-0.1,1.8-1,2.1C451.9,140,451,139.6,450.7,138.7z"/>
	<path fill="#C9BB9E" stroke="#333399" stroke-miterlimit="10" d="M460.2,134.3c-0.5-0.7-0.3-1.7,0.5-2.2c0.7-0.5,1.7-0.3,2.2,0.5
		c0.5,0.7,0.3,1.7-0.5,2.2C461.7,135.3,460.7,135.1,460.2,134.3z"/>
	<path fill="#C9BB9E" stroke="#333399" stroke-miterlimit="10" d="M468.4,127.9c-0.6-0.6-0.7-1.6-0.1-2.3c0.6-0.6,1.6-0.7,2.3-0.1
		c0.6,0.6,0.7,1.6,0.1,2.3C470.1,128.5,469.1,128.5,468.4,127.9z"/>
	<path fill="#C9BB9E" stroke="#333399" stroke-miterlimit="10" d="M475,119.7c-0.8-0.4-1-1.4-0.6-2.2c0.4-0.8,1.4-1,2.2-0.6
		c0.8,0.4,1,1.4,0.6,2.2C476.8,119.9,475.8,120.2,475,119.7z"/>
	<path fill="#C9BB9E" stroke="#333399" stroke-miterlimit="10" d="M479.5,110.2c-0.9-0.3-1.3-1.1-1.1-2c0.3-0.9,1.1-1.3,2-1.1
		c0.8,0.3,1.3,1.1,1.1,2C481.2,110,480.3,110.5,479.5,110.2z"/>
	<path fill="#C9BB9E" stroke="#333399" stroke-miterlimit="10" d="M481.7,100c-0.9,0-1.6-0.8-1.5-1.7c0.1-0.9,0.8-1.6,1.7-1.5
		c0.9,0.1,1.6,0.8,1.5,1.7C483.3,99.4,482.6,100,481.7,100z"/>
	<path fill="#C9BB9E" stroke="#333399" stroke-miterlimit="10" d="M481.4,89.5c-0.9,0.2-1.7-0.4-1.9-1.3c-0.2-0.9,0.4-1.7,1.3-1.9
		c0.9-0.2,1.7,0.4,1.9,1.3C482.9,88.5,482.3,89.3,481.4,89.5z"/>
	<path fill="#C9BB9E" stroke="#333399" stroke-miterlimit="10" d="M478.8,79.4c-0.8,0.4-1.8,0-2.1-0.8c-0.4-0.8,0-1.8,0.8-2.1
		c0.8-0.3,1.8,0,2.1,0.8C480,78.1,479.6,79,478.8,79.4z"/>
	<path fill="#C9BB9E" stroke="#333399" stroke-miterlimit="10" d="M473.9,70.1c-0.7,0.5-1.7,0.4-2.2-0.3c-0.5-0.7-0.4-1.7,0.3-2.2
		c0.7-0.5,1.7-0.4,2.2,0.3C474.7,68.6,474.6,69.6,473.9,70.1z"/>
	<path fill="#C9BB9E" stroke="#333399" stroke-miterlimit="10" d="M467,62.2c-0.6,0.7-1.6,0.8-2.3,0.2c-0.7-0.6-0.8-1.6-0.2-2.3
		c0.6-0.7,1.6-0.8,2.3-0.2C467.4,60.5,467.5,61.5,467,62.2z"/>
	<path fill="#C9BB9E" stroke="#333399" stroke-miterlimit="10" d="M458.4,56.1c-0.4,0.8-1.4,1.1-2.2,0.7c-0.8-0.4-1.1-1.4-0.7-2.2
		s1.4-1.1,2.2-0.7C458.5,54.4,458.8,55.4,458.4,56.1z"/>
	<path fill="#C9BB9E" stroke="#333399" stroke-miterlimit="10" d="M448.7,52.2c-0.2,0.9-1.1,1.4-1.9,1.2c-0.9-0.2-1.4-1.1-1.2-1.9
		c0.2-0.9,1.1-1.4,1.9-1.2C448.4,50.5,448.9,51.4,448.7,52.2z"/>
</g>
<path fill="none" stroke="#333399" stroke-width="3" stroke-miterlimit="10" d="M803.6,361.8c0,7.2-5.9,13.1-13.1,13.1l0,0
	c-7.2,0-13.1-5.9-13.1-13.1V290c0-7.2,5.9-13.1,13.1-13.1l0,0c7.2,0,13.1,5.9,13.1,13.1V361.8z"/>
<rect x="741" y="364.3" fill="#AA958A" stroke="#333399" stroke-width="3" stroke-miterlimit="10" width="104.7" height="17.3"/>
<polygon fill="#C9BB9E" stroke="#333399" stroke-width="3" stroke-miterlimit="10" points="825.6,444.2 764.4,444.2 751.9,382.2 
	834.9,382.2 "/>
<path fill="none" stroke="#333399" stroke-width="3" stroke-miterlimit="10" d="M764,326.3v-26.6c0-5.4-4.3-9.7-9.7-9.7l0,0
	c-5.4,0-9.7,4.3-9.7,9.7v26.6c0,0,1,34.1,32.9,34.1v-18.2C777.4,342.1,764,339.3,764,326.3z"/>
<path fill="none" stroke="#333399" stroke-width="3" stroke-miterlimit="10" d="M816.1,310.6v-24.8c0-5,4-9,9-9l0,0c5,0,9,4,9,9
	v24.8c0,0-0.9,31.8-30.6,31.8v-17C803.6,325.4,816.1,322.8,816.1,310.6z"/>
<line fill="none" stroke="#333399" stroke-width="3" stroke-miterlimit="10" x1="860.6" y1="455.2" x2="878.1" y2="455.2"/>
<line fill="none" stroke="#333399" stroke-width="3" stroke-miterlimit="10" x1="20.6" y1="455.2" x2="0" y2="455.2"/>
<polygon fill="#62A39E" stroke="#333399" stroke-width="3" stroke-miterlimit="10" points="248.4,436.4 212.6,436.1 197.6,381.1 
	264.2,381.1 "/>
<rect x="208.3" y="436.4" fill="#727276" stroke="#333399" stroke-width="3" stroke-miterlimit="10" width="44.6" height="11.8"/>
<path fill="none" stroke="#333399" stroke-width="3" stroke-miterlimit="10" d="M207.3,419.8L207.3,419.8c-6.5,1.8-13.1-2-14.9-8.4
	l-1.8-6.4c-1.8-6.5,2-13.1,8.4-14.9l0,0"/>
<polygon fill="#C9BB9E" stroke="#333399" stroke-width="3" stroke-miterlimit="10" points="282.3,191.1 329.9,191.1 329.9,241.8 
	295.5,241.8 282.3,228.6 "/>
<polygon fill="#AA958A" stroke="#333399" stroke-width="3" stroke-miterlimit="10" points="319,191.1 366.6,191.1 366.6,241.8 
	332.2,241.8 319,228.6 "/>
<line fill="none" stroke="#333399" stroke-width="3" stroke-miterlimit="10" x1="294.8" y1="203.3" x2="319" y2="203.3"/>
<line fill="none" stroke="#333399" stroke-width="3" stroke-miterlimit="10" x1="294.8" y1="212.2" x2="319" y2="212.2"/>
<line fill="none" stroke="#333399" stroke-width="3" stroke-miterlimit="10" x1="295.5" y1="220.3" x2="309.4" y2="220.3"/>
<line fill="none" stroke="#333399" stroke-width="3" stroke-miterlimit="10" x1="329.9" y1="203.3" x2="354.1" y2="203.3"/>
<line fill="none" stroke="#333399" stroke-width="3" stroke-miterlimit="10" x1="329.9" y1="212.2" x2="354.1" y2="212.2"/>
<line fill="none" stroke="#333399" stroke-width="3" stroke-miterlimit="10" x1="330.6" y1="220.3" x2="344.6" y2="220.3"/>
<polyline fill="none" stroke="#333399" stroke-width="3" stroke-miterlimit="10" points="282.3,228.6 295.5,228.6 295.5,241.8 "/>
<polyline fill="none" stroke="#333399" stroke-width="3" stroke-miterlimit="10" points="319,228.6 332.2,228.6 332.2,241.8 "/>
<line fill="none" stroke="#333399" stroke-width="3" stroke-miterlimit="10" x1="258.2" y1="364.8" x2="612.1" y2="364.8"/>
<polygon fill="#D7D9DD" stroke="#333399" stroke-width="3" stroke-miterlimit="10" points="499.1,401.6 511.7,433.2 525.6,433.2 
	525.6,446.6 345,446.6 345,433.2 359.6,433.2 371.7,401.6 "/>
<line fill="none" stroke="#333399" stroke-width="3" stroke-miterlimit="10" x1="359.6" y1="433.2" x2="415.6" y2="433.2"/>
<line fill="none" stroke="#333399" stroke-width="3" stroke-miterlimit="10" x1="489.6" y1="433.2" x2="514.3" y2="433.2"/>
<g>
	<path fill="#737373" stroke="#333399" stroke-miterlimit="10" d="M759.9,433.2c0,8.3-6.7,15-15,15h-69.2c-8.3,0-15-6.7-15-15v-30
		c0-8.3,6.7-15,15-15h69.2c8.3,0,15,6.7,15,15V433.2z"/>
	<path fill="#C3C4CA" stroke="#333399" stroke-miterlimit="10" d="M751.9,430.1c0,6.7-5.8,12.1-13,12.1H679c-7.2,0-13-5.4-13-12.1
		v-24.2c0-6.7,5.8-12.1,13-12.1h60c7.2,0,13,5.4,13,12.1L751.9,430.1L751.9,430.1z"/>
	<ellipse fill="#C3C4CA" stroke="#333399" stroke-miterlimit="10" cx="755.9" cy="416" rx="1.6" ry="5.1"/>
</g>
<g id="regla_1_">
	<polygon fill="#C9BB9E" stroke="#333399" stroke-width="3.0137" stroke-miterlimit="10" points="367.7,425 308.5,426 309,441.4 
		356.8,440.9 	"/>
	<line fill="none" stroke="#333399" stroke-width="3.0137" stroke-miterlimit="10" x1="320.2" y1="432.4" x2="320.3" y2="427"/>
	<line fill="none" stroke="#333399" stroke-width="3.0137" stroke-miterlimit="10" x1="328.6" y1="430.4" x2="328.8" y2="425.6"/>
	<line fill="none" stroke="#333399" stroke-width="3.0137" stroke-miterlimit="10" x1="338.1" y1="431.1" x2="338.2" y2="426.8"/>
	<line fill="none" stroke="#333399" stroke-width="3.0137" stroke-miterlimit="10" x1="347.2" y1="430.3" x2="347.7" y2="425.4"/>
</g>
<g id="Pluma_1_">
	
		<rect x="305.3" y="425" fill="#5C5B5F" stroke="#333399" stroke-width="3.0082" stroke-miterlimit="10" width="36.5" height="19.7"/>
	<polygon fill="#F7F7F8" stroke="#333399" stroke-width="3.0082" stroke-miterlimit="10" points="357.2,425 371,435.3 356,444.7 
		341.8,440.1 341.8,430.7 	"/>
	<line fill="none" stroke="#333399" stroke-width="3.0082" stroke-miterlimit="10" x1="356.4" y1="435.1" x2="371" y2="435.3"/>
	<path fill="none" stroke="#333399" stroke-width="3.0082" stroke-miterlimit="10" d="M353.9,438.8c-1.9,0-3.4-1.7-3.4-3.6l0,0
		c0-1.9,1.6-3.5,3.5-3.5l0,0c1.9,0,3.4,1.7,3.4,3.6l0,0C357.4,437.2,355.8,438.8,353.9,438.8L353.9,438.8z"/>
</g>
<path fill="#9B999E" stroke="#333399" stroke-width="3.0137" stroke-miterlimit="10" d="M378,435c0,6.1-5.4,11-12.1,11h-72.8
	c-6.7,0-12.1-4.9-12.1-11l0,0c0-6.1,5.4-11,12.1-11h72.8C372.6,424,378,428.9,378,435L378,435z"/>
<circle fill="#AFAEB4" stroke="#333399" stroke-width="3" stroke-miterlimit="10" cx="436.8" cy="95.6" r="5.2"/>
<polygon fill="#C9BB9E" stroke="#333399" stroke-width="3" stroke-miterlimit="10" points="150.8,445.5 114.2,445.5 108.1,387.1 
	156.9,387.1 "/>
<polygon fill="#AA958A" stroke="#333399" stroke-miterlimit="10" points="112.6,359.6 111.2,347 119.8,355.2 "/>
<polygon fill="#AA958A" stroke="#333399" stroke-miterlimit="10" points="131.7,348.8 136.7,337.1 140.1,348.5 "/>
<polygon fill="#AA958A" stroke="#333399" stroke-miterlimit="10" points="147.1,360.8 152.4,349.2 155.5,360.8 "/>
<rect x="117.5" y="356.4" transform="matrix(0.888 -0.4599 0.4599 0.888 -155.6236 97.2433)" fill="none" stroke="#333399" stroke-width="2" stroke-miterlimit="10" width="8.5" height="23.3"/>
<rect x="131.3" y="349" fill="none" stroke="#333399" stroke-width="2" stroke-miterlimit="10" width="9.2" height="27.4"/>
<rect x="146.4" y="360.7" fill="none" stroke="#333399" stroke-width="2" stroke-miterlimit="10" width="9.1" height="16.8"/>
<rect x="102.8" y="376.4" fill="#AA958A" stroke="#333399" stroke-width="3" stroke-miterlimit="10" width="59.7" height="10.6"/>
<g id="Books_1_">
	<rect x="572.9" y="143.5" fill="#AFAEB4" stroke="#333399" stroke-width="3" stroke-miterlimit="10" width="258" height="18"/>
	<rect x="599.2" y="33.8" fill="#73ADA8" stroke="#333399" stroke-width="3" stroke-miterlimit="10" width="34.5" height="109.7"/>
	<rect x="666.7" y="33.8" fill="#C9BB9E" stroke="#333399" stroke-width="3" stroke-miterlimit="10" width="27" height="109.7"/>
	<rect x="701.9" y="33.8" fill="#AA958A" stroke="#333399" stroke-width="3" stroke-miterlimit="10" width="18.8" height="109.7"/>
	<rect x="641.2" y="17.5" fill="#789E6A" stroke="#333399" stroke-width="3" stroke-miterlimit="10" width="19.5" height="126"/>
	<rect x="708.1" y="40.9" fill="#333399" width="5.6" height="5.6"/>
	<rect x="673.4" y="43.4" fill="none" stroke="#333399" stroke-width="3" stroke-miterlimit="10" width="12.7" height="11.3"/>
	<rect x="708.1" y="48.2" fill="#333399" width="5.6" height="5.6"/>
	<rect x="708.1" y="55.5" fill="#333399" width="5.6" height="5.6"/>
	<rect x="641.2" y="31.4" fill="none" stroke="#333399" stroke-width="3" stroke-miterlimit="10" width="19.5" height="11.3"/>
	<rect x="599.2" y="51.4" fill="none" stroke="#333399" stroke-width="3" stroke-miterlimit="10" width="34.5" height="12.3"/>
</g>
<g id="Lineas_x5F_Start_1_">
	<line fill="none" stroke="#333399" stroke-width="3" stroke-miterlimit="10" x1="296.9" y1="17.5" x2="435.8" y2="17.5"/>
	<line fill="none" stroke="#333399" stroke-width="3" stroke-miterlimit="10" x1="267.6" y1="47.4" x2="310" y2="47.4"/>
	<line fill="none" stroke="#333399" stroke-width="3" stroke-miterlimit="10" x1="315" y1="47.4" x2="320.6" y2="47.4"/>
	<line fill="none" stroke="#333399" stroke-width="3" stroke-miterlimit="10" x1="327.5" y1="47.4" x2="337.6" y2="47.4"/>
	<line fill="none" stroke="#333399" stroke-width="3" stroke-miterlimit="10" x1="306.7" y1="157.4" x2="315" y2="157.4"/>
	<line fill="none" stroke="#333399" stroke-width="3" stroke-miterlimit="10" x1="320.6" y1="157.4" x2="323.3" y2="157.4"/>
	<line fill="none" stroke="#333399" stroke-width="3" stroke-miterlimit="10" x1="330.7" y1="157.4" x2="392.9" y2="157.4"/>
	<line fill="none" stroke="#333399" stroke-width="3" stroke-miterlimit="10" x1="43.6" y1="163.9" x2="35.3" y2="163.9"/>
	<line fill="none" stroke="#333399" stroke-width="3" stroke-miterlimit="10" x1="29.8" y1="163.9" x2="27" y2="163.9"/>
	<line fill="none" stroke="#333399" stroke-width="3" stroke-miterlimit="10" x1="139.2" y1="311" x2="77" y2="311"/>
	<line fill="none" stroke="#333399" stroke-width="3" stroke-miterlimit="10" x1="22.1" y1="92" x2="68.2" y2="92"/>
	<line fill="none" stroke="#333399" stroke-width="3" stroke-miterlimit="10" x1="74.6" y1="92" x2="78.3" y2="92"/>
	<line fill="none" stroke="#333399" stroke-width="3" stroke-miterlimit="10" x1="84.7" y1="92" x2="89.3" y2="92"/>
	<line fill="none" stroke="#333399" stroke-width="3" stroke-miterlimit="10" x1="477.9" y1="166.5" x2="519.4" y2="166.5"/>
	<line fill="none" stroke="#333399" stroke-width="3" stroke-miterlimit="10" x1="524.4" y1="166.5" x2="529.9" y2="166.5"/>
	<line fill="none" stroke="#333399" stroke-width="3" stroke-miterlimit="10" x1="538.4" y1="166.5" x2="545.9" y2="166.5"/>
	<line fill="none" stroke="#333399" stroke-width="3" stroke-miterlimit="10" x1="622.4" y1="196.5" x2="711.3" y2="196.5"/>
	<line fill="none" stroke="#333399" stroke-width="3" stroke-miterlimit="10" x1="625.9" y1="297.5" x2="670.4" y2="297.5"/>
	<line fill="none" stroke="#333399" stroke-width="3" stroke-miterlimit="10" x1="675.9" y1="297.5" x2="701.9" y2="297.5"/>
	<line fill="none" stroke="#333399" stroke-width="3" stroke-miterlimit="10" x1="751.9" y1="244.5" x2="759.9" y2="244.5"/>
	<line fill="none" stroke="#333399" stroke-width="3" stroke-miterlimit="10" x1="764.4" y1="244.5" x2="770.4" y2="244.5"/>
	<line fill="none" stroke="#333399" stroke-width="3" stroke-miterlimit="10" x1="777.4" y1="244.5" x2="845.4" y2="244.5"/>
	<line fill="none" stroke="#333399" stroke-width="3" stroke-miterlimit="10" x1="549.5" y1="1.5" x2="592" y2="1.5"/>
	<line fill="none" stroke="#333399" stroke-width="3" stroke-miterlimit="10" x1="597.5" y1="1.5" x2="602.7" y2="1.5"/>
	<line fill="none" stroke="#333399" stroke-width="3" stroke-miterlimit="10" x1="606.2" y1="1.5" x2="612.9" y2="1.5"/>
	<g>
		<line fill="none" stroke="#333399" stroke-width="3" stroke-miterlimit="10" x1="724.8" y1="190" x2="724.8" y2="203"/>
		<line fill="none" stroke="#333399" stroke-width="3" stroke-miterlimit="10" x1="718.1" y1="196.5" x2="731.2" y2="196.5"/>
	</g>
	<g>
		<line fill="none" stroke="#333399" stroke-width="3" stroke-miterlimit="10" x1="295.5" y1="150.9" x2="295.5" y2="163.9"/>
		<line fill="none" stroke="#333399" stroke-width="3" stroke-miterlimit="10" x1="288.8" y1="157.4" x2="301.9" y2="157.4"/>
	</g>
	<g>
		<line fill="none" stroke="#333399" stroke-width="3" stroke-miterlimit="10" x1="226.3" y1="201.5" x2="226.3" y2="214.5"/>
		<line fill="none" stroke="#333399" stroke-width="3" stroke-miterlimit="10" x1="219.6" y1="208" x2="232.7" y2="208"/>
	</g>
	<g>
		<line fill="none" stroke="#333399" stroke-width="3" stroke-miterlimit="10" x1="57" y1="157.4" x2="57" y2="170.4"/>
		<line fill="none" stroke="#333399" stroke-width="3" stroke-miterlimit="10" x1="50.3" y1="163.9" x2="63.3" y2="163.9"/>
	</g>
	<g>
		<line fill="none" stroke="#333399" stroke-width="3" stroke-miterlimit="10" x1="740" y1="238" x2="740" y2="251"/>
		<line fill="none" stroke="#333399" stroke-width="3" stroke-miterlimit="10" x1="733.3" y1="244.5" x2="746.4" y2="244.5"/>
	</g>
</g>
<g id="Diploma_1_">
	<rect x="124.3" y="20.6" fill="#AFAEB4" stroke="#333399" stroke-width="3" stroke-miterlimit="10" width="128" height="160.3"/>
	<rect x="134.9" y="33.5" fill="#BADBD8" stroke="#333399" stroke-width="3" stroke-miterlimit="10" width="106.4" height="132.6"/>
	<g>
		<line fill="none" stroke="#333399" stroke-width="3" stroke-miterlimit="10" x1="156.8" y1="65.8" x2="219.6" y2="65.8"/>
		<line fill="none" stroke="#333399" stroke-width="3" stroke-miterlimit="10" x1="156.8" y1="80.7" x2="219.5" y2="80.7"/>
		<line fill="none" stroke="#333399" stroke-width="3" stroke-miterlimit="10" x1="156.8" y1="94.2" x2="219.5" y2="94.2"/>
		<line fill="none" stroke="#333399" stroke-width="3" stroke-miterlimit="10" x1="156.8" y1="108.9" x2="219.6" y2="108.9"/>
		<line fill="none" stroke="#333399" stroke-width="3" stroke-miterlimit="10" x1="156.8" y1="122.8" x2="219.5" y2="122.8"/>
		<line fill="none" stroke="#333399" stroke-width="3" stroke-miterlimit="10" x1="156.8" y1="137.7" x2="219.5" y2="137.7"/>
	</g>
</g>
<g id="cuadrados_1_">
	<rect x="100.9" y="84.6" fill="none" stroke="#333399" stroke-width="3" stroke-miterlimit="10" width="11.5" height="11.2"/>
	<rect x="811.4" y="29.8" fill="none" stroke="#333399" stroke-width="3" stroke-miterlimit="10" width="11.5" height="10.5"/>
	
		<rect x="554.6" y="80.4" transform="matrix(0.7071 -0.7071 0.7071 0.7071 103.4534 421.0953)" fill="none" stroke="#333399" stroke-width="3" stroke-miterlimit="10" width="10.9" height="10.5"/>
	
		<rect x="459.7" y="12.3" transform="matrix(0.7071 -0.7071 0.7071 0.7071 123.8732 334.0665)" fill="none" stroke="#333399" stroke-width="3" stroke-miterlimit="10" width="10.9" height="10.5"/>
	
		<rect x="712.7" y="292.3" transform="matrix(0.7071 -0.7071 0.7071 0.7071 -7.257422e-002 594.9496)" fill="none" stroke="#333399" stroke-width="3" stroke-miterlimit="10" width="10.9" height="10.5"/>
</g>
<g id="humo_2_">
	<g>
		<path fill="none" stroke="#333399" stroke-width="3" stroke-miterlimit="10"d="M223.7,374.3v-5.4
			c0-6.6,7.3-6,7.3-6h12.5c2.2,0,3.9-1.8,3.9-3.9l0,0c0-2.2-1.8-3.9-3.9-3.9h-31.1c-2.1,0-3.9-1.7-3.9-3.9l0,0c0-2.1,1.7-3.9,3.9-3.9
			h13.1l6,0.1h12c2.1,0,3.9-1.7,3.9-3.9l0,0c0-2.1-1.7-3.9-3.9-3.9h-31.1c-2.1,0-3.9-1.7-3.9-3.9l0,0c0-2.1,1.7-3.9,3.9-3.9h41">
		</path>
	</g>
</g>
<g id="Pantone2_1_">
	<polygon fill="#C9BB9E" points="647.5,443.5 644.6,446 617.1,446 617.1,410.3 643,409.5 647.1,411.1 649,413.8 649,441.1 	"/>
	<path fill="#C3C4CA" d="M578.5,446L566,446c-4.5,0-7.1-2.4-7.1-6.7l0.1-22.5c0-4.3,2.6-7.2,7.1-7.2h12.4L578.5,446z"/>
	<path fill="none" stroke="#333399" stroke-width="3.0496" stroke-miterlimit="10" d="M650,439.9c0,3.9-3.2,7.1-7.1,7.1h-77.7
		c-3.9,0-7.1-3.2-7.1-7.1v-23.8c0-3.9,3.2-7.1,7.1-7.1h77.7c3.9,0,7.1,3.2,7.1,7.1V439.9z"/>
	<path fill="none" stroke="#333399" stroke-width="3.0496" stroke-miterlimit="10" d="M568.6,432.3c-2.6,0-4.7-2.1-4.7-4.7l0,0
		c0-2.6,2.2-4.7,4.7-4.7l0,0c2.6,0,4.7,2.1,4.7,4.7l0,0C573.3,430.2,571.1,432.3,568.6,432.3L568.6,432.3z"/>
	<rect x="579.2" y="409" fill="#C9BB9E" stroke="#333399" stroke-width="3" stroke-miterlimit="10" width="19" height="37.9"/>
	<rect x="598.1" y="409" fill="#C9BB9E" stroke="#333399" stroke-width="3" stroke-miterlimit="10" width="19" height="37.9"/>
</g>
<g id="Pantone1_2_">
	<polygon fill="#789E6A" points="647.5,443.5 644.6,446 617.1,446 617.1,410.3 643,409.5 647.1,411.1 649,413.8 649,441.1 	"/>
	<path fill="#C3C4CA" d="M578.5,446L566,446c-4.5,0-7.1-2.4-7.1-6.7l0.1-22.5c0-4.3,2.6-7.2,7.1-7.2h12.4L578.5,446z"/>
	<path fill="none" stroke="#333399" stroke-width="3.0496" stroke-miterlimit="10" d="M650,439.9c0,3.9-3.2,7.1-7.1,7.1h-77.7
		c-3.9,0-7.1-3.2-7.1-7.1v-23.8c0-3.9,3.2-7.1,7.1-7.1h77.7c3.9,0,7.1,3.2,7.1,7.1V439.9z"/>
	<path fill="none" stroke="#333399" stroke-width="3.0496" stroke-miterlimit="10" d="M568.6,433.3c-2.6,0-4.7-2.1-4.7-4.7l0,0
		c0-2.6,2.2-4.7,4.7-4.7l0,0c2.6,0,4.7,2.1,4.7,4.7l0,0C573.3,431.2,571.1,433.3,568.6,433.3L568.6,433.3z"/>
	<rect x="579.2" y="409" fill="#789E6A" stroke="#333399" stroke-width="3" stroke-miterlimit="10" width="19" height="37.9"/>
	<rect x="598.1" y="409" fill="#789E6A" stroke="#333399" stroke-width="3" stroke-miterlimit="10" width="19" height="37.9"/>
</g>
<g id="Pantone3_1_">
	<polygon fill="#62A39E" points="647.5,443.5 644.6,446 617.1,446 617.1,410.3 643,409.5 647.1,411.1 649,413.8 649,441.1 	"/>
	<path fill="#C3C4CA" d="M578.5,446L566,446c-4.5,0-7.1-2.4-7.1-6.7l0.1-22.5c0-4.3,2.6-7.2,7.1-7.2h12.4L578.5,446z"/>
	<path fill="none" stroke="#333399" stroke-width="3.0496" stroke-miterlimit="10" d="M650,439.9c0,3.9-3.2,7.1-7.1,7.1h-77.7
		c-3.9,0-7.1-3.2-7.1-7.1v-23.8c0-3.9,3.2-7.1,7.1-7.1h77.7c3.9,0,7.1,3.2,7.1,7.1V439.9z"/>
	<path fill="none" stroke="#333399" stroke-width="3.0496" stroke-miterlimit="10" d="M568.6,432.3c-2.6,0-4.7-2.1-4.7-4.7l0,0
		c0-2.6,2.2-4.7,4.7-4.7l0,0c2.6,0,4.7,2.1,4.7,4.7l0,0C573.3,430.2,571.1,432.3,568.6,432.3L568.6,432.3z"/>
	<rect x="579.2" y="409" fill="#62A39E" stroke="#333399" stroke-width="3.0496" stroke-miterlimit="10" width="19" height="37.9"/>
	<rect x="598.1" y="409" fill="#62A39E" stroke="#333399" stroke-width="3.0496" stroke-miterlimit="10" width="19" height="37.9"/>
</g>
<polygon fill="#AFAEB4" stroke="#333399" stroke-width="3.0291" stroke-miterlimit="10" points="116.7,210.2 142.5,219.3 
	147.4,205.7 121.7,196.7 "/>
<rect x="18.7" y="435" fill="none" stroke="#333399" stroke-width="3.0291" stroke-miterlimit="10" width="84.6" height="10.5"/>
<ellipse fill="#AFAEB4" stroke="#333399" stroke-width="3.0291" stroke-miterlimit="10" cx="19.7" cy="293" rx="14.3" ry="14"/>
<ellipse fill="#F7F7F8" stroke="#333399" stroke-width="3.0291" stroke-miterlimit="10" cx="19.7" cy="293" rx="8.1" ry="7.9"/>
<ellipse fill="#AFAEB4" stroke="#333399" stroke-width="3.0291" stroke-miterlimit="10" cx="114" cy="208.6" rx="14.3" ry="14"/>
<ellipse fill="#F7F7F8" stroke="#333399" stroke-width="3.0291" stroke-miterlimit="10" cx="114" cy="208.6" rx="8.1" ry="7.9"/>
<ellipse fill="#AFAEB4" stroke="#333399" stroke-width="3.0291" stroke-miterlimit="10" cx="53.6" cy="402.3" rx="14.3" ry="14"/>
<line fill="none" stroke="#333399" stroke-width="3.0291" stroke-miterlimit="10" x1="67.6" y1="405.2" x2="67.6" y2="433.6"/>
<line fill="none" stroke="#333399" stroke-width="3.0291" stroke-miterlimit="10" x1="53.6" y1="416.3" x2="53.6" y2="435"/>
<line fill="none" stroke="#333399" stroke-width="3.0291" stroke-miterlimit="10" x1="39.7" y1="405.2" x2="39.7" y2="435"/>
<line fill="none" stroke="#333399" stroke-width="3.0291" stroke-miterlimit="10" x1="53.6" y1="388.3" x2="28.1" y2="304.2"/>
<line fill="none" stroke="#333399" stroke-width="3.0291" stroke-miterlimit="10" x1="44.9" y1="391.3" x2="17.3" y2="306.8"/>
<line fill="none" stroke="#333399" stroke-width="3.0291" stroke-miterlimit="10" x1="40.9" y1="344.5" x2="31.1" y2="349"/>
<line fill="none" stroke="#333399" stroke-width="3.0291" stroke-miterlimit="10" x1="100.6" y1="213.5" x2="26" y2="280.5"/>
<line fill="none" stroke="#333399" stroke-width="3.0291" stroke-miterlimit="10" x1="108" y1="221.3" x2="33.9" y2="286.5"/>
<line fill="none" stroke="#333399" stroke-width="3.0291" stroke-miterlimit="10" x1="64.6" y1="259.5" x2="58.6" y2="251.2"/>
<g id="headerLamp_1_">
	<path fill="#FFFFFF" stroke="#333399" stroke-width="3.0235" stroke-miterlimit="10" d="M168.1,213.5c0,0-4.1-14.5-21.6-9.5
		c0,0-13.9,3.8-9.5,18.8L168.1,213.5z"/>
	<path id="Lamp_1_" fill="#C9BB9E" stroke="#333399" stroke-width="3.0235" stroke-miterlimit="10" d="M182.5,271.9
		c0,0,4.4,11.5-10.4,16.5c0,0-11.6,4.3-16.3-8.3L182.5,271.9z"/>
	<polygon fill="#FFFFFF" stroke="#333399" stroke-width="3.0235" stroke-miterlimit="10" points="177.9,210.6 181.4,221.2 
		130.3,236.9 128,225.6 	"/>
	<polygon fill="none" stroke="#333399" stroke-width="3.0235" stroke-miterlimit="10" points="179.6,222.6 202,265.6 136.2,284.7 
		132.1,236.6 	"/>
</g>
</svg>
