<svg version="1.1" class="img-responsive servicios_icono" id="servicios_icono5" 
	 xmlns="http://www.w3.org/2000/svg" xmlns:xlink="http://www.w3.org/1999/xlink" xmlns:a="http://ns.adobe.com/AdobeSVGViewerExtensions/3.0/"
	 x="0px" y="0px" width="832.3px" height="450.2px" viewBox="0 0 832.3 450.2" enable-background="new 0 0 832.3 450.2"
	 xml:space="preserve">
<defs>
</defs>
<line fill="none" stroke="#E88356" stroke-width="3" stroke-miterlimit="10" x1="676.5" y1="426.2" x2="727.4" y2="426.2"/>
<rect x="331" y="236.5" fill="#F2F2F2" stroke="#333399" stroke-width="3" stroke-miterlimit="10" width="29.9" height="20.7"/>
<rect x="195.2" y="354.1" fill="none" stroke="#333399" stroke-width="3" stroke-miterlimit="10" width="77.6" height="92.8"/>
<circle fill="#434041" stroke="#333399" stroke-width="3" stroke-miterlimit="10" cx="361.9" cy="246.8" r="14.5"/>
<rect x="381.4" y="207.7" fill="#434041" stroke="#333399" stroke-width="3" stroke-miterlimit="10" width="9.4" height="78.7"/>
<line fill="none" stroke="#333399" stroke-width="3" stroke-miterlimit="10" x1="320.2" y1="337.6" x2="343.8" y2="337.6"/>
<line fill="none" stroke="#333399" stroke-width="2" stroke-miterlimit="10" x1="443.6" y1="34.8" x2="443.6" y2="0"/>
<path fill="none" stroke="#333399" stroke-width="2" stroke-miterlimit="10" d="M457.6,68.4v-8.5h-27.5v8.5
	c-8,4.7-13.3,13.4-13.3,23.3c0,14.9,12.1,27,27.1,27c14.9,0,27.1-12.1,27.1-27C470.9,81.8,465.5,73.1,457.6,68.4z"/>
<rect x="428.6" y="51.4" fill="none" stroke="#333399" stroke-width="2" stroke-miterlimit="10" width="29.9" height="8.4"/>
<line fill="none" stroke="#333399" stroke-width="2" stroke-miterlimit="10" x1="498.2" y1="31.2" x2="534.9" y2="31.2"/>
<line fill="none" stroke="#333399" stroke-width="2" stroke-miterlimit="10" x1="539.8" y1="31.2" x2="547.1" y2="31.2"/>
<line fill="none" stroke="#333399" stroke-width="2" stroke-miterlimit="10" x1="386.1" y1="151.8" x2="471.6" y2="151.8"/>
<line fill="none" stroke="#333399" stroke-width="2" stroke-miterlimit="10" x1="483" y1="151.8" x2="499.8" y2="151.8"/>
<line fill="none" stroke="#333399" stroke-width="2" stroke-miterlimit="10" x1="288.5" y1="151.8" x2="326.6" y2="151.8"/>
<line fill="none" stroke="#333399" stroke-width="2" stroke-miterlimit="10" x1="213.2" y1="63.8" x2="251.2" y2="63.8"/>
<line fill="none" stroke="#333399" stroke-width="2" stroke-miterlimit="10" x1="160.4" y1="6.4" x2="258.2" y2="6.4"/>
<line fill="none" stroke="#333399" stroke-width="2" stroke-miterlimit="10" x1="165.1" y1="63.8" x2="170.9" y2="63.8"/>
<line fill="none" stroke="#333399" stroke-width="2" stroke-miterlimit="10" x1="201.5" y1="63.8" x2="208.3" y2="63.8"/>
<rect x="275.7" y="1.2" fill="none" stroke="#333399" stroke-width="2" stroke-miterlimit="10" width="10.1" height="10.5"/>
<rect x="46" y="82.9" fill="none" stroke="#333399" stroke-width="2" stroke-miterlimit="10" width="10.1" height="10.5"/>
<rect x="684.8" y="48.4" fill="none" stroke="#333399" stroke-width="2" stroke-miterlimit="10" width="11.6" height="12.1"/>
<path fill="none" stroke="#333399" stroke-width="3" stroke-miterlimit="10" d="M65.2,404.1v0.1C54.4,405.4,46,414.5,46,425.6
	c0,11.1,8.4,20.2,19.2,21.3v0.1h129.9v-42.8H65.2z"/>
<circle fill="#D7D9DD" stroke="#333399" stroke-width="3" stroke-miterlimit="10" cx="159.8" cy="375.3" r="25.8"/>
<line fill="none" stroke="#333399" stroke-width="3" stroke-miterlimit="10" x1="92.3" y1="305.2" x2="96.4" y2="305.2"/>
<line fill="none" stroke="#333399" stroke-width="3" stroke-miterlimit="10" x1="100.7" y1="305.2" x2="107.5" y2="305.2"/>
<line fill="none" stroke="#333399" stroke-width="3" stroke-miterlimit="10" x1="113" y1="305.2" x2="156.3" y2="305.2"/>
<g>
	<path fill="none" stroke="#333399" stroke-width="2" stroke-linejoin="round" stroke-miterlimit="10" d="M99.9,152.6
		c0,0,4.4-39.4,39.3-39.4c0,0,37.3,4.8,37.3,37.3c0,0-11.2-14.9-20.4,2c0,0-9.4-16.7-17.9,0c0,0-11-17.2-19.3,0
		C118.9,152.6,110.5,139.8,99.9,152.6z"/>
	
		<line fill="none" stroke="#333399" stroke-width="2" stroke-linejoin="round" stroke-miterlimit="10" x1="99.9" y1="152.6" x2="130" y2="193.8"/>
	
		<line fill="none" stroke="#333399" stroke-width="2" stroke-linejoin="round" stroke-miterlimit="10" x1="118.9" y1="152.6" x2="134" y2="193.8"/>
	
		<line fill="none" stroke="#333399" stroke-width="2" stroke-linejoin="round" stroke-miterlimit="10" x1="138.2" y1="152.6" x2="138.2" y2="194.5"/>
	
		<line fill="none" stroke="#333399" stroke-width="2" stroke-linejoin="round" stroke-miterlimit="10" x1="156.1" y1="152.6" x2="140.9" y2="194.5"/>
	
		<line fill="none" stroke="#333399" stroke-width="2" stroke-linejoin="round" stroke-miterlimit="10" x1="176.5" y1="150.6" x2="144.8" y2="194.5"/>
	
		<rect x="114.1" y="193.8" fill="none" stroke="#333399" stroke-width="2" stroke-linejoin="round" stroke-miterlimit="10" width="48.6" height="11.6"/>
	
		<rect x="116.3" y="205.4" fill="none" stroke="#333399" stroke-width="2" stroke-linejoin="round" stroke-miterlimit="10" width="43.5" height="23.5"/>
	
		<rect x="113" y="228.9" fill="none" stroke="#333399" stroke-width="2" stroke-linejoin="round" stroke-miterlimit="10" width="49.7" height="12.3"/>
</g>
<line fill="none" stroke="#333399" stroke-width="3" stroke-miterlimit="10" x1="600.2" y1="423.2" x2="600.2" y2="409.8"/>
<line fill="none" stroke="#333399" stroke-width="3" stroke-miterlimit="10" x1="627.8" y1="423.9" x2="627.8" y2="409.8"/>
<line fill="none" stroke="#333399" stroke-width="3" stroke-miterlimit="10" x1="655.3" y1="423.9" x2="655.3" y2="409.8"/>
<line fill="none" stroke="#333399" stroke-width="3" stroke-miterlimit="10" x1="682.7" y1="423.9" x2="682.7" y2="409.8"/>
<line fill="none" stroke="#333399" stroke-width="3" stroke-miterlimit="10" x1="572.4" y1="423.9" x2="572.4" y2="409.8"/>
<g>
	<g id="XMLID_1_">
		<g>
			<path fill="#5C5B5F" d="M754.8,144.2v296.3c0,2.7-2.2,4.9-4.9,4.9H600.2c-2.7,0-4.9-2.2-4.9-4.9V144.2H754.8z"/>
			<path fill="#C3C4CA" d="M754.8,132.4v11.8H595.3v-11.8c0-2.7,2.2-4.9,4.9-4.9h149.6C752.6,127.5,754.8,129.7,754.8,132.4z"/>
		</g>
		<g>
			<path fill="none" stroke="#333399" stroke-width="3" stroke-miterlimit="10" d="M754.8,144.2v296.3c0,2.7-2.2,4.9-4.9,4.9H600.2
				c-2.7,0-4.9-2.2-4.9-4.9V144.2v-11.8c0-2.7,2.2-4.9,4.9-4.9h149.6c2.7,0,4.9,2.2,4.9,4.9V144.2z"/>
			<line fill="none" stroke="#333399" stroke-width="3" stroke-miterlimit="10" x1="595.3" y1="144.2" x2="754.8" y2="144.2"/>
		</g>
	</g>
</g>
<rect x="609.1" y="134.5" fill="#FFFFFF" stroke="#333399" stroke-width="3" stroke-miterlimit="10" width="5.6" height="5.2"/>
<rect x="617.5" y="134.5" fill="#FFFFFF" stroke="#333399" stroke-width="3" stroke-miterlimit="10" width="5.6" height="5.2"/>
<rect x="626.4" y="134.5" fill="#FFFFFF" stroke="#333399" stroke-width="3" stroke-miterlimit="10" width="5.6" height="5.2"/>
<circle fill="#D7D9DD" stroke="#333399" stroke-width="3" stroke-miterlimit="10" cx="747.7" cy="137.9" r="32.6"/>
<path fill="none" stroke="#333399" stroke-width="2" stroke-miterlimit="10" d="M436.6,51.4v-9.9c0,0-0.2-6.7,6.7-6.7
	c0,0,7.8-0.5,7.8,7.8v8.8H436.6z"/>
<line fill="none" stroke="#333399" stroke-width="2" stroke-miterlimit="10" x1="444.5" y1="45.5" x2="451.1" y2="45.5"/>
<line fill="none" stroke="#333399" stroke-width="2" stroke-miterlimit="10" x1="627.9" y1="75.2" x2="637.7" y2="75.2"/>
<g>
	<line fill="none" stroke="#333399" stroke-width="2" stroke-miterlimit="10" x1="560.3" y1="25.6" x2="560.3" y2="38.5"/>
	<line fill="none" stroke="#333399" stroke-width="2" stroke-miterlimit="10" x1="554.3" y1="32.1" x2="565.8" y2="32.1"/>
</g>
<g>
	<line fill="none" stroke="#333399" stroke-width="3" stroke-miterlimit="10" x1="555.2" y1="113.6" x2="555.2" y2="126.5"/>
	<line fill="none" stroke="#333399" stroke-width="3" stroke-miterlimit="10" x1="549.2" y1="120.1" x2="560.6" y2="120.1"/>
</g>
<g>
	<line fill="none" stroke="#333399" stroke-width="2" stroke-miterlimit="10" x1="340.6" y1="145.3" x2="340.6" y2="158.2"/>
	<line fill="none" stroke="#333399" stroke-width="2" stroke-miterlimit="10" x1="334.6" y1="151.8" x2="346" y2="151.8"/>
</g>
<g>
	<line fill="none" stroke="#333399" stroke-width="3" stroke-miterlimit="10" x1="80.5" y1="298.7" x2="80.5" y2="311.6"/>
	<line fill="none" stroke="#333399" stroke-width="3" stroke-miterlimit="10" x1="74.5" y1="305.2" x2="85.9" y2="305.2"/>
</g>
<g>
	<line fill="none" stroke="#333399" stroke-width="2" stroke-miterlimit="10" x1="153.9" y1="57.4" x2="153.9" y2="70.3"/>
	<line fill="none" stroke="#333399" stroke-width="2" stroke-miterlimit="10" x1="147.9" y1="63.8" x2="159.4" y2="63.8"/>
</g>
<g>
	<line fill="none" stroke="#333399" stroke-width="2" stroke-miterlimit="10" x1="252" y1="99.7" x2="252" y2="112.6"/>
	<line fill="none" stroke="#333399" stroke-width="2" stroke-miterlimit="10" x1="246" y1="106.1" x2="257.4" y2="106.1"/>
</g>
<g>
	<polygon fill="none" stroke="#333399" stroke-width="2" stroke-miterlimit="10" points="58.1,53.1 133.1,53.1 133.1,37.1 
		114.9,37.1 114.9,26.3 94.7,26.3 94.7,17.7 66.1,17.7 66.1,41.7 58.1,41.7 	"/>
	<line fill="none" stroke="#333399" stroke-width="2" stroke-miterlimit="10" x1="94.7" y1="39.1" x2="94.7" y2="23.7"/>
	<line fill="none" stroke="#333399" stroke-width="2" stroke-miterlimit="10" x1="114.9" y1="32.1" x2="114.9" y2="42.9"/>
	<line fill="none" stroke="#333399" stroke-width="2" stroke-miterlimit="10" x1="64.5" y1="41.7" x2="72" y2="41.7"/>
</g>
<g>
	<polygon fill="none" stroke="#333399" stroke-width="2" stroke-miterlimit="10" points="209.9,198.7 263.5,198.7 263.5,188 
		250.5,188 250.5,180.7 236,180.7 236,175 215.6,175 215.6,191 209.9,191 	"/>
	<line fill="none" stroke="#333399" stroke-width="2" stroke-miterlimit="10" x1="236" y1="189.3" x2="236" y2="178.9"/>
	<line fill="none" stroke="#333399" stroke-width="2" stroke-miterlimit="10" x1="250.5" y1="184.6" x2="250.5" y2="191.9"/>
	<line fill="none" stroke="#333399" stroke-width="2" stroke-miterlimit="10" x1="214.4" y1="191" x2="219.8" y2="191"/>
</g>
<g>
	<polygon fill="none" stroke="#333399" stroke-width="2" stroke-miterlimit="10" points="744.3,52.8 809,52.8 809,39 793.2,39 
		793.2,29.7 775.8,29.7 775.8,22.2 751.2,22.2 751.2,42.9 744.3,42.9 	"/>
	<line fill="none" stroke="#333399" stroke-width="2" stroke-miterlimit="10" x1="775.8" y1="40.7" x2="775.8" y2="27.4"/>
	<line fill="none" stroke="#333399" stroke-width="2" stroke-miterlimit="10" x1="793.2" y1="34.6" x2="793.2" y2="44"/>
</g>
<g>
	<polygon fill="#EDEEF0" stroke="#333399" stroke-width="3" stroke-miterlimit="10" points="737.7,234.3 802.4,234.3 802.4,220.6 
		786.6,220.6 786.6,211.3 769.2,211.3 769.2,203.8 744.6,203.8 744.6,224.5 737.7,224.5 	"/>
	<line fill="#EDEEF0" stroke="#333399" stroke-width="3" stroke-miterlimit="10" x1="769.2" y1="222.2" x2="769.2" y2="208.9"/>
	<line fill="#EDEEF0" stroke="#333399" stroke-width="3" stroke-miterlimit="10" x1="786.6" y1="216.2" x2="786.6" y2="225.6"/>
</g>
<g>
	<polyline fill="none" stroke="#333399" stroke-width="2" stroke-miterlimit="10" points="556.8,74.9 576.7,74.9 576.7,59.6 
		606.8,59.6 606.8,67.2 631.4,67.2 631.4,76.3 	"/>
	<line fill="none" stroke="#333399" stroke-width="2" stroke-miterlimit="10" x1="606.8" y1="63.8" x2="606.8" y2="72.5"/>
</g>
<line fill="none" stroke="#333399" stroke-width="3" stroke-miterlimit="10" x1="290.1" y1="108.8" x2="297.7" y2="108.8"/>
<g>
	<polyline fill="none" stroke="#333399" stroke-width="2" stroke-miterlimit="10" points="263.8,108.5 279,108.5 279,93.2 
		301.9,93.2 301.9,100.8 320.6,100.8 320.6,109.9 	"/>
	<line fill="none" stroke="#333399" stroke-width="2" stroke-miterlimit="10" x1="301.9" y1="97.4" x2="301.9" y2="106.1"/>
</g>
<line fill="none" stroke="#333399" stroke-width="2" stroke-miterlimit="10" x1="65.4" y1="214" x2="74.5" y2="214"/>
<g>
	<polyline fill="none" stroke="#333399" stroke-width="2" stroke-miterlimit="10" points="0,211.6 18.4,211.6 18.4,193.2 46,193.2 
		46,202.4 68.7,202.4 68.7,213.3 	"/>
	<line fill="none" stroke="#333399" stroke-width="2" stroke-miterlimit="10" x1="46" y1="198.3" x2="46" y2="208.8"/>
</g>
<g>
	<line fill="none" stroke="#333399" stroke-width="2" stroke-miterlimit="10" x1="420.6" y1="64.3" x2="423.5" y2="67.7"/>
	<line fill="none" stroke="#333399" stroke-width="2" stroke-miterlimit="10" x1="409" y1="71.8" x2="415.9" y2="75.8"/>
	<line fill="none" stroke="#333399" stroke-width="2" stroke-miterlimit="10" x1="407.9" y1="85.5" x2="412.4" y2="86.3"/>
	<line fill="none" stroke="#333399" stroke-width="2" stroke-miterlimit="10" x1="403.3" y1="99" x2="412.5" y2="97.4"/>
	<line fill="none" stroke="#333399" stroke-width="2" stroke-miterlimit="10" x1="411.1" y1="110.7" x2="415.9" y2="107.9"/>
	<line fill="none" stroke="#333399" stroke-width="2" stroke-miterlimit="10" x1="417.3" y1="123.3" x2="423" y2="116.5"/>
	<line fill="none" stroke="#333399" stroke-width="2" stroke-miterlimit="10" x1="430.9" y1="127.1" x2="432.4" y2="123"/>
	<line fill="none" stroke="#333399" stroke-width="2" stroke-miterlimit="10" x1="443.7" y1="132.9" x2="443.7" y2="124.8"/>
	<line fill="none" stroke="#333399" stroke-width="2" stroke-miterlimit="10" x1="456.6" y1="127.3" x2="455.2" y2="123.5"/>
	<line fill="none" stroke="#333399" stroke-width="2" stroke-miterlimit="10" x1="470.1" y1="123.3" x2="464.5" y2="116.5"/>
	<line fill="none" stroke="#333399" stroke-width="2" stroke-miterlimit="10" x1="475.8" y1="110.4" x2="471.5" y2="107.9"/>
	<line fill="none" stroke="#333399" stroke-width="2" stroke-miterlimit="10" x1="484.2" y1="99" x2="475.7" y2="97.5"/>
	<line fill="none" stroke="#333399" stroke-width="2" stroke-miterlimit="10" x1="480.8" y1="85.3" x2="475.7" y2="86.2"/>
	<line fill="none" stroke="#333399" stroke-width="2" stroke-miterlimit="10" x1="479.3" y1="71.3" x2="471.5" y2="75.8"/>
	<line fill="none" stroke="#333399" stroke-width="2" stroke-miterlimit="10" x1="467.3" y1="63.8" x2="463.6" y2="68.2"/>
</g>
<g>
	<line fill="none" stroke="#333399" stroke-width="3" stroke-miterlimit="10" x1="765" y1="95.6" x2="762.3" y2="101.3"/>
	<line fill="none" stroke="#333399" stroke-width="3" stroke-miterlimit="10" x1="747.3" y1="88.1" x2="747.3" y2="99.8"/>
	<line fill="none" stroke="#333399" stroke-width="3" stroke-miterlimit="10" x1="734.5" y1="92.4" x2="735.9" y2="97.9"/>
	<line fill="none" stroke="#333399" stroke-width="3" stroke-miterlimit="10" x1="717.3" y1="94.6" x2="723" y2="102.9"/>
	<line fill="none" stroke="#333399" stroke-width="3" stroke-miterlimit="10" x1="708.7" y1="109.5" x2="713.3" y2="112.9"/>
	<line fill="none" stroke="#333399" stroke-width="3" stroke-miterlimit="10" x1="762.8" y1="184.8" x2="760.1" y2="174.2"/>
	<line fill="none" stroke="#333399" stroke-width="3" stroke-miterlimit="10" x1="771.8" y1="174.2" x2="768.3" y2="169.1"/>
	<line fill="none" stroke="#333399" stroke-width="3" stroke-miterlimit="10" x1="787.4" y1="165.9" x2="778.6" y2="159.6"/>
	<line fill="none" stroke="#333399" stroke-width="3" stroke-miterlimit="10" x1="791" y1="148.6" x2="784.7" y2="146.9"/>
	<line fill="none" stroke="#333399" stroke-width="3" stroke-miterlimit="10" x1="796.8" y1="132.1" x2="785.7" y2="132.9"/>
	<line fill="none" stroke="#333399" stroke-width="3" stroke-miterlimit="10" x1="787.4" y1="117.1" x2="780.8" y2="120.1"/>
	<line fill="none" stroke="#333399" stroke-width="3" stroke-miterlimit="10" x1="781.2" y1="101.2" x2="774" y2="108.2"/>
</g>
<g>
	<polygon fill="#D7D9DD" stroke="#333399" stroke-width="3" stroke-miterlimit="10" points="729,410.5 733.8,396.7 791.9,396.7 
		797.1,410.5 763.1,445.2 	"/>
	<line fill="#D7D9DD" stroke="#333399" stroke-width="3" stroke-miterlimit="10" x1="729" y1="410.5" x2="797.1" y2="410.5"/>
	<line fill="#D7D9DD" stroke="#333399" stroke-width="3" stroke-miterlimit="10" x1="776.3" y1="396.7" x2="782" y2="410.5"/>
	<line fill="#D7D9DD" stroke="#333399" stroke-width="3" stroke-miterlimit="10" x1="748.6" y1="396.7" x2="744.1" y2="410.5"/>
	<line fill="#D7D9DD" stroke="#333399" stroke-width="3" stroke-miterlimit="10" x1="744.1" y1="410.5" x2="763.1" y2="445.2"/>
	<line fill="#D7D9DD" stroke="#333399" stroke-width="3" stroke-miterlimit="10" x1="763.1" y1="445.2" x2="782" y2="410.5"/>
	<line fill="#D7D9DD" stroke="#333399" stroke-width="3" stroke-miterlimit="10" x1="762.7" y1="396.7" x2="762.7" y2="446.1"/>
</g>
<line fill="none" stroke="#333399" stroke-width="3" stroke-miterlimit="10" x1="767.5" y1="298.1" x2="772.9" y2="298.1"/>
<line fill="none" stroke="#333399" stroke-width="3" stroke-miterlimit="10" x1="776.6" y1="298.1" x2="782" y2="298.1"/>
<line fill="none" stroke="#333399" stroke-width="3" stroke-miterlimit="10" x1="786.9" y1="298.1" x2="832.3" y2="298.1"/>
<line fill="none" stroke="#E88356" stroke-width="3" stroke-miterlimit="10" x1="623.2" y1="169.1" x2="632.8" y2="169.1"/>
<g>
	<rect x="532" y="409.8" fill="#EDEEF0" stroke="#333399" stroke-width="3" stroke-miterlimit="10" width="158.6" height="35.6"/>
	<line fill="none" stroke="#E88356" stroke-width="3" stroke-miterlimit="10" x1="637.7" y1="169.1" x2="689.8" y2="169.1"/>
	<line fill="none" stroke="#E88356" stroke-width="3" stroke-miterlimit="10" x1="656.6" y1="177.2" x2="726.7" y2="177.2"/>
	<line fill="none" stroke="#E88356" stroke-width="3" stroke-miterlimit="10" x1="629.2" y1="177.2" x2="650.9" y2="177.2"/>
	<line fill="none" stroke="#E88356" stroke-width="3" stroke-miterlimit="10" x1="640.1" y1="186.5" x2="663.8" y2="186.5"/>
	<line fill="none" stroke="#E88356" stroke-width="3" stroke-miterlimit="10" x1="644" y1="199.3" x2="703.6" y2="199.3"/>
	<line fill="none" stroke="#E88356" stroke-width="3" stroke-miterlimit="10" x1="711" y1="199.3" x2="720.1" y2="199.3"/>
	<line fill="none" stroke="#E88356" stroke-width="3" stroke-miterlimit="10" x1="650.9" y1="222.2" x2="679.5" y2="222.2"/>
	<line fill="none" stroke="#E88356" stroke-width="3" stroke-miterlimit="10" x1="682.5" y1="222.2" x2="703.6" y2="222.2"/>
	<line fill="none" stroke="#E88356" stroke-width="3" stroke-miterlimit="10" x1="658.9" y1="235.3" x2="665.7" y2="235.3"/>
	<line fill="none" stroke="#E88356" stroke-width="3" stroke-miterlimit="10" x1="644" y1="247" x2="655.1" y2="247"/>
	<line fill="none" stroke="#E88356" stroke-width="3" stroke-miterlimit="10" x1="659.6" y1="247" x2="678.5" y2="247"/>
	<line fill="none" stroke="#E88356" stroke-width="3" stroke-miterlimit="10" x1="683.6" y1="247" x2="715" y2="247"/>
	<line fill="none" stroke="#E88356" stroke-width="3" stroke-miterlimit="10" x1="643" y1="271.1" x2="654.1" y2="271.1"/>
	<line fill="none" stroke="#E88356" stroke-width="3" stroke-miterlimit="10" x1="660.1" y1="271.1" x2="679" y2="271.1"/>
	<line fill="none" stroke="#E88356" stroke-width="3" stroke-miterlimit="10" x1="682.6" y1="271.1" x2="701" y2="271.1"/>
	<line fill="none" stroke="#E88356" stroke-width="3" stroke-miterlimit="10" x1="641.3" y1="294.7" x2="652.4" y2="294.7"/>
	<line fill="none" stroke="#E88356" stroke-width="3" stroke-miterlimit="10" x1="658.4" y1="294.7" x2="675.8" y2="294.7"/>
	<line fill="none" stroke="#E88356" stroke-width="3" stroke-miterlimit="10" x1="642" y1="330.8" x2="653.4" y2="330.8"/>
	<line fill="none" stroke="#E88356" stroke-width="3" stroke-miterlimit="10" x1="656.3" y1="330.8" x2="675" y2="330.8"/>
	<line fill="none" stroke="#E88356" stroke-width="3" stroke-miterlimit="10" x1="642" y1="366.3" x2="674.2" y2="366.3"/>
	<line fill="none" stroke="#E88356" stroke-width="3" stroke-miterlimit="10" x1="655.4" y1="342.2" x2="662.6" y2="342.2"/>
	<line fill="none" stroke="#E88356" stroke-width="3" stroke-miterlimit="10" x1="642" y1="354.1" x2="649.2" y2="354.1"/>
	<line fill="none" stroke="#E88356" stroke-width="3" stroke-miterlimit="10" x1="642" y1="378.3" x2="654.3" y2="378.3"/>
	<line fill="none" stroke="#E88356" stroke-width="3" stroke-miterlimit="10" x1="686.3" y1="402.1" x2="694.6" y2="402.1"/>
	<line fill="none" stroke="#E88356" stroke-width="3" stroke-miterlimit="10" x1="659.6" y1="378.3" x2="710.6" y2="378.3"/>
	<line fill="none" stroke="#E88356" stroke-width="3" stroke-miterlimit="10" x1="642" y1="390.1" x2="665.8" y2="390.1"/>
	<line fill="none" stroke="#E88356" stroke-width="3" stroke-miterlimit="10" x1="670.7" y1="390.1" x2="702" y2="390.1"/>
	<line fill="none" stroke="#E88356" stroke-width="3" stroke-miterlimit="10" x1="638.3" y1="402.1" x2="681.5" y2="402.1"/>
	<line fill="none" stroke="#E88356" stroke-width="3" stroke-miterlimit="10" x1="666.8" y1="342.2" x2="717.7" y2="342.2"/>
	<line fill="none" stroke="#E88356" stroke-width="3" stroke-miterlimit="10" x1="655.6" y1="354.1" x2="685.7" y2="354.1"/>
	<line fill="none" stroke="#E88356" stroke-width="3" stroke-miterlimit="10" x1="690.8" y1="354.1" x2="706" y2="354.1"/>
	<line fill="none" stroke="#E88356" stroke-width="3" stroke-miterlimit="10" x1="679.8" y1="294.7" x2="708.9" y2="294.7"/>
	<line fill="none" stroke="#E88356" stroke-width="3" stroke-miterlimit="10" x1="669.5" y1="259.1" x2="727.9" y2="259.1"/>
	<line fill="none" stroke="#E88356" stroke-width="3" stroke-miterlimit="10" x1="653.4" y1="283.6" x2="718.3" y2="283.6"/>
	<line fill="none" stroke="#E88356" stroke-width="3" stroke-miterlimit="10" x1="649.3" y1="318.7" x2="724.1" y2="318.7"/>
	<line fill="none" stroke="#E88356" stroke-width="3" stroke-miterlimit="10" x1="641.3" y1="306.8" x2="685.1" y2="306.8"/>
	<line fill="none" stroke="#E88356" stroke-width="3" stroke-miterlimit="10" x1="669.5" y1="235.3" x2="727" y2="235.3"/>
	<line fill="none" stroke="#E88356" stroke-width="3" stroke-miterlimit="10" x1="649.9" y1="211.5" x2="678.5" y2="211.5"/>
</g>
<rect x="381.4" y="234.3" fill="none" stroke="#333399" stroke-width="3" stroke-miterlimit="10" width="144.2" height="62.6"/>
<path fill="#AFAEB4" stroke="#333399" stroke-width="3" stroke-miterlimit="10" d="M639.7,393.2c0,4.3-3.5,7.9-7.9,7.9H299.2
	c-4.3,0-7.9-3.5-7.9-7.9V200.6c0-4.3,3.5-7.9,7.9-7.9h332.6c4.3,0,7.9,3.5,7.9,7.9V393.2z"/>
<rect x="305.3" y="204.6" fill="#FFFFFF" stroke="#333399" stroke-width="3" stroke-miterlimit="10" width="321.1" height="150.7"/>
<line fill="none" stroke="#333399" stroke-width="3" stroke-miterlimit="10" x1="320.2" y1="273.7" x2="367.4" y2="273.7"/>
<line fill="none" stroke="#333399" stroke-width="3" stroke-miterlimit="10" x1="320.2" y1="289.4" x2="367.4" y2="289.4"/>
<line fill="none" stroke="#333399" stroke-width="3" stroke-miterlimit="10" x1="320.2" y1="305.2" x2="367.4" y2="305.2"/>
<line fill="none" stroke="#333399" stroke-width="3" stroke-miterlimit="10" x1="320.2" y1="320.9" x2="367.4" y2="320.9"/>
<rect x="381.4" y="308.1" fill="none" stroke="#333399" stroke-width="3" stroke-miterlimit="10" width="33.5" height="33.5"/>
<rect x="436.8" y="308.1" fill="none" stroke="#333399" stroke-width="3" stroke-miterlimit="10" width="33.5" height="33.5"/>
<rect x="492.2" y="308.1" fill="none" stroke="#333399" stroke-width="3" stroke-miterlimit="10" width="33.5" height="33.5"/>
<rect x="558.4" y="294.3" fill="none" stroke="#333399" stroke-width="3" stroke-miterlimit="10" width="47.2" height="47.2"/>
<rect x="558.4" y="232.3" fill="none" stroke="#333399" stroke-width="3" stroke-miterlimit="10" width="47.2" height="52.7"/>
<rect x="381.4" y="232.3" fill="none" stroke="#333399" stroke-width="3" stroke-miterlimit="10" width="144.2" height="62"/>
<g>
	<line fill="none" stroke="#333399" stroke-width="2" stroke-miterlimit="10" x1="509.2" y1="167.7" x2="509.2" y2="180.6"/>
	<line fill="none" stroke="#333399" stroke-width="2" stroke-miterlimit="10" x1="503.2" y1="174.2" x2="514.6" y2="174.2"/>
</g>
<g>
	<polygon fill="#EDEEF0" stroke="#333399" stroke-width="3" stroke-miterlimit="10" points="548,184.3 622.9,184.3 622.9,170 
		604.6,170 604.6,160.4 584.5,160.4 584.5,152.8 556,152.8 556,174.1 548,174.1 	"/>
	<line fill="#EDEEF0" stroke="#333399" stroke-width="3" stroke-miterlimit="10" x1="584.5" y1="171.8" x2="584.5" y2="158.1"/>
	<line fill="#EDEEF0" stroke="#333399" stroke-width="3" stroke-miterlimit="10" x1="604.6" y1="165.6" x2="604.6" y2="175.2"/>
</g>
<polygon fill="#D7D9DD" stroke="#333399" stroke-width="3" stroke-miterlimit="10" points="528.5,401.1 540.9,432.2 554.6,432.2 
	554.6,445.4 376.8,445.4 376.8,432.2 391.2,432.2 403.1,401.1 "/>
<ellipse fill="#C3C4CA" stroke="#333399" stroke-width="3" stroke-miterlimit="10" cx="335.7" cy="409.8" rx="1.8" ry="5.7"/>
<rect x="235.7" y="385.9" fill="#C3C4CA" width="100.2" height="57.4"/>
<g>
	<rect x="244" y="387.8" fill="#DCDCE0" width="10.4" height="53.5"/>
	<rect x="255.8" y="387.8" fill="#DCDCE0" width="10.4" height="53.5"/>
	<rect x="267.9" y="387.8" fill="#DCDCE0" width="10.4" height="53.5"/>
	<rect x="279.7" y="387.8" fill="#DCDCE0" width="10.4" height="53.5"/>
	<rect x="291.8" y="387.8" fill="#DCDCE0" width="10.4" height="53.5"/>
	<rect x="303.6" y="387.8" fill="#DCDCE0" width="10.4" height="53.5"/>
	<rect x="315" y="387.8" fill="#DCDCE0" width="10.4" height="53.5"/>
</g>
<path fill="#737373" stroke="#333399" stroke-width="3" stroke-miterlimit="10" d="M324.1,382.3h-76.6c-9.2,0-16.6,7.4-16.6,16.6
	v33.2c0,9.2,7.4,16.6,16.6,16.6h76.6c9.2,0,16.6-7.4,16.6-16.6v-33.2C340.7,389.7,333.3,382.3,324.1,382.3z M331.9,429.4
	c0,7.8-6.4,14.1-14.3,14.1h-66.2c-7.9,0-14.4-6.3-14.4-14.1v-28.1c0-7.8,6.4-14.1,14.4-14.1h66.2c7.9,0,14.3,6.3,14.3,14.1V429.4z"
	/>
<line fill="none" stroke="#333399" stroke-width="3" stroke-miterlimit="10" x1="565.9" y1="409.8" x2="565.9" y2="427.9"/>
<line fill="none" stroke="#333399" stroke-width="3" stroke-miterlimit="10" x1="587.2" y1="409.8" x2="587.2" y2="420.6"/>
<line fill="none" stroke="#333399" stroke-width="3" stroke-miterlimit="10" x1="610.3" y1="409.8" x2="610.3" y2="427.9"/>
<line fill="none" stroke="#333399" stroke-width="3" stroke-miterlimit="10" x1="631.7" y1="409.8" x2="631.7" y2="420.6"/>
<line fill="none" stroke="#333399" stroke-width="3" stroke-miterlimit="10" x1="654.8" y1="409.8" x2="654.8" y2="427.9"/>
<line fill="none" stroke="#333399" stroke-width="3" stroke-miterlimit="10" x1="676.2" y1="409.8" x2="676.2" y2="420.6"/>
<polyline fill="none" stroke="#FFFFFF" stroke-width="3" stroke-miterlimit="10" points="733,142.7 744.9,154.6 762.5,114.4 "/>
<circle fill="#D7D9DD" stroke="#333399" stroke-width="3" stroke-miterlimit="10" cx="120.6" cy="375.3" r="25.8"/>
<circle fill="#D7D9DD" stroke="#333399" stroke-width="3" stroke-miterlimit="10" cx="92.5" cy="375.3" r="25.8"/>
<circle fill="#D7D9DD" stroke="#333399" stroke-width="3" stroke-miterlimit="10" cx="77.6" cy="425.6" r="14.9"/>
<circle fill="#D7D9DD" stroke="#333399" stroke-width="3" stroke-miterlimit="10" cx="123.3" cy="425.6" r="14.9"/>
<circle fill="#D7D9DD" stroke="#333399" stroke-width="3" stroke-miterlimit="10" cx="168.9" cy="425.6" r="14.9"/>
<rect x="334.5" y="406.4" fill="#FFFFFF" stroke="#333399" stroke-width="3" stroke-miterlimit="10" width="3" height="13.9"/>
<path fill="#FFFFFF" d="M85,371.5l-9.5,3.6l9.5,3.9v4.9l-14.8-6.8v-4l14.8-6.7V371.5z"/>
<path fill="#FFFFFF" d="M108.3,375.1l-9.5-3.6v-4.9l14.8,6.7v4L98.8,384v-4.9L108.3,375.1z"/>
<line fill="none" stroke="#FFFFFF" stroke-width="3" stroke-miterlimit="10" x1="95.8" y1="359.7" x2="89.5" y2="390.9"/>
<line fill="none" stroke="#FFFFFF" stroke-width="3" stroke-miterlimit="10" x1="123.5" y1="382.1" x2="134" y2="365"/>
<line fill="none" stroke="#FFFFFF" stroke-width="3" stroke-miterlimit="10" x1="123.3" y1="365.2" x2="134.2" y2="381.9"/>
<polyline fill="none" stroke="#FFFFFF" stroke-width="3" stroke-miterlimit="10" points="172,358.3 160.4,386.2 153.4,375.4 "/>
</svg>
