<svg version="1.1" class="img-responsive servicios_icono" id="servicios_icono5" 
	 xmlns="http://www.w3.org/2000/svg" xmlns:xlink="http://www.w3.org/1999/xlink" xmlns:a="http://ns.adobe.com/AdobeSVGViewerExtensions/3.0/"
	 x="0px" y="0px" width="861.2px" height="476.7px" viewBox="0 0 861.2 476.7" enable-background="new 0 0 861.2 476.7"
	 xml:space="preserve">
<defs>
</defs>
<g>
	<line fill="none" stroke="#E88356" stroke-width="3.2783" stroke-miterlimit="10" x1="700" y1="452" x2="752.7" y2="452"/>
	
		<rect x="342.5" y="255.7" fill="#F2F2F2" stroke="#333399" stroke-width="1.6391" stroke-miterlimit="10" width="30.9" height="21.4"/>
	
		<rect x="201.9" y="377.4" fill="none" stroke="#333399" stroke-width="6.5565" stroke-miterlimit="10" width="80.3" height="96.1"/>
	<circle fill="#434041" stroke="#333399" stroke-width="1.6391" stroke-miterlimit="10" cx="374.4" cy="266.4" r="15"/>
	
		<rect x="394.7" y="225.9" fill="#434041" stroke="#333399" stroke-width="1.6391" stroke-miterlimit="10" width="9.7" height="81.5"/>
	<line fill="none" stroke="#333399" stroke-width="1.6391" stroke-miterlimit="10" x1="331.3" y1="360.4" x2="355.7" y2="360.4"/>
	<line fill="none" stroke="#333399" stroke-width="1.7189" stroke-miterlimit="10" x1="459.1" y1="56.1" x2="459.1" y2="16.5"/>
	<path fill="none" stroke="#333399" stroke-width="0.8594" stroke-miterlimit="10" d="M469.3,80.8v-6.3h-20.2v6.3
		c-5.9,3.5-9.8,9.8-9.8,17.1c0,11,8.9,19.9,19.9,19.9c11,0,19.9-8.9,19.9-19.9C479.1,90.6,475.2,84.2,469.3,80.8z"/>
	<rect x="448" y="68.3" fill="none" stroke="#333399" stroke-width="0.8594" stroke-miterlimit="10" width="22" height="6.2"/>
	<line fill="none" stroke="#333399" stroke-width="4.9174" stroke-miterlimit="10" x1="399.5" y1="168" x2="487.9" y2="168"/>
	<line fill="none" stroke="#333399" stroke-width="4.9174" stroke-miterlimit="10" x1="499.8" y1="168" x2="517.2" y2="168"/>
	<line fill="none" stroke="#333399" stroke-width="4.9174" stroke-miterlimit="10" x1="298.5" y1="168" x2="337.9" y2="168"/>
	<line fill="none" stroke="#333399" stroke-width="6.5565" stroke-miterlimit="10" x1="191.8" y1="77" x2="231.2" y2="77"/>
	<line fill="none" stroke="#333399" stroke-width="6.5565" stroke-miterlimit="10" x1="170.9" y1="77" x2="176.8" y2="77"/>
	<line fill="none" stroke="#333399" stroke-width="6.5565" stroke-miterlimit="10" x1="179.7" y1="77" x2="186.8" y2="77"/>
	<rect x="47.6" y="96.7" fill="none" stroke="#333399" stroke-width="4.9174" stroke-miterlimit="10" width="10.5" height="10.9"/>
	<rect x="708.6" y="61.1" fill="none" stroke="#333399" stroke-width="4.9174" stroke-miterlimit="10" width="12.1" height="12.5"/>
	<path fill="none" stroke="#333399" stroke-width="6.5565" stroke-miterlimit="10" d="M67.5,429.2v0.1c-11.2,1.1-19.9,10.6-19.9,22
		c0,11.5,8.7,20.9,19.9,22v0.1h134.4v-44.3H67.5z"/>
	<circle fill="#D7D9DD" stroke="#333399" stroke-width="4.9174" stroke-miterlimit="10" cx="165.4" cy="399.3" r="26.7"/>
	<line fill="none" stroke="#333399" stroke-width="6.5565" stroke-miterlimit="10" x1="95.5" y1="326.7" x2="99.8" y2="326.7"/>
	<line fill="none" stroke="#333399" stroke-width="6.5565" stroke-miterlimit="10" x1="104.2" y1="326.7" x2="111.3" y2="326.7"/>
	<line fill="none" stroke="#333399" stroke-width="6.5565" stroke-miterlimit="10" x1="116.9" y1="326.7" x2="161.7" y2="326.7"/>
	<g>
		<path fill="none" stroke="#333399" stroke-width="3.2783" stroke-linejoin="round" stroke-miterlimit="10" d="M103.4,168.9
			c0,0,4.6-40.7,40.6-40.7c0,0,38.6,5,38.6,38.6c0,0-11.6-15.4-21.1,2.1c0,0-9.7-17.3-18.5,0c0,0-11.4-17.8-20,0
			C123,168.9,114.4,155.6,103.4,168.9z"/>
		
			<line fill="none" stroke="#333399" stroke-width="3.2783" stroke-linejoin="round" stroke-miterlimit="10" x1="103.4" y1="168.9" x2="134.6" y2="211.5"/>
		
			<line fill="none" stroke="#333399" stroke-width="3.2783" stroke-linejoin="round" stroke-miterlimit="10" x1="123" y1="168.9" x2="138.6" y2="211.5"/>
		
			<line fill="none" stroke="#333399" stroke-width="3.2783" stroke-linejoin="round" stroke-miterlimit="10" x1="143" y1="168.9" x2="143" y2="212.2"/>
		
			<line fill="none" stroke="#333399" stroke-width="3.2783" stroke-linejoin="round" stroke-miterlimit="10" x1="161.5" y1="168.9" x2="145.8" y2="212.2"/>
		
			<line fill="none" stroke="#333399" stroke-width="3.2783" stroke-linejoin="round" stroke-miterlimit="10" x1="182.7" y1="166.8" x2="149.8" y2="212.2"/>
		
			<rect x="118.1" y="211.5" fill="none" stroke="#333399" stroke-width="3.2783" stroke-linejoin="round" stroke-miterlimit="10" width="50.2" height="12.1"/>
		
			<rect x="120.3" y="223.5" fill="none" stroke="#333399" stroke-width="3.2783" stroke-linejoin="round" stroke-miterlimit="10" width="45" height="24.3"/>
		
			<rect x="116.9" y="247.8" fill="none" stroke="#333399" stroke-width="3.2783" stroke-linejoin="round" stroke-miterlimit="10" width="51.4" height="12.7"/>
	</g>
	<line fill="none" stroke="#333399" stroke-width="4.9174" stroke-miterlimit="10" x1="621.1" y1="448.9" x2="621.1" y2="435"/>
	<line fill="none" stroke="#333399" stroke-width="4.9174" stroke-miterlimit="10" x1="649.6" y1="449.6" x2="649.6" y2="435"/>
	<line fill="none" stroke="#333399" stroke-width="4.9174" stroke-miterlimit="10" x1="678" y1="449.6" x2="678" y2="435"/>
	<line fill="none" stroke="#333399" stroke-width="4.9174" stroke-miterlimit="10" x1="706.4" y1="449.6" x2="706.4" y2="435"/>
	<line fill="none" stroke="#333399" stroke-width="4.9174" stroke-miterlimit="10" x1="592.2" y1="449.6" x2="592.2" y2="435"/>
	<g>
		<g id="XMLID_1_">
			<g>
				<path fill="#5C5B5F" d="M781,160.2v306.6c0,2.8-2.3,5.1-5.1,5.1H621c-2.8,0-5.1-2.3-5.1-5.1V160.2H781z"/>
				<path fill="#C3C4CA" d="M781,148v12.2H616V148c0-2.8,2.3-5.1,5.1-5.1h154.8C778.7,142.9,781,145.2,781,148z"/>
			</g>
			<g>
				<path fill="none" stroke="#333399" stroke-width="4.9174" stroke-miterlimit="10" d="M781,160.2v306.6c0,2.8-2.3,5.1-5.1,5.1
					H621c-2.8,0-5.1-2.3-5.1-5.1V160.2V148c0-2.8,2.3-5.1,5.1-5.1h154.8c2.8,0,5.1,2.3,5.1,5.1V160.2z"/>
				<line fill="none" stroke="#333399" stroke-width="4.9174" stroke-miterlimit="10" x1="616" y1="160.2" x2="781" y2="160.2"/>
			</g>
		</g>
	</g>
	
		<rect x="630.2" y="150.2" fill="#FFFFFF" stroke="#333399" stroke-width="1.6391" stroke-miterlimit="10" width="5.8" height="5.4"/>
	
		<rect x="638.9" y="150.2" fill="#FFFFFF" stroke="#333399" stroke-width="1.6391" stroke-miterlimit="10" width="5.8" height="5.4"/>
	
		<rect x="648.2" y="150.2" fill="#FFFFFF" stroke="#333399" stroke-width="1.6391" stroke-miterlimit="10" width="5.8" height="5.4"/>
	<circle fill="#D7D9DD" stroke="#333399" stroke-width="1.6391" stroke-miterlimit="10" cx="773.7" cy="153.7" r="33.7"/>
	<path fill="none" stroke="#333399" stroke-width="1.7189" stroke-miterlimit="10" d="M453.9,68.3V61c0,0-0.1-5,5-5
		c0,0,5.7-0.4,5.7,5.7v6.5H453.9z"/>
	<line fill="none" stroke="#333399" stroke-width="1.7189" stroke-miterlimit="10" x1="459.7" y1="63.9" x2="464.6" y2="63.9"/>
	<line fill="none" stroke="#333399" stroke-width="4.9174" stroke-miterlimit="10" x1="649.7" y1="88.8" x2="659.9" y2="88.8"/>
	<g>
		<line fill="none" stroke="#333399" stroke-width="4.9174" stroke-miterlimit="10" x1="574.5" y1="128.5" x2="574.5" y2="141.9"/>
		<line fill="none" stroke="#333399" stroke-width="4.9174" stroke-miterlimit="10" x1="568.3" y1="135.2" x2="580.1" y2="135.2"/>
	</g>
	<g>
		<line fill="none" stroke="#333399" stroke-width="4.9174" stroke-miterlimit="10" x1="352.4" y1="161.3" x2="352.4" y2="174.7"/>
		<line fill="none" stroke="#333399" stroke-width="4.9174" stroke-miterlimit="10" x1="346.2" y1="168" x2="358.1" y2="168"/>
	</g>
	<g>
		<line fill="none" stroke="#333399" stroke-width="4.9174" stroke-miterlimit="10" x1="83.3" y1="320.1" x2="83.3" y2="333.4"/>
		<line fill="none" stroke="#333399" stroke-width="4.9174" stroke-miterlimit="10" x1="77.1" y1="326.7" x2="88.9" y2="326.7"/>
	</g>
	<g>
		<line fill="none" stroke="#333399" stroke-width="4.9174" stroke-miterlimit="10" x1="159.3" y1="70.3" x2="159.3" y2="83.7"/>
		<line fill="none" stroke="#333399" stroke-width="4.9174" stroke-miterlimit="10" x1="153.1" y1="77" x2="164.9" y2="77"/>
	</g>
	<g>
		<line fill="none" stroke="#333399" stroke-width="4.9174" stroke-miterlimit="10" x1="232" y1="114.1" x2="232" y2="127.5"/>
		<line fill="none" stroke="#333399" stroke-width="4.9174" stroke-miterlimit="10" x1="225.8" y1="120.8" x2="237.6" y2="120.8"/>
	</g>
	<g>
		<polygon fill="none" stroke="#333399" stroke-width="4.9174" stroke-miterlimit="10" points="125.4,39.1 203,39.1 203,22.5 
			184,22.5 184,11.4 163.2,11.4 163.2,2.5 133.6,2.5 133.6,27.3 125.4,27.3 		"/>
		<line fill="none" stroke="#333399" stroke-width="4.9174" stroke-miterlimit="10" x1="163.2" y1="24.6" x2="163.2" y2="8.6"/>
		<line fill="none" stroke="#333399" stroke-width="4.9174" stroke-miterlimit="10" x1="184" y1="17.3" x2="184" y2="28.5"/>
		<line fill="none" stroke="#333399" stroke-width="4.9174" stroke-miterlimit="10" x1="131.9" y1="27.3" x2="139.7" y2="27.3"/>
	</g>
	<g>
		<polygon fill="none" stroke="#333399" stroke-width="4.9174" stroke-miterlimit="10" points="217.2,216.6 272.7,216.6 
			272.7,205.5 259.2,205.5 259.2,198 244.2,198 244.2,192 223.1,192 223.1,208.6 217.2,208.6 		"/>
		<line fill="none" stroke="#333399" stroke-width="4.9174" stroke-miterlimit="10" x1="244.2" y1="206.8" x2="244.2" y2="196.1"/>
		<line fill="none" stroke="#333399" stroke-width="4.9174" stroke-miterlimit="10" x1="259.2" y1="202" x2="259.2" y2="209.5"/>
		<line fill="none" stroke="#333399" stroke-width="4.9174" stroke-miterlimit="10" x1="221.8" y1="208.6" x2="227.4" y2="208.6"/>
	</g>
	<g>
		<polygon fill="none" stroke="#333399" stroke-width="3.2783" stroke-miterlimit="10" points="660.5,35.9 727.4,35.9 727.4,21.6 
			711.1,21.6 711.1,12 693.1,12 693.1,4.3 667.6,4.3 667.6,25.7 660.5,25.7 		"/>
		<line fill="none" stroke="#333399" stroke-width="3.2783" stroke-miterlimit="10" x1="693.1" y1="23.4" x2="693.1" y2="9.6"/>
		<line fill="none" stroke="#333399" stroke-width="3.2783" stroke-miterlimit="10" x1="711.1" y1="17.1" x2="711.1" y2="26.8"/>
	</g>
	<g>
		<polygon fill="#EDEEF0" stroke="#333399" stroke-width="4.9174" stroke-miterlimit="10" points="763.3,253.5 830.2,253.5 
			830.2,239.2 813.9,239.2 813.9,229.6 795.9,229.6 795.9,221.9 770.5,221.9 770.5,243.3 763.3,243.3 		"/>
		
			<line fill="#EDEEF0" stroke="#333399" stroke-width="4.9174" stroke-miterlimit="10" x1="795.9" y1="240.9" x2="795.9" y2="227.2"/>
		
			<line fill="#EDEEF0" stroke="#333399" stroke-width="4.9174" stroke-miterlimit="10" x1="813.9" y1="234.7" x2="813.9" y2="244.4"/>
	</g>
	<g>
		<polyline fill="none" stroke="#333399" stroke-width="4.9174" stroke-miterlimit="10" points="576.1,88.4 596.8,88.4 596.8,72.7 
			627.8,72.7 627.8,80.5 653.3,80.5 653.3,89.9 		"/>
		<line fill="none" stroke="#333399" stroke-width="4.9174" stroke-miterlimit="10" x1="627.8" y1="77" x2="627.8" y2="86"/>
	</g>
	<line fill="none" stroke="#333399" stroke-width="4.9174" stroke-miterlimit="10" x1="300.2" y1="123.5" x2="308" y2="123.5"/>
	<g>
		<polyline fill="none" stroke="#333399" stroke-width="4.9174" stroke-miterlimit="10" points="244.2,123.2 259.9,123.2 
			259.9,107.4 283.6,107.4 283.6,115.3 303,115.3 303,124.7 		"/>
		<line fill="none" stroke="#333399" stroke-width="4.9174" stroke-miterlimit="10" x1="283.6" y1="111.8" x2="283.6" y2="120.8"/>
	</g>
	<line fill="none" stroke="#333399" stroke-width="4.9174" stroke-miterlimit="10" x1="67.7" y1="232.4" x2="77.1" y2="232.4"/>
	<g>
		<polyline fill="none" stroke="#333399" stroke-width="4.9174" stroke-miterlimit="10" points="0,229.9 19,229.9 19,210.8 
			47.6,210.8 47.6,220.4 71,220.4 71,231.7 		"/>
		<line fill="none" stroke="#333399" stroke-width="4.9174" stroke-miterlimit="10" x1="47.6" y1="216.1" x2="47.6" y2="227"/>
	</g>
	<g>
		<line fill="none" stroke="#333399" stroke-width="2.5783" stroke-miterlimit="10" x1="442.1" y1="77.7" x2="444.3" y2="80.3"/>
		<line fill="none" stroke="#333399" stroke-width="2.5783" stroke-miterlimit="10" x1="433.6" y1="83.2" x2="438.7" y2="86.2"/>
		<line fill="none" stroke="#333399" stroke-width="2.5783" stroke-miterlimit="10" x1="432.8" y1="93.4" x2="436.1" y2="93.9"/>
		<line fill="none" stroke="#333399" stroke-width="2.5783" stroke-miterlimit="10" x1="429.4" y1="103.3" x2="436.2" y2="102.1"/>
		<line fill="none" stroke="#333399" stroke-width="2.5783" stroke-miterlimit="10" x1="435.1" y1="111.9" x2="438.7" y2="109.8"/>
		<line fill="none" stroke="#333399" stroke-width="2.5783" stroke-miterlimit="10" x1="439.7" y1="121.1" x2="443.9" y2="116.2"/>
		<line fill="none" stroke="#333399" stroke-width="2.5783" stroke-miterlimit="10" x1="449.7" y1="123.9" x2="450.8" y2="120.9"/>
		<line fill="none" stroke="#333399" stroke-width="2.5783" stroke-miterlimit="10" x1="459.1" y1="128.2" x2="459.1" y2="122.2"/>
		<line fill="none" stroke="#333399" stroke-width="2.5783" stroke-miterlimit="10" x1="468.6" y1="124.1" x2="467.6" y2="121.3"/>
		<line fill="none" stroke="#333399" stroke-width="2.5783" stroke-miterlimit="10" x1="478.5" y1="121.1" x2="474.4" y2="116.2"/>
		<line fill="none" stroke="#333399" stroke-width="2.5783" stroke-miterlimit="10" x1="482.7" y1="111.6" x2="479.6" y2="109.8"/>
		<line fill="none" stroke="#333399" stroke-width="2.5783" stroke-miterlimit="10" x1="488.9" y1="103.3" x2="482.7" y2="102.2"/>
		<line fill="none" stroke="#333399" stroke-width="2.5783" stroke-miterlimit="10" x1="486.4" y1="93.2" x2="482.7" y2="93.9"/>
		<line fill="none" stroke="#333399" stroke-width="2.5783" stroke-miterlimit="10" x1="485.3" y1="82.9" x2="479.6" y2="86.2"/>
		<line fill="none" stroke="#333399" stroke-width="2.5783" stroke-miterlimit="10" x1="476.5" y1="77.4" x2="473.7" y2="80.6"/>
	</g>
	<g>
		<line fill="none" stroke="#333399" stroke-width="4.9174" stroke-miterlimit="10" x1="791.5" y1="109.9" x2="788.7" y2="115.8"/>
		<line fill="none" stroke="#333399" stroke-width="4.9174" stroke-miterlimit="10" x1="773.2" y1="102.2" x2="773.2" y2="114.3"/>
		<line fill="none" stroke="#333399" stroke-width="4.9174" stroke-miterlimit="10" x1="760" y1="106.6" x2="761.4" y2="112.3"/>
		<line fill="none" stroke="#333399" stroke-width="4.9174" stroke-miterlimit="10" x1="742.2" y1="108.9" x2="748.1" y2="117.4"/>
		<line fill="none" stroke="#333399" stroke-width="4.9174" stroke-miterlimit="10" x1="733.3" y1="124.3" x2="738.1" y2="127.8"/>
		<line fill="none" stroke="#333399" stroke-width="4.9174" stroke-miterlimit="10" x1="789.3" y1="202.2" x2="786.5" y2="191.2"/>
		<line fill="none" stroke="#333399" stroke-width="4.9174" stroke-miterlimit="10" x1="798.6" y1="191.2" x2="795" y2="186"/>
		<line fill="none" stroke="#333399" stroke-width="4.9174" stroke-miterlimit="10" x1="814.7" y1="182.6" x2="805.7" y2="176.1"/>
		<line fill="none" stroke="#333399" stroke-width="4.9174" stroke-miterlimit="10" x1="818.4" y1="164.8" x2="812" y2="163"/>
		<line fill="none" stroke="#333399" stroke-width="4.9174" stroke-miterlimit="10" x1="824.5" y1="147.6" x2="812.9" y2="148.5"/>
		<line fill="none" stroke="#333399" stroke-width="4.9174" stroke-miterlimit="10" x1="814.7" y1="132.1" x2="807.9" y2="135.2"/>
		<line fill="none" stroke="#333399" stroke-width="4.9174" stroke-miterlimit="10" x1="808.3" y1="115.7" x2="800.9" y2="123"/>
	</g>
	<g>
		<polygon fill="#D7D9DD" stroke="#333399" stroke-width="4.9174" stroke-miterlimit="10" points="754.3,435.7 759.3,421.5 
			819.4,421.5 824.8,435.7 789.5,471.7 		"/>
		
			<line fill="#D7D9DD" stroke="#333399" stroke-width="4.9174" stroke-miterlimit="10" x1="754.3" y1="435.7" x2="824.8" y2="435.7"/>
		
			<line fill="#D7D9DD" stroke="#333399" stroke-width="4.9174" stroke-miterlimit="10" x1="803.2" y1="421.5" x2="809.1" y2="435.7"/>
		<line fill="#D7D9DD" stroke="#333399" stroke-width="4.9174" stroke-miterlimit="10" x1="774.6" y1="421.5" x2="770" y2="435.7"/>
		<line fill="#D7D9DD" stroke="#333399" stroke-width="4.9174" stroke-miterlimit="10" x1="770" y1="435.7" x2="789.5" y2="471.7"/>
		
			<line fill="#D7D9DD" stroke="#333399" stroke-width="4.9174" stroke-miterlimit="10" x1="789.5" y1="471.7" x2="809.1" y2="435.7"/>
		
			<line fill="#D7D9DD" stroke="#333399" stroke-width="4.9174" stroke-miterlimit="10" x1="789.2" y1="421.5" x2="789.2" y2="472.6"/>
	</g>
	<line fill="none" stroke="#333399" stroke-width="4.9174" stroke-miterlimit="10" x1="794.2" y1="319.4" x2="799.7" y2="319.4"/>
	<line fill="none" stroke="#333399" stroke-width="4.9174" stroke-miterlimit="10" x1="803.6" y1="319.4" x2="809.1" y2="319.4"/>
	<line fill="none" stroke="#333399" stroke-width="4.9174" stroke-miterlimit="10" x1="814.3" y1="319.4" x2="861.2" y2="319.4"/>
	<line fill="none" stroke="#E88356" stroke-width="3.2783" stroke-miterlimit="10" x1="644.8" y1="186" x2="654.8" y2="186"/>
	<g>
		
			<rect x="550.4" y="435" fill="#EDEEF0" stroke="#333399" stroke-width="4.9174" stroke-miterlimit="10" width="164.2" height="36.8"/>
		<line fill="none" stroke="#E88356" stroke-width="3.2783" stroke-miterlimit="10" x1="659.9" y1="186" x2="713.7" y2="186"/>
		<line fill="none" stroke="#E88356" stroke-width="3.2783" stroke-miterlimit="10" x1="679.4" y1="194.3" x2="751.9" y2="194.3"/>
		<line fill="none" stroke="#E88356" stroke-width="3.2783" stroke-miterlimit="10" x1="651.1" y1="194.3" x2="673.5" y2="194.3"/>
		<line fill="none" stroke="#E88356" stroke-width="3.2783" stroke-miterlimit="10" x1="662.3" y1="204" x2="686.8" y2="204"/>
		<line fill="none" stroke="#E88356" stroke-width="3.2783" stroke-miterlimit="10" x1="666.4" y1="217.3" x2="728" y2="217.3"/>
		<line fill="none" stroke="#E88356" stroke-width="3.2783" stroke-miterlimit="10" x1="735.7" y1="217.3" x2="745.1" y2="217.3"/>
		<line fill="none" stroke="#E88356" stroke-width="3.2783" stroke-miterlimit="10" x1="673.5" y1="240.9" x2="703" y2="240.9"/>
		<line fill="none" stroke="#E88356" stroke-width="3.2783" stroke-miterlimit="10" x1="706.2" y1="240.9" x2="728" y2="240.9"/>
		<line fill="none" stroke="#E88356" stroke-width="3.2783" stroke-miterlimit="10" x1="681.8" y1="254.5" x2="688.8" y2="254.5"/>
		<line fill="none" stroke="#E88356" stroke-width="3.2783" stroke-miterlimit="10" x1="666.4" y1="266.6" x2="677.9" y2="266.6"/>
		<line fill="none" stroke="#E88356" stroke-width="3.2783" stroke-miterlimit="10" x1="682.5" y1="266.6" x2="702" y2="266.6"/>
		<line fill="none" stroke="#E88356" stroke-width="3.2783" stroke-miterlimit="10" x1="707.3" y1="266.6" x2="739.8" y2="266.6"/>
		<line fill="none" stroke="#E88356" stroke-width="3.2783" stroke-miterlimit="10" x1="665.3" y1="291.5" x2="676.8" y2="291.5"/>
		<line fill="none" stroke="#E88356" stroke-width="3.2783" stroke-miterlimit="10" x1="683" y1="291.5" x2="702.5" y2="291.5"/>
		<line fill="none" stroke="#E88356" stroke-width="3.2783" stroke-miterlimit="10" x1="706.3" y1="291.5" x2="725.3" y2="291.5"/>
		<line fill="none" stroke="#E88356" stroke-width="3.2783" stroke-miterlimit="10" x1="663.6" y1="315.9" x2="675.1" y2="315.9"/>
		<line fill="none" stroke="#E88356" stroke-width="3.2783" stroke-miterlimit="10" x1="681.2" y1="315.9" x2="699.2" y2="315.9"/>
		<line fill="none" stroke="#E88356" stroke-width="3.2783" stroke-miterlimit="10" x1="664.3" y1="353.2" x2="676.1" y2="353.2"/>
		<line fill="none" stroke="#E88356" stroke-width="3.2783" stroke-miterlimit="10" x1="679.1" y1="353.2" x2="698.5" y2="353.2"/>
		<line fill="none" stroke="#E88356" stroke-width="3.2783" stroke-miterlimit="10" x1="664.3" y1="390" x2="697.6" y2="390"/>
		<line fill="none" stroke="#E88356" stroke-width="3.2783" stroke-miterlimit="10" x1="678.2" y1="365.1" x2="685.6" y2="365.1"/>
		<line fill="none" stroke="#E88356" stroke-width="3.2783" stroke-miterlimit="10" x1="664.3" y1="377.4" x2="671.7" y2="377.4"/>
		<line fill="none" stroke="#E88356" stroke-width="3.2783" stroke-miterlimit="10" x1="664.3" y1="402.4" x2="677.1" y2="402.4"/>
		<line fill="none" stroke="#E88356" stroke-width="3.2783" stroke-miterlimit="10" x1="710.1" y1="427.1" x2="718.7" y2="427.1"/>
		<line fill="none" stroke="#E88356" stroke-width="3.2783" stroke-miterlimit="10" x1="682.5" y1="402.4" x2="735.2" y2="402.4"/>
		<line fill="none" stroke="#E88356" stroke-width="3.2783" stroke-miterlimit="10" x1="664.3" y1="414.6" x2="688.9" y2="414.6"/>
		<line fill="none" stroke="#E88356" stroke-width="3.2783" stroke-miterlimit="10" x1="693.9" y1="414.6" x2="726.3" y2="414.6"/>
		<line fill="none" stroke="#E88356" stroke-width="3.2783" stroke-miterlimit="10" x1="660.4" y1="427.1" x2="705.2" y2="427.1"/>
		<line fill="none" stroke="#E88356" stroke-width="3.2783" stroke-miterlimit="10" x1="689.9" y1="365.1" x2="742.6" y2="365.1"/>
		<line fill="none" stroke="#E88356" stroke-width="3.2783" stroke-miterlimit="10" x1="678.3" y1="377.4" x2="709.5" y2="377.4"/>
		<line fill="none" stroke="#E88356" stroke-width="3.2783" stroke-miterlimit="10" x1="714.8" y1="377.4" x2="730.5" y2="377.4"/>
		<line fill="none" stroke="#E88356" stroke-width="3.2783" stroke-miterlimit="10" x1="703.4" y1="315.9" x2="733.5" y2="315.9"/>
		<line fill="none" stroke="#E88356" stroke-width="3.2783" stroke-miterlimit="10" x1="692.8" y1="279.1" x2="753.2" y2="279.1"/>
		<line fill="none" stroke="#E88356" stroke-width="3.2783" stroke-miterlimit="10" x1="676.1" y1="304.5" x2="743.3" y2="304.5"/>
		<line fill="none" stroke="#E88356" stroke-width="3.2783" stroke-miterlimit="10" x1="671.9" y1="340.7" x2="749.3" y2="340.7"/>
		<line fill="none" stroke="#E88356" stroke-width="3.2783" stroke-miterlimit="10" x1="663.6" y1="328.4" x2="708.9" y2="328.4"/>
		<line fill="none" stroke="#E88356" stroke-width="3.2783" stroke-miterlimit="10" x1="692.8" y1="254.5" x2="752.3" y2="254.5"/>
		<line fill="none" stroke="#E88356" stroke-width="3.2783" stroke-miterlimit="10" x1="672.5" y1="229.9" x2="702" y2="229.9"/>
	</g>
	
		<rect x="394.7" y="253.4" fill="none" stroke="#333399" stroke-width="6.5565" stroke-miterlimit="10" width="149.2" height="64.8"/>
	<path fill="#AFAEB4" stroke="#333399" stroke-width="4.9174" stroke-miterlimit="10" d="M661.9,417.9c0,4.5-3.6,8.1-8.1,8.1H309.6
		c-4.5,0-8.1-3.6-8.1-8.1V218.6c0-4.5,3.6-8.1,8.1-8.1h344.1c4.5,0,8.1,3.6,8.1,8.1V417.9z"/>
	
		<rect x="315.9" y="222.7" fill="#FFFFFF" stroke="#333399" stroke-width="4.9174" stroke-miterlimit="10" width="332.3" height="155.9"/>
	<line fill="none" stroke="#333399" stroke-width="1.6391" stroke-miterlimit="10" x1="331.3" y1="294.1" x2="380.2" y2="294.1"/>
	<line fill="none" stroke="#333399" stroke-width="1.6391" stroke-miterlimit="10" x1="331.3" y1="310.4" x2="380.2" y2="310.4"/>
	<line fill="none" stroke="#333399" stroke-width="1.6391" stroke-miterlimit="10" x1="331.3" y1="326.7" x2="380.2" y2="326.7"/>
	<line fill="none" stroke="#333399" stroke-width="1.6391" stroke-miterlimit="10" x1="331.3" y1="343" x2="380.2" y2="343"/>
	
		<rect x="394.7" y="329.8" fill="none" stroke="#333399" stroke-width="3.2783" stroke-miterlimit="10" width="34.6" height="34.6"/>
	<rect x="452" y="329.8" fill="none" stroke="#333399" stroke-width="3.2783" stroke-miterlimit="10" width="34.6" height="34.6"/>
	
		<rect x="509.3" y="329.8" fill="none" stroke="#333399" stroke-width="3.2783" stroke-miterlimit="10" width="34.6" height="34.6"/>
	
		<rect x="577.8" y="315.5" fill="none" stroke="#333399" stroke-width="3.2783" stroke-miterlimit="10" width="48.9" height="48.9"/>
	
		<rect x="577.8" y="251.3" fill="none" stroke="#333399" stroke-width="3.2783" stroke-miterlimit="10" width="48.9" height="54.5"/>
	
		<rect x="394.7" y="251.3" fill="none" stroke="#333399" stroke-width="3.2783" stroke-miterlimit="10" width="149.2" height="64.2"/>
	<g>
		<line fill="none" stroke="#333399" stroke-width="4.9174" stroke-miterlimit="10" x1="526.9" y1="184.5" x2="526.9" y2="197.9"/>
		<line fill="none" stroke="#333399" stroke-width="4.9174" stroke-miterlimit="10" x1="520.7" y1="191.2" x2="532.5" y2="191.2"/>
	</g>
	<g>
		<polygon fill="#EDEEF0" stroke="#333399" stroke-width="4.9174" stroke-miterlimit="10" points="567,201.7 644.5,201.7 
			644.5,186.9 625.6,186.9 625.6,177 604.7,177 604.7,169.1 575.3,169.1 575.3,191.1 567,191.1 		"/>
		
			<line fill="#EDEEF0" stroke="#333399" stroke-width="4.9174" stroke-miterlimit="10" x1="604.7" y1="188.7" x2="604.7" y2="174.5"/>
		
			<line fill="#EDEEF0" stroke="#333399" stroke-width="4.9174" stroke-miterlimit="10" x1="625.6" y1="182.3" x2="625.6" y2="192.3"/>
	</g>
	<polygon fill="#D7D9DD" stroke="#333399" stroke-width="4.9174" stroke-miterlimit="10" points="546.8,426 559.7,458.2 
		573.8,458.2 573.8,471.8 389.8,471.8 389.8,458.2 404.8,458.2 417.1,426 	"/>
	<ellipse fill="#C3C4CA" stroke="#333399" stroke-width="1.6391" stroke-miterlimit="10" cx="347.3" cy="435" rx="1.9" ry="5.9"/>
	<rect x="243.9" y="410.3" fill="#C3C4CA" width="103.7" height="59.4"/>
	<g>
		<rect x="252.5" y="412.3" fill="#DCDCE0" width="10.8" height="55.4"/>
		<rect x="264.7" y="412.3" fill="#DCDCE0" width="10.8" height="55.4"/>
		<rect x="277.2" y="412.3" fill="#DCDCE0" width="10.8" height="55.4"/>
		<rect x="289.4" y="412.3" fill="#DCDCE0" width="10.8" height="55.4"/>
		<rect x="301.9" y="412.3" fill="#DCDCE0" width="10.8" height="55.4"/>
		<rect x="314.1" y="412.3" fill="#DCDCE0" width="10.8" height="55.4"/>
		<rect x="325.9" y="412.3" fill="#DCDCE0" width="10.8" height="55.4"/>
	</g>
	<path fill="#737373" stroke="#333399" stroke-width="1.6391" stroke-miterlimit="10" d="M335.4,406.5h-79.3
		c-9.5,0-17.2,7.7-17.2,17.2V458c0,9.5,7.7,17.2,17.2,17.2h79.3c9.5,0,17.2-7.7,17.2-17.2v-34.3
		C352.6,414.2,344.9,406.5,335.4,406.5z M343.4,455.3c0,8-6.6,14.6-14.8,14.6H260c-8.2,0-14.8-6.5-14.8-14.6v-29.1
		c0-8,6.6-14.6,14.8-14.6h68.5c8.2,0,14.8,6.5,14.8,14.6V455.3z"/>
	<line fill="none" stroke="#333399" stroke-width="1.6391" stroke-miterlimit="10" x1="585.5" y1="435" x2="585.5" y2="453.7"/>
	<line fill="none" stroke="#333399" stroke-width="1.6391" stroke-miterlimit="10" x1="607.6" y1="435" x2="607.6" y2="446.1"/>
	<line fill="none" stroke="#333399" stroke-width="1.6391" stroke-miterlimit="10" x1="631.5" y1="435" x2="631.5" y2="453.7"/>
	<line fill="none" stroke="#333399" stroke-width="1.6391" stroke-miterlimit="10" x1="653.6" y1="435" x2="653.6" y2="446.1"/>
	<line fill="none" stroke="#333399" stroke-width="1.6391" stroke-miterlimit="10" x1="677.5" y1="435" x2="677.5" y2="453.7"/>
	<line fill="none" stroke="#333399" stroke-width="1.6391" stroke-miterlimit="10" x1="699.6" y1="435" x2="699.6" y2="446.1"/>
	<polyline fill="none" stroke="#FFFFFF" stroke-width="3.2783" stroke-miterlimit="10" points="758.5,158.6 770.8,171 788.9,129.3 	
		"/>
	<circle fill="#D7D9DD" stroke="#333399" stroke-width="4.9174" stroke-miterlimit="10" cx="124.8" cy="399.3" r="26.7"/>
	<circle fill="#D7D9DD" stroke="#333399" stroke-width="4.9174" stroke-miterlimit="10" cx="95.7" cy="399.3" r="26.7"/>
	<circle fill="#D7D9DD" stroke="#333399" stroke-width="4.9174" stroke-miterlimit="10" cx="80.3" cy="451.3" r="15.4"/>
	<circle fill="#D7D9DD" stroke="#333399" stroke-width="4.9174" stroke-miterlimit="10" cx="127.6" cy="451.3" r="15.4"/>
	<circle fill="#D7D9DD" stroke="#333399" stroke-width="4.9174" stroke-miterlimit="10" cx="174.8" cy="451.3" r="15.4"/>
	
		<rect x="346.1" y="431.5" fill="#FFFFFF" stroke="#333399" stroke-width="1.6391" stroke-miterlimit="10" width="3.1" height="14.3"/>
	<path fill="#FFFFFF" d="M88,395.4l-9.8,3.7l9.8,4.1v5.1l-15.3-7v-4.1l15.3-6.9V395.4z"/>
	<path fill="#FFFFFF" d="M112.1,399.1l-9.8-3.7v-5.1l15.3,6.9v4.1l-15.3,7v-5.1L112.1,399.1z"/>
	<line fill="none" stroke="#FFFFFF" stroke-width="3.2783" stroke-miterlimit="10" x1="99.2" y1="383.2" x2="92.7" y2="415.4"/>
	<line fill="none" stroke="#FFFFFF" stroke-width="3.2783" stroke-miterlimit="10" x1="127.8" y1="406.3" x2="138.7" y2="388.7"/>
	<line fill="none" stroke="#FFFFFF" stroke-width="3.2783" stroke-miterlimit="10" x1="127.6" y1="388.9" x2="138.8" y2="406.1"/>
	<polyline fill="none" stroke="#FFFFFF" stroke-width="3.2783" stroke-miterlimit="10" points="178,381.7 166,410.6 158.7,399.5 	
		"/>
</g>
</svg>
