<svg version="1.1" class="img-responsive servicios_icono" id="servicios_icono6" 
	 xmlns="http://www.w3.org/2000/svg" xmlns:xlink="http://www.w3.org/1999/xlink" xmlns:a="http://ns.adobe.com/AdobeSVGViewerExtensions/3.0/"
	 x="0px" y="0px" width="905.8px" height="446.5px" viewBox="0 0 905.8 446.5" enable-background="new 0 0 905.8 446.5"
	 xml:space="preserve">
<defs>
</defs>
<circle fill="#9B999E" stroke="#333399" stroke-width="2" stroke-miterlimit="10" cx="60.7" cy="423.3" r="19.5"/>
<circle fill="#9B999E" stroke="#333399" stroke-width="2" stroke-miterlimit="10" cx="120.9" cy="423.3" r="19.5"/>
<circle fill="#9B999E" stroke="#333399" stroke-width="2" stroke-miterlimit="10" cx="88.4" cy="423.3" r="19.5"/>
<polygon fill="#C3C4CA" stroke="#333399" stroke-width="2" stroke-miterlimit="10" points="117.4,81.7 117.4,141 259.4,141 
	286.6,166.4 286.6,141 300.7,141 300.7,81.7 "/>
<polygon fill="none" stroke="#333399" stroke-width="2" stroke-miterlimit="10" points="742.3,89.6 676.6,89.6 676.6,76.1 
	692.6,76.1 692.6,67 710.3,67 710.3,59.7 735.3,59.7 735.3,80 742.3,80 "/>
<line fill="none" stroke="#333399" stroke-width="2" stroke-miterlimit="10" x1="841.4" y1="22.2" x2="841.4" y2="31.4"/>
<line fill="none" stroke="#333399" stroke-width="2" stroke-miterlimit="10" x1="498.8" y1="58.2" x2="505.3" y2="58.2"/>
<line fill="none" stroke="#333399" stroke-width="2" stroke-miterlimit="10" x1="511.8" y1="58.2" x2="514.8" y2="58.2"/>
<line fill="none" stroke="#333399" stroke-width="2" stroke-miterlimit="10" x1="522.3" y1="58.2" x2="583.3" y2="58.2"/>
<rect x="590.3" y="52.9" fill="none" stroke="#333399" stroke-width="2" stroke-miterlimit="10" width="11.5" height="10.1"/>
<g>
	<path fill="#AFAEB4" stroke="#333399" stroke-width="3" stroke-miterlimit="10" d="M602.3,390.1c0,4.4-3.6,8-8,8H256.5
		c-4.4,0-8-3.6-8-8V194.4c0-4.4,3.6-8,8-8h337.9c4.4,0,8,3.6,8,8V390.1z"/>
	
		<rect x="262.3" y="199.2" fill="#D7D9DD" stroke="#333399" stroke-width="3" stroke-miterlimit="10" width="326.2" height="153.1"/>
	<polygon fill="#D7D9DD" stroke="#333399" stroke-width="3" stroke-miterlimit="10" points="489,398.8 501.6,430.4 515.5,430.4 
		515.5,443.8 334.9,443.8 334.9,430.4 349.5,430.4 361.6,398.8 	"/>
	<g id="celular_con_flechita_1_">
		<g id="XMLID_1_">
			<g>
				<path fill="#C3C4CA" d="M464.3,264.2l-6.7,1.6c-2.2-2.1-5.1-3.3-8.4-3.3c-4.9,0-9.2,2.9-11,7.1c-0.6,1.4-0.9,2.9-0.9,4.5
					c0,6.4,5.4,11.6,12,11.6s11.9-5.2,11.9-11.6c0-2-0.5-4-1.5-5.6L464.3,264.2z M538.4,159.1v203H315.7v-203H538.4z M515.3,285.8
					v-24.2h-42v24.2H515.3z M474.9,231.2v-17.2h-21v17.2H474.9z M474.9,204.2v-17.3h-21v17.3H474.9z M444.1,250v-63.1H337.9V250
					H444.1z M422.9,287.5v-26.6h-85v26.6H422.9z"/>
				<polygon fill="#D6B39A" points="538.4,149.7 538.4,159.1 315.7,159.1 315.7,149.7 364.3,149.7 393.6,149.7 				"/>
				<polygon fill="#C3C4CA" points="538.4,134.4 538.4,149.7 393.6,149.7 393.6,141.2 364.3,141.2 364.3,149.7 315.7,149.7 
					315.7,134.4 				"/>
				<rect x="473.3" y="261.5" fill="#AFAEB4" width="42" height="24.2"/>
				<rect x="453.9" y="213.9" fill="#333399" width="21" height="17.2"/>
				<rect x="453.9" y="186.9" fill="#333399" width="21" height="17.3"/>
				<path fill="#C3C4CA" d="M464.3,264.2l-4.6,4.3c-0.6-1-1.3-1.9-2.1-2.7L464.3,264.2z"/>
				<path fill="#F7F7F8" d="M459.7,268.5c0.9,1.7,1.5,3.6,1.5,5.6c0,6.4-5.3,11.6-11.9,11.6s-12-5.2-12-11.6c0-1.6,0.3-3.1,0.9-4.5
					l2.1,0.5l2.2-0.5l8,7.4L459.7,268.5z"/>
				<path fill="#F7F7F8" d="M459.7,268.5l-9.1,8.5l-8-7.4l15.1-3.7C458.4,266.6,459.1,267.5,459.7,268.5z"/>
				<path fill="#F7F7F8" d="M442.5,269.5l-2.2,0.5l-2.1-0.5c1.8-4.2,6.1-7.1,11-7.1c3.3,0,6.2,1.3,8.4,3.3L442.5,269.5z"/>
				<rect x="337.9" y="186.9" fill="#C9BB9E" width="106.2" height="63.1"/>
				<rect x="337.9" y="260.8" fill="#99D1CB" width="85" height="26.6"/>
				<rect x="364.3" y="141.2" fill="#D6B39A" width="29.3" height="8.5"/>
			</g>
			<g>
				<polygon fill="none" stroke="#333399" stroke-width="2" stroke-miterlimit="10" points="538.4,159.1 538.4,362.1 315.7,362.1 
					315.7,159.1 315.7,149.7 315.7,134.4 538.4,134.4 538.4,149.7 				"/>
				<line fill="none" stroke="#333399" stroke-width="2" stroke-miterlimit="10" x1="315.7" y1="159.1" x2="538.4" y2="159.1"/>
				<polyline fill="none" stroke="#333399" stroke-width="2" stroke-miterlimit="10" points="393.6,149.7 393.6,141.2 364.3,141.2 
					364.3,149.7 				"/>
				<line fill="none" stroke="#333399" stroke-width="2" stroke-miterlimit="10" x1="393.6" y1="149.7" x2="538.4" y2="149.7"/>
				<line fill="none" stroke="#333399" stroke-width="2" stroke-miterlimit="10" x1="315.7" y1="149.7" x2="364.3" y2="149.7"/>
				<rect x="337.9" y="186.9" fill="none" stroke="#333399" stroke-width="2" stroke-miterlimit="10" width="106.2" height="63.1"/>
				<line fill="none" stroke="#333399" stroke-width="2" stroke-miterlimit="10" x1="479.9" y1="202.4" x2="515.3" y2="202.4"/>
				<line fill="none" stroke="#333399" stroke-width="2" stroke-miterlimit="10" x1="479.9" y1="196.5" x2="515.3" y2="196.5"/>
				<line fill="none" stroke="#333399" stroke-width="2" stroke-miterlimit="10" x1="479.9" y1="190.5" x2="515.3" y2="190.5"/>
				<line fill="none" stroke="#333399" stroke-width="2" stroke-miterlimit="10" x1="452.3" y1="207" x2="515.3" y2="207"/>
				<line fill="none" stroke="#333399" stroke-width="2" stroke-miterlimit="10" x1="482.1" y1="229.9" x2="515.3" y2="229.9"/>
				<line fill="none" stroke="#333399" stroke-width="2" stroke-miterlimit="10" x1="482.1" y1="223.4" x2="515.3" y2="223.4"/>
				<line fill="none" stroke="#333399" stroke-width="2" stroke-miterlimit="10" x1="482.1" y1="217.8" x2="515.3" y2="217.8"/>
				<line fill="none" stroke="#333399" stroke-width="2" stroke-miterlimit="10" x1="452.3" y1="234.2" x2="515.3" y2="234.2"/>
				<rect x="337.9" y="260.8" fill="none" stroke="#333399" stroke-width="2" stroke-miterlimit="10" width="85" height="26.6"/>
				<path fill="none" stroke="#31328C" stroke-width="2" stroke-miterlimit="10" d="M459.7,268.5c0.9,1.7,1.5,3.6,1.5,5.6
					c0,6.4-5.3,11.6-11.9,11.6s-12-5.2-12-11.6c0-1.6,0.3-3.1,0.9-4.5c1.8-4.2,6.1-7.1,11-7.1c3.3,0,6.2,1.3,8.4,3.3
					C458.4,266.6,459.1,267.5,459.7,268.5z"/>
				<polyline fill="none" stroke="#333399" stroke-width="2" stroke-miterlimit="10" points="467.5,261.3 464.3,264.2 459.7,268.5 
					450.5,277 442.5,269.5 441.7,268.8 				"/>
				<line fill="none" stroke="#333399" stroke-width="2" stroke-miterlimit="10" x1="337.2" y1="301.1" x2="513.1" y2="301.1"/>
				<line fill="none" stroke="#333399" stroke-width="2" stroke-miterlimit="10" x1="337.2" y1="311.1" x2="513.1" y2="311.1"/>
				<line fill="none" stroke="#333399" stroke-width="2" stroke-miterlimit="10" x1="337.2" y1="321.2" x2="513.1" y2="321.2"/>
				<line fill="none" stroke="#333399" stroke-width="3" stroke-miterlimit="10" x1="452.3" y1="241.5" x2="501.3" y2="241.5"/>
			</g>
		</g>
	</g>
</g>
<polygon fill="#F7F7F8" stroke="#333399" stroke-width="3" stroke-miterlimit="10" points="344.8,156.2 268.7,156.2 268.7,140.5 
	287.3,140.5 287.3,130 307.7,130 307.7,121.5 336.7,121.5 336.7,145 344.8,145 "/>
<polygon fill="#F7F7F8" stroke="#333399" stroke-width="3" stroke-miterlimit="10" points="579,190.8 525.3,190.8 525.3,179.7 
	538.4,179.7 538.4,172.3 552.8,172.3 552.8,166.4 573.3,166.4 573.3,182.9 579,182.9 "/>
<path fill="none" stroke="#333399" stroke-miterlimit="10" d="M379.4,53c0,0,22.6-30.3,47-30c0,0,26-0.7,47,30
	c0,0-16.7,31.7-47,32.7C426.4,85.7,398.1,82.7,379.4,53z"/>
<circle fill="none" stroke="#333399" stroke-miterlimit="10" cx="427.1" cy="53.7" r="21"/>
<g>
	<line fill="none" stroke="#333399" stroke-miterlimit="10" x1="398.5" y1="82.3" x2="393.7" y2="87"/>
	<line fill="none" stroke="#333399" stroke-miterlimit="10" x1="408.4" y1="87" x2="401.4" y2="98"/>
	<line fill="none" stroke="#333399" stroke-miterlimit="10" x1="417.4" y1="92.5" x2="415.1" y2="98"/>
	<line fill="none" stroke="#333399" stroke-miterlimit="10" x1="426.4" y1="92.5" x2="426" y2="105.3"/>
	<line fill="none" stroke="#333399" stroke-miterlimit="10" x1="436.4" y1="92.5" x2="438.1" y2="98"/>
	<line fill="none" stroke="#333399" stroke-miterlimit="10" x1="444.8" y1="87" x2="452.9" y2="98.9"/>
	<line fill="none" stroke="#333399" stroke-miterlimit="10" x1="452.9" y1="82.3" x2="457.7" y2="87"/>
</g>
<g>
	<line fill="none" stroke="#333399" stroke-miterlimit="10" x1="398.5" y1="23" x2="393.7" y2="18.3"/>
	<line fill="none" stroke="#333399" stroke-miterlimit="10" x1="408.4" y1="18.3" x2="401.4" y2="7.3"/>
	<line fill="none" stroke="#333399" stroke-miterlimit="10" x1="417.4" y1="12.8" x2="415.1" y2="7.3"/>
	<line fill="none" stroke="#333399" stroke-miterlimit="10" x1="426.4" y1="12.8" x2="426" y2="0"/>
	<line fill="none" stroke="#333399" stroke-miterlimit="10" x1="436.4" y1="12.8" x2="438.1" y2="7.3"/>
	<line fill="none" stroke="#333399" stroke-miterlimit="10" x1="444.8" y1="18.3" x2="452.9" y2="6.4"/>
	<line fill="none" stroke="#333399" stroke-miterlimit="10" x1="452.9" y1="23" x2="457.7" y2="18.3"/>
</g>
<rect x="297.9" y="58" fill="none" stroke="#333399" stroke-width="2" stroke-miterlimit="10" width="11.5" height="10.1"/>
<line fill="none" stroke="#333399" stroke-width="2" stroke-miterlimit="10" x1="202.9" y1="63" x2="290.9" y2="63"/>
<line fill="none" stroke="#333399" stroke-width="2" stroke-miterlimit="10" x1="186.4" y1="166.6" x2="252.4" y2="166.6"/>
<rect x="165.8" y="161.5" fill="none" stroke="#333399" stroke-width="2" stroke-miterlimit="10" width="9.8" height="9.8"/>
<g>
	<polyline fill="none" stroke="#333399" stroke-width="2" stroke-miterlimit="10" points="137.4,45.5 154,45.5 154,26.8 182.7,26.8 
		182.7,34.2 206.1,34.2 206.1,47.1 	"/>
	<line fill="none" stroke="#333399" stroke-width="2" stroke-miterlimit="10" x1="182.7" y1="34.2" x2="182.7" y2="41.6"/>
</g>
<g>
	<polyline fill="none" stroke="#333399" stroke-width="2" stroke-miterlimit="10" points="0,212.3 16.6,212.3 16.6,193.6 
		45.3,193.6 45.3,201 68.8,201 68.8,213.9 	"/>
	<line fill="none" stroke="#333399" stroke-width="2" stroke-miterlimit="10" x1="45.3" y1="201" x2="45.3" y2="208.4"/>
</g>
<g>
	<polyline fill="none" stroke="#333399" stroke-width="2" stroke-miterlimit="10" points="770.2,217.3 786.9,217.3 786.9,198.5 
		815.5,198.5 815.5,205.9 839,205.9 839,218.9 	"/>
	<line fill="none" stroke="#333399" stroke-width="2" stroke-miterlimit="10" x1="815.5" y1="205.9" x2="815.5" y2="213.3"/>
</g>
<g>
	<polyline fill="none" stroke="#333399" stroke-width="2" stroke-miterlimit="10" points="511.3,111.3 527.9,111.3 527.9,92.5 
		556.6,92.5 556.6,99.9 580,99.9 580,112.9 	"/>
	<line fill="none" stroke="#333399" stroke-width="2" stroke-miterlimit="10" x1="556.6" y1="99.9" x2="556.6" y2="107.3"/>
</g>
<line fill="none" stroke="#333399" stroke-width="2" stroke-miterlimit="10" x1="60.7" y1="166.4" x2="106.1" y2="166.4"/>
<line fill="none" stroke="#333399" stroke-width="2" stroke-miterlimit="10" x1="112.1" y1="166.4" x2="117.4" y2="166.4"/>
<line fill="none" stroke="#333399" stroke-width="2" stroke-miterlimit="10" x1="126.1" y1="166.4" x2="129.4" y2="166.4"/>
<line fill="none" stroke="#333399" stroke-width="2" stroke-miterlimit="10" x1="160.5" y1="63" x2="92.3" y2="63"/>
<line fill="none" stroke="#333399" stroke-width="2" stroke-miterlimit="10" x1="83.3" y1="63" x2="75.3" y2="63"/>
<line fill="none" stroke="#333399" stroke-width="2" stroke-miterlimit="10" x1="62.2" y1="63" x2="57.2" y2="63"/>
<g>
	<rect x="180.2" y="363.4" fill="#D7D9DD" stroke="#333399" stroke-width="3" stroke-miterlimit="10" width="5.4" height="81.5"/>
	<polygon fill="#D7D9DD" stroke="#333399" stroke-width="3" stroke-miterlimit="10" points="212.6,444.8 206.3,444.9 191.1,363.7 
		196.4,362.7 	"/>
	<polygon fill="#D7D9DD" stroke="#333399" stroke-width="3" stroke-miterlimit="10" points="150.9,444.7 157.9,444.9 173.2,363.7 
		167.8,362.7 	"/>
	<rect x="117.6" y="269.1" fill="#9B999E" stroke="#333399" stroke-width="2" stroke-miterlimit="10" width="135.5" height="75.6"/>
	<rect x="127.4" y="344.8" fill="#9B999E" stroke="#333399" stroke-width="2" stroke-miterlimit="10" width="104" height="10"/>
	<rect x="150.6" y="354.8" fill="#9B999E" stroke="#333399" stroke-width="2" stroke-miterlimit="10" width="61.5" height="13.7"/>
	<rect x="98.6" y="283.8" fill="#9B999E" stroke="#333399" stroke-width="2" stroke-miterlimit="10" width="19" height="41.6"/>
	<polygon fill="#9B999E" stroke="#333399" stroke-width="2" stroke-miterlimit="10" points="98.6,334.6 75.6,342.5 75.6,270.2 
		98.6,277.1 	"/>
	<rect x="63.4" y="266.8" fill="#9B999E" stroke="#333399" stroke-width="2" stroke-miterlimit="10" width="12.2" height="78"/>
	<rect x="137.7" y="264.4" fill="#9B999E" stroke="#333399" stroke-width="2" stroke-miterlimit="10" width="83" height="4.7"/>
	<rect x="123.6" y="227.1" fill="#9B999E" stroke="#333399" stroke-width="2" stroke-miterlimit="10" width="109.2" height="37.3"/>
	<ellipse fill="#9B999E" stroke="#333399" stroke-width="2" stroke-miterlimit="10" cx="150.9" cy="220.9" rx="38.2" ry="37.8"/>
	<ellipse fill="#9B999E" stroke="#333399" stroke-width="2" stroke-miterlimit="10" cx="214" cy="228.6" rx="30.4" ry="30.2"/>
</g>
<polygon fill="#DD8A9C" points="380.9,207.8 380.9,227.8 400.4,217.8 "/>
<rect x="337.9" y="241.5" fill="#9B999E" stroke="#333399" stroke-width="2" stroke-miterlimit="10" width="106.2" height="8.6"/>
<line fill="none" stroke="#EA5964" stroke-miterlimit="10" x1="356.6" y1="245.8" x2="387.3" y2="245.8"/>
<line fill="none" stroke="#AFAEB4" stroke-miterlimit="10" x1="387.3" y1="245.8" x2="440.3" y2="245.8"/>
<polygon fill="#333399" points="342.2,243.9 342.2,247.7 345.9,245.8 "/>
<g>
	<path fill="#F7F7F8" d="M83.4,417.4h1.8v9.5c0,3.8-1.8,4.9-4.3,4.9c-0.7,0-1.5-0.1-2-0.3l0.3-1.5c0.4,0.1,0.9,0.3,1.5,0.3
		c1.6,0,2.6-0.7,2.6-3.5V417.4z"/>
	<path fill="#F7F7F8" d="M88,429.3c0.8,0.5,2,0.9,3.3,0.9c1.9,0,3-1,3-2.4c0-1.3-0.8-2.1-2.7-2.8c-2.3-0.8-3.7-2-3.7-4
		c0-2.2,1.8-3.8,4.6-3.8c1.4,0,2.5,0.3,3.1,0.7l-0.5,1.5c-0.5-0.3-1.4-0.7-2.7-0.7c-1.9,0-2.7,1.2-2.7,2.1c0,1.3,0.9,2,2.8,2.7
		c2.4,0.9,3.6,2.1,3.6,4.2c0,2.2-1.6,4.1-5,4.1c-1.4,0-2.9-0.4-3.6-0.9L88,429.3z"/>
</g>
<g>
	<path fill="#F7F7F8" d="M136.2,234.4V231c1.2,0,2.1-0.2,2.5-0.6c0.5-0.4,0.7-1.2,0.7-2.5v-20h3.9l0,20.3c0,2.5-0.5,4.2-1.6,5
		C140.7,234,138.8,234.4,136.2,234.4z"/>
	<path fill="#F7F7F8" d="M155.7,210.9c-3,0-4.5,1-4.5,3.1c0,1.1,0.4,1.8,1.1,2.3c0.7,0.5,2.3,1,4.6,1.7c2.4,0.7,4.1,1.5,5.1,2.4
		c1,0.9,1.5,2.4,1.5,4.4c0,2.5-0.7,4.4-2.2,5.7c-1.4,1.3-3.4,1.9-5.9,1.9c-2,0-4.2-0.2-6.6-0.7l-1.3-0.2l0.4-3.1
		c3.2,0.4,5.6,0.6,7.2,0.6c2.9,0,4.3-1.3,4.3-3.9c0-1-0.3-1.7-1-2.2c-0.7-0.5-2.1-1-4.4-1.6c-2.3-0.6-4-1.4-5.1-2.4
		c-1.1-1-1.7-2.6-1.7-4.8c0-2.2,0.7-3.8,2.1-4.9c1.4-1.1,3.4-1.7,5.9-1.7c1.8,0,3.9,0.2,6.4,0.6l1.2,0.2l-0.3,3.2
		C159.4,211.1,157.1,210.9,155.7,210.9z"/>
</g>
<g>
	<path fill="#F7F7F8" d="M112.8,427.1c0.5,0.3,1.2,0.5,1.9,0.5c1.1,0,1.7-0.6,1.7-1.4c0-0.8-0.4-1.2-1.5-1.6
		c-1.3-0.5-2.1-1.2-2.1-2.3c0-1.3,1-2.2,2.6-2.2c0.8,0,1.4,0.2,1.8,0.4l-0.3,0.9c-0.3-0.1-0.8-0.4-1.5-0.4c-1.1,0-1.5,0.7-1.5,1.2
		c0,0.8,0.5,1.1,1.6,1.6c1.4,0.5,2.1,1.2,2.1,2.4c0,1.2-0.9,2.3-2.8,2.3c-0.8,0-1.6-0.2-2.1-0.5L112.8,427.1z"/>
	<path fill="#F7F7F8" d="M120.7,428.4l-2.6-8.1h1.1l1.3,4c0.3,1.1,0.6,2.1,0.9,3h0c0.2-0.9,0.6-2,0.9-3l1.4-4h1.1l-2.9,8.1H120.7z"
		/>
	<path fill="#F7F7F8" d="M131.7,428c-0.5,0.2-1.4,0.4-2.5,0.4c-1.2,0-2.2-0.3-3-1.1c-0.7-0.7-1.1-1.8-1.1-3c0-2.4,1.7-4.2,4.4-4.2
		c0.9,0,1.7,0.2,2,0.4l-0.3,0.9c-0.4-0.2-1-0.3-1.8-0.3c-2,0-3.2,1.2-3.2,3.3c0,2.1,1.2,3.3,3.1,3.3c0.7,0,1.2-0.1,1.4-0.2V425h-1.6
		v-0.8h2.7V428z"/>
</g>
<g>
	<path fill="#F7F7F8" d="M200.7,234.3c0.7,0.4,1.7,0.8,2.8,0.8c1.6,0,2.5-0.8,2.5-2.1c0-1.1-0.6-1.8-2.3-2.4c-2-0.7-3.2-1.7-3.2-3.4
		c0-1.9,1.6-3.3,3.9-3.3c1.2,0,2.1,0.3,2.7,0.6l-0.4,1.3c-0.4-0.2-1.2-0.6-2.3-0.6c-1.7,0-2.3,1-2.3,1.8c0,1.1,0.7,1.7,2.4,2.3
		c2.1,0.8,3.1,1.8,3.1,3.6c0,1.9-1.4,3.5-4.2,3.5c-1.2,0-2.4-0.3-3.1-0.8L200.7,234.3z"/>
	<path fill="#F7F7F8" d="M212.5,236.2l-4-12.1h1.7l1.9,6c0.5,1.6,1,3.1,1.3,4.5h0c0.3-1.4,0.8-2.9,1.4-4.5l2.1-6h1.7l-4.3,12.1
		H212.5z"/>
	<path fill="#F7F7F8" d="M229.1,235.7c-0.7,0.3-2.1,0.7-3.7,0.7c-1.8,0-3.3-0.5-4.5-1.6c-1-1-1.7-2.6-1.7-4.5c0-3.6,2.5-6.3,6.6-6.3
		c1.4,0,2.5,0.3,3,0.6l-0.4,1.3c-0.6-0.3-1.5-0.5-2.7-0.5c-3,0-4.9,1.8-4.9,4.9c0,3.1,1.9,4.9,4.7,4.9c1,0,1.7-0.1,2.1-0.3v-3.6
		h-2.5v-1.3h4V235.7z"/>
</g>
<g>
	<path fill="#F7F7F8" d="M133.2,308.5l12.1-6.2v1.8l-10.2,5.1v0.1l10.2,5.1v1.8l-12.1-6.2V308.5z"/>
	<path fill="#F7F7F8" d="M151.2,298.6v7.3h8.5v-7.3h2.3v17.5h-2.3v-8.2h-8.5v8.2H149v-17.5H151.2z"/>
	<path fill="#F7F7F8" d="M169.2,300.5h-5.3v-1.9h13v1.9h-5.4v15.6h-2.3V300.5z"/>
	<path fill="#F7F7F8" d="M193.6,308.4c-0.1-2.4-0.3-5.4-0.3-7.6h-0.1c-0.6,2.1-1.3,4.2-2.2,6.7L188,316h-1.7l-2.8-8.3
		c-0.8-2.5-1.5-4.7-2-6.8h-0.1c-0.1,2.2-0.2,5.1-0.3,7.7l-0.5,7.5h-2.2l1.2-17.5h2.9l3,8.5c0.7,2.2,1.3,4.1,1.8,5.9h0.1
		c0.4-1.8,1.1-3.7,1.8-5.9l3.1-8.5h2.9l1.1,17.5H194L193.6,308.4z"/>
	<path fill="#F7F7F8" d="M199.7,298.6h2.3v15.6h7.5v1.9h-9.8V298.6z"/>
	<path fill="#F7F7F8" d="M221.3,301.2h-6.4l-0.6,4.3c0.4-0.1,0.8-0.1,1.4-0.1c1.3,0,2.6,0.3,3.6,0.9c1.3,0.8,2.4,2.2,2.4,4.3
		c0,3.3-2.6,5.8-6.3,5.8c-1.8,0-3.4-0.5-4.2-1l0.6-1.7c0.7,0.4,2.1,0.9,3.6,0.9c2.2,0,4-1.4,4-3.7c0-2.2-1.5-3.7-4.9-3.7
		c-1,0-1.7,0.1-2.3,0.2l1.1-8.1h8.1V301.2z"/>
	<path fill="#F7F7F8" d="M237.1,309.9l-12.1,6.2v-1.8l10.2-5.1v-0.1l-10.2-5.1v-1.8l12.1,6.2V309.9z"/>
</g>
<g>
	<path fill="#F7F7F8" d="M52.8,428.1c-0.4,0.2-1.2,0.4-2.1,0.4c-2.3,0-4-1.4-4-4.1c0-2.5,1.7-4.2,4.2-4.2c1,0,1.6,0.2,1.9,0.4
		l-0.3,0.9c-0.4-0.2-1-0.3-1.6-0.3c-1.9,0-3.2,1.2-3.2,3.3c0,2,1.1,3.3,3.1,3.3c0.6,0,1.3-0.1,1.7-0.3L52.8,428.1z"/>
	<path fill="#F7F7F8" d="M54,427.1c0.5,0.3,1.2,0.5,1.9,0.5c1.1,0,1.7-0.6,1.7-1.4c0-0.8-0.4-1.2-1.5-1.6c-1.3-0.5-2.1-1.2-2.1-2.3
		c0-1.3,1-2.2,2.6-2.2c0.8,0,1.4,0.2,1.8,0.4l-0.3,0.9c-0.3-0.1-0.8-0.4-1.5-0.4c-1.1,0-1.5,0.7-1.5,1.2c0,0.8,0.5,1.1,1.6,1.6
		c1.4,0.5,2.1,1.2,2.1,2.4c0,1.2-0.9,2.3-2.8,2.3c-0.8,0-1.6-0.2-2.1-0.5L54,427.1z"/>
	<path fill="#F7F7F8" d="M59.9,427.2c0.3,0.2,1,0.5,1.7,0.5c1.4,0,1.8-0.9,1.8-1.5c0-1.1-1-1.6-2-1.6h-0.6v-0.8h0.6
		c0.8,0,1.7-0.4,1.7-1.3c0-0.6-0.4-1.2-1.4-1.2c-0.6,0-1.2,0.3-1.6,0.5l-0.3-0.8c0.4-0.3,1.2-0.6,2-0.6c1.5,0,2.2,0.9,2.2,1.9
		c0,0.8-0.5,1.5-1.4,1.8v0c1,0.2,1.7,0.9,1.7,2c0,1.2-1,2.3-2.8,2.3c-0.9,0-1.6-0.3-2-0.5L59.9,427.2z"/>
</g>
<rect x="656.1" y="329.1" fill="#B6ADA8" width="172.3" height="112.5"/>
<polygon fill="#C3C4CA" stroke="#333399" stroke-width="2" stroke-miterlimit="10" points="749.7,166.4 749.7,225.7 651.8,225.7 
	624.6,251 624.6,225.7 610.5,225.7 610.5,166.4 "/>
<line fill="none" stroke="#333399" stroke-width="2" stroke-miterlimit="10" x1="42.7" y1="243.7" x2="88.1" y2="243.7"/>
<line fill="none" stroke="#333399" stroke-width="2" stroke-miterlimit="10" x1="676" y1="138.9" x2="783.8" y2="138.9"/>
<line fill="none" stroke="#333399" stroke-width="2" stroke-miterlimit="10" x1="614.1" y1="108.4" x2="678.1" y2="108.4"/>
<line fill="none" stroke="#333399" stroke-width="2" stroke-miterlimit="10" x1="591.4" y1="108.4" x2="597.4" y2="108.4"/>
<line fill="none" stroke="#333399" stroke-width="2" stroke-miterlimit="10" x1="604.1" y1="108.4" x2="609.4" y2="108.4"/>
<line fill="none" stroke="#333399" stroke-width="2" stroke-miterlimit="10" x1="769.4" y1="247" x2="776.3" y2="247"/>
<line fill="none" stroke="#333399" stroke-width="2" stroke-miterlimit="10" x1="780.3" y1="247" x2="788.7" y2="247"/>
<line fill="none" stroke="#333399" stroke-width="2" stroke-miterlimit="10" x1="795.4" y1="247" x2="841.4" y2="247"/>
<rect x="662.4" y="327.4" fill="#EDEEF0" stroke="#333399" stroke-width="2" stroke-miterlimit="10" width="159.5" height="107.2"/>
<path fill="#727276" stroke="#333399" stroke-width="2" stroke-miterlimit="10" d="M602.1,443.7h-60c-6.6,0-12-5.4-12-12V311
	c0-6.6,5.4-12,12-12h60c6.6,0,12,5.4,12,12v120.7C614.1,438.3,608.7,443.7,602.1,443.7z"/>
<rect x="540.7" y="314.9" fill="#D7D9DD" stroke="#5C5B5F" stroke-width="2" stroke-miterlimit="10" width="62.3" height="110.8"/>
<line fill="none" stroke="#727276" stroke-width="2" stroke-miterlimit="10" x1="742.3" y1="327.4" x2="742.3" y2="434.6"/>
<g>
	<line fill="none" stroke="#727276" stroke-width="2" stroke-miterlimit="10" x1="668.7" y1="352.3" x2="730.4" y2="352.3"/>
	<line fill="none" stroke="#727276" stroke-width="2" stroke-miterlimit="10" x1="668.7" y1="362.5" x2="730.4" y2="362.5"/>
	<line fill="none" stroke="#727276" stroke-width="2" stroke-miterlimit="10" x1="668.7" y1="372.6" x2="730.4" y2="372.6"/>
	<line fill="none" stroke="#727276" stroke-width="2" stroke-miterlimit="10" x1="668.7" y1="382.8" x2="730.4" y2="382.8"/>
	<line fill="none" stroke="#727276" stroke-width="2" stroke-miterlimit="10" x1="668.7" y1="393" x2="730.4" y2="393"/>
	<line fill="none" stroke="#727276" stroke-width="2" stroke-miterlimit="10" x1="668.7" y1="403.2" x2="730.4" y2="403.2"/>
	<line fill="none" stroke="#727276" stroke-width="2" stroke-miterlimit="10" x1="668.7" y1="413.4" x2="730.4" y2="413.4"/>
</g>
<g>
	<line fill="none" stroke="#727276" stroke-width="2" stroke-miterlimit="10" x1="754.1" y1="352.3" x2="816.2" y2="352.3"/>
	<line fill="none" stroke="#727276" stroke-width="2" stroke-miterlimit="10" x1="754.1" y1="362.5" x2="816.2" y2="362.5"/>
	<line fill="none" stroke="#727276" stroke-width="2" stroke-miterlimit="10" x1="754.1" y1="372.6" x2="816.2" y2="372.6"/>
	<line fill="none" stroke="#727276" stroke-width="2" stroke-miterlimit="10" x1="754.1" y1="382.8" x2="816.2" y2="382.8"/>
	<line fill="none" stroke="#727276" stroke-width="2" stroke-miterlimit="10" x1="754.1" y1="393" x2="816.2" y2="393"/>
	<line fill="none" stroke="#727276" stroke-width="2" stroke-miterlimit="10" x1="754.1" y1="403.2" x2="816.2" y2="403.2"/>
	<line fill="none" stroke="#727276" stroke-width="2" stroke-miterlimit="10" x1="754.1" y1="413.4" x2="816.2" y2="413.4"/>
</g>
<g>
	<path fill="#FDEDB1" stroke="#333399" stroke-miterlimit="10" d="M731.1,333.7v7.3h23.5v-7.3c6.8-4,11.4-11.4,11.4-19.9
		c0-12.8-10.4-23.1-23.1-23.1c-12.8,0-23.1,10.4-23.1,23.1C719.8,322.3,724.3,329.7,731.1,333.7z"/>
	<rect x="730.4" y="341" fill="#FDEDB1" stroke="#333399" stroke-miterlimit="10" width="25.6" height="7.2"/>
	<path fill="#FDEDB1" stroke="#333399" stroke-miterlimit="10" d="M749.1,348.2v8.4c0,0,0.1,5.8-5.8,5.8c0,0-6.7,0.4-6.7-6.7v-7.5
		H749.1z"/>
	<line fill="#FDEDB1" stroke="#333399" stroke-miterlimit="10" x1="742.3" y1="353.3" x2="736.7" y2="353.3"/>
</g>
<line fill="none" stroke="#333399" stroke-miterlimit="10" x1="60.7" y1="446" x2="875.8" y2="446"/>
<line fill="none" stroke="#333399" stroke-miterlimit="10" x1="890.8" y1="446" x2="905.8" y2="446"/>
<line fill="none" stroke="#333399" stroke-miterlimit="10" x1="42.7" y1="446" x2="20.9" y2="446"/>
<rect x="606.7" y="385.5" fill="#FDEDB1" stroke="#333399" stroke-miterlimit="10" width="88.5" height="59.2"/>
<polyline fill="#FDEDB1" stroke="#333399" stroke-miterlimit="10" points="606.7,385.5 651,422.2 695.3,385.5 "/>
<line fill="#FDEDB1" stroke="#333399" stroke-miterlimit="10" x1="606.7" y1="433.4" x2="635.6" y2="409.4"/>
<line fill="#FDEDB1" stroke="#333399" stroke-miterlimit="10" x1="666.4" y1="409.4" x2="695.3" y2="433.4"/>
<g>
	<rect x="228.1" y="367.6" fill="#727276" stroke="#333399" stroke-width="2" stroke-miterlimit="10" width="103" height="77"/>
	<g>
		<rect x="236.9" y="387.5" fill="#EDEEF0" stroke="#333399" stroke-width="2" stroke-miterlimit="10" width="85.7" height="22.2"/>
		<line fill="#EDEEF0" stroke="#333399" stroke-width="2" stroke-miterlimit="10" x1="279.6" y1="387.5" x2="279.6" y2="409.6"/>
	</g>
	<line fill="none" stroke="#434041" stroke-width="2" stroke-miterlimit="10" x1="236.9" y1="418.8" x2="291.6" y2="418.8"/>
	<line fill="none" stroke="#434041" stroke-width="2" stroke-miterlimit="10" x1="236.9" y1="430.1" x2="273.2" y2="430.1"/>
	
		<rect x="225.6" y="343.5" transform="matrix(0.9737 -0.2277 0.2277 0.9737 -72.1954 72.3006)" fill="#9B999E" stroke="#333399" stroke-width="2" stroke-miterlimit="10" width="103.3" height="11"/>
</g>
<polygon fill="#F4E7BD" stroke="#333399" stroke-miterlimit="10" points="739.5,307.9 739.5,322 753.2,314.9 "/>
<circle fill="#EDEEF0" stroke="#333399" stroke-miterlimit="10" cx="228.1" cy="364" r="5.3"/>
<circle fill="#EDEEF0" stroke="#333399" stroke-miterlimit="10" cx="228.1" cy="364" r="2.6"/>
<line fill="none" stroke="#333399" stroke-width="2" stroke-miterlimit="10" x1="127.7" y1="95.3" x2="279.7" y2="95.3"/>
<line fill="none" stroke="#333399" stroke-width="2" stroke-miterlimit="10" x1="127.7" y1="108.4" x2="279.7" y2="108.4"/>
<line fill="none" stroke="#333399" stroke-width="2" stroke-miterlimit="10" x1="147.4" y1="121.4" x2="279.7" y2="121.4"/>
<line fill="none" stroke="#333399" stroke-width="2" stroke-miterlimit="10" x1="619.3" y1="180.5" x2="739.5" y2="180.5"/>
<line fill="none" stroke="#333399" stroke-width="2" stroke-miterlimit="10" x1="619.3" y1="193.6" x2="739.5" y2="193.6"/>
<line fill="none" stroke="#333399" stroke-width="2" stroke-miterlimit="10" x1="634.8" y1="206.7" x2="739.5" y2="206.7"/>
</svg>
