<svg version="1.1" class="img-responsive-SVG servicios_icono" id="servicios_icono4"
	 xmlns="http://www.w3.org/2000/svg" xmlns:xlink="http://www.w3.org/1999/xlink" xmlns:a="http://ns.adobe.com/AdobeSVGViewerExtensions/3.0/"
	 x="0px" y="0px" viewBox="0 0 878.3 472.3" enable-background="new 0 0 878.3 472.3"
	 xml:space="preserve" preserveAspectRatio="xMinYMin">
<defs>
</defs>
<g id="Edi2_1_">
	
		<rect id="Fondo_x5F_Edi2_1_" x="766.2" y="270" fill="#D7D9DD" stroke="#333399" stroke-width="3" stroke-miterlimit="10" width="50.3" height="190.9"/>
	<g id="LineasEdi2_1_">
		<line fill="none" stroke="#333399" stroke-width="3" stroke-miterlimit="10" x1="756.5" y1="294.7" x2="809.2" y2="294.7"/>
		<line fill="none" stroke="#333399" stroke-width="3" stroke-miterlimit="10" x1="756.5" y1="302.7" x2="809.2" y2="302.7"/>
		<line fill="none" stroke="#333399" stroke-width="3" stroke-miterlimit="10" x1="756.5" y1="310.7" x2="809.2" y2="310.7"/>
		<line fill="none" stroke="#333399" stroke-width="3" stroke-miterlimit="10" x1="756.5" y1="318.7" x2="809.2" y2="318.7"/>
		<line fill="none" stroke="#333399" stroke-width="3" stroke-miterlimit="10" x1="756.5" y1="326.7" x2="809.2" y2="326.7"/>
		<line fill="none" stroke="#333399" stroke-width="3" stroke-miterlimit="10" x1="756.5" y1="334.7" x2="809.2" y2="334.7"/>
		<line fill="none" stroke="#333399" stroke-width="3" stroke-miterlimit="10" x1="756.5" y1="342.7" x2="809.2" y2="342.7"/>
		<line fill="none" stroke="#333399" stroke-width="3" stroke-miterlimit="10" x1="756.5" y1="350.7" x2="809.2" y2="350.7"/>
		<line fill="none" stroke="#333399" stroke-width="3" stroke-miterlimit="10" x1="756.5" y1="358.7" x2="809.2" y2="358.7"/>
		<line fill="none" stroke="#333399" stroke-width="3" stroke-miterlimit="10" x1="756.5" y1="366.7" x2="809.2" y2="366.7"/>
		<line fill="none" stroke="#333399" stroke-width="3" stroke-miterlimit="10" x1="756.5" y1="374.7" x2="809.2" y2="374.7"/>
		<line fill="none" stroke="#333399" stroke-width="3" stroke-miterlimit="10" x1="756.5" y1="382.7" x2="809.2" y2="382.7"/>
		<line fill="none" stroke="#333399" stroke-width="3" stroke-miterlimit="10" x1="756.5" y1="390.7" x2="809.2" y2="390.7"/>
		<line fill="none" stroke="#333399" stroke-width="3" stroke-miterlimit="10" x1="756.5" y1="398.7" x2="809.2" y2="398.7"/>
		<line fill="none" stroke="#333399" stroke-width="3" stroke-miterlimit="10" x1="756.5" y1="406.7" x2="809.2" y2="406.7"/>
		<line fill="none" stroke="#333399" stroke-width="3" stroke-miterlimit="10" x1="756.5" y1="414.7" x2="809.2" y2="414.7"/>
		<line fill="none" stroke="#333399" stroke-width="3" stroke-miterlimit="10" x1="756.5" y1="422.7" x2="809.2" y2="422.7"/>
		<line fill="none" stroke="#333399" stroke-width="3" stroke-miterlimit="10" x1="756.5" y1="430.7" x2="809.2" y2="430.7"/>
		<line fill="none" stroke="#333399" stroke-width="3" stroke-miterlimit="10" x1="791.3" y1="271.3" x2="791.3" y2="242.3"/>
		<polyline fill="none" stroke="#333399" stroke-width="3" stroke-miterlimit="10" points="775.2,460.9 775.2,443.8 801.9,443.8 
			801.9,460.9 		"/>
		<line fill="none" stroke="#333399" stroke-width="3" stroke-miterlimit="10" x1="788.5" y1="443.8" x2="788.5" y2="460.9"/>
	</g>
</g>
<g id="Edi1_1_">
	
		<rect id="Fondo_x5F_Edi1_1_" x="664.2" y="223.1" fill="#D7D9DD" stroke="#333399" stroke-width="3" stroke-miterlimit="10" width="102" height="200.7"/>
	<rect x="687.2" y="422.7" fill="#D7D9DD" stroke="#333399" stroke-width="3" stroke-miterlimit="10" width="88" height="11.3"/>
	<rect x="656.5" y="434" fill="#D7D9DD" stroke="#333399" stroke-width="3" stroke-miterlimit="10" width="109.7" height="26.9"/>
	<line fill="none" stroke="#333399" stroke-width="3" stroke-miterlimit="10" x1="689.8" y1="223.1" x2="689.8" y2="422.7"/>
	<line fill="none" stroke="#333399" stroke-width="3" stroke-miterlimit="10" x1="738.5" y1="223.1" x2="738.5" y2="422.7"/>
	<line fill="none" stroke="#333399" stroke-width="3" stroke-miterlimit="10" x1="715.2" y1="223.1" x2="715.2" y2="422.7"/>
	<line fill="none" stroke="#333399" stroke-width="3" stroke-miterlimit="10" x1="664.2" y1="279.4" x2="766.2" y2="279.4"/>
	<line fill="none" stroke="#333399" stroke-width="3" stroke-miterlimit="10" x1="664.2" y1="340.7" x2="766.2" y2="340.7"/>
	<line fill="none" stroke="#333399" stroke-width="3" stroke-miterlimit="10" x1="664.2" y1="382.7" x2="766.2" y2="382.7"/>
	<rect x="692.8" y="443.8" fill="none" stroke="#333399" stroke-width="3" stroke-miterlimit="10" width="47.7" height="16.2"/>
	<line fill="none" stroke="#333399" stroke-width="3" stroke-miterlimit="10" x1="716.7" y1="445.2" x2="716.7" y2="460.9"/>
	<g id="Reflejo_1_">
		<line fill="none" stroke="#F7F7F8" stroke-width="3" stroke-miterlimit="10" x1="674.8" y1="272.9" x2="681.7" y2="250.9"/>
		<line fill="none" stroke="#F7F7F8" stroke-width="3" stroke-miterlimit="10" x1="745.7" y1="254" x2="753.4" y2="230.6"/>
		<line fill="none" stroke="#F7F7F8" stroke-width="3" stroke-miterlimit="10" x1="749.6" y1="269" x2="756.5" y2="247"/>
		<line fill="none" stroke="#F7F7F8" stroke-width="3" stroke-miterlimit="10" x1="697.1" y1="315.1" x2="704.8" y2="291.6"/>
		<line fill="none" stroke="#F7F7F8" stroke-width="3" stroke-miterlimit="10" x1="700.9" y1="330.1" x2="707.9" y2="308.1"/>
		<line fill="none" stroke="#F7F7F8" stroke-width="2" stroke-miterlimit="10" x1="723.1" y1="365.5" x2="729.6" y2="345.7"/>
		<line fill="none" stroke="#F7F7F8" stroke-width="2" stroke-miterlimit="10" x1="726.4" y1="378.2" x2="732.2" y2="359.6"/>
		<line fill="none" stroke="#F7F7F8" stroke-width="3" stroke-miterlimit="10" x1="670.9" y1="257.8" x2="678.6" y2="234.4"/>
	</g>
</g>
<g>
	<path fill="#AFAEB4" stroke="#333399" stroke-width="3" stroke-miterlimit="10" d="M479.1,408.7c0,4.4-3.6,8-8,8H133.2
		c-4.4,0-8-3.6-8-8V213.1c0-4.4,3.6-8,8-8h337.9c4.4,0,8,3.6,8,8L479.1,408.7L479.1,408.7z"/>
	
		<rect x="139.4" y="217.1" fill="#F7F7F8" stroke="#333399" stroke-width="3" stroke-miterlimit="10" width="326.2" height="153.1"/>
	<polygon fill="#D7D9DD" stroke="#333399" stroke-width="3" stroke-miterlimit="10" points="366.1,416.7 378.7,448.3 392.6,448.3 
		392.6,461.7 212,461.7 212,448.3 226.6,448.3 238.8,416.7 	"/>
</g>
<rect x="465.1" y="429" fill="#D7D9DD" stroke="#333399" stroke-width="3" stroke-miterlimit="10" width="21" height="26.9"/>
<rect x="576.7" y="430.7" fill="#9B999E" stroke="#333399" stroke-width="3" stroke-miterlimit="10" width="125.8" height="30.2"/>
<g>
	<polyline fill="none" stroke="#333399" stroke-miterlimit="10" points="195.1,349.1 247.4,301 278.9,301 288.7,325 302.5,325 
		319.9,268 341.9,265 	"/>
	<path id="Lamp_1_" fill="none" stroke="#333399" stroke-miterlimit="10" d="M183.2,282.3v7.3h23.5v-7.3c6.8-4,11.4-11.4,11.4-19.9
		c0-12.8-10.4-23.1-23.1-23.1c-12.8,0-23.1,10.4-23.1,23.1C171.8,270.9,176.4,278.3,183.2,282.3z"/>
	<rect x="182.4" y="289.6" fill="none" stroke="#333399" stroke-miterlimit="10" width="25.6" height="7.2"/>
	<path fill="none" stroke="#333399" stroke-width="2" stroke-miterlimit="10" d="M201.2,297.7v8c0,0,0.1,5.4-5.8,5.4
		c0,0-6.7,0.4-6.7-6.3v-7.1H201.2z"/>
	<line fill="none" stroke="#333399" stroke-width="2" stroke-miterlimit="10" x1="194.4" y1="301.9" x2="188.7" y2="301.9"/>
	<g>
		<line fill="none" stroke="#333399" stroke-width="3" stroke-miterlimit="10" x1="214.8" y1="285.8" x2="212.4" y2="282.9"/>
		<line fill="none" stroke="#333399" stroke-width="3" stroke-miterlimit="10" x1="224.8" y1="279.4" x2="218.9" y2="276"/>
		<line fill="none" stroke="#333399" stroke-width="3" stroke-miterlimit="10" x1="225.7" y1="267.6" x2="221.8" y2="267"/>
		<line fill="none" stroke="#333399" stroke-width="3" stroke-miterlimit="10" x1="229.6" y1="256.1" x2="221.8" y2="257.5"/>
		<line fill="none" stroke="#333399" stroke-width="3" stroke-miterlimit="10" x1="223" y1="246.1" x2="218.8" y2="248.5"/>
		<line fill="none" stroke="#333399" stroke-width="3" stroke-miterlimit="10" x1="217.6" y1="235.3" x2="212.8" y2="241.1"/>
		<line fill="none" stroke="#333399" stroke-width="3" stroke-miterlimit="10" x1="206" y1="232.1" x2="204.7" y2="235.6"/>
		<line fill="none" stroke="#333399" stroke-width="3" stroke-miterlimit="10" x1="195" y1="227.1" x2="195" y2="234"/>
		<line fill="none" stroke="#333399" stroke-width="3" stroke-miterlimit="10" x1="184" y1="231.9" x2="185.2" y2="235.2"/>
		<line fill="none" stroke="#333399" stroke-width="3" stroke-miterlimit="10" x1="172.5" y1="235.3" x2="177.3" y2="241.1"/>
		<line fill="none" stroke="#333399" stroke-width="3" stroke-miterlimit="10" x1="167.6" y1="246.4" x2="171.2" y2="248.5"/>
		<line fill="none" stroke="#333399" stroke-width="3" stroke-miterlimit="10" x1="160.4" y1="256.1" x2="167.7" y2="257.4"/>
		<line fill="none" stroke="#333399" stroke-width="3" stroke-miterlimit="10" x1="163.3" y1="267.8" x2="167.7" y2="267.1"/>
		<line fill="none" stroke="#333399" stroke-width="3" stroke-miterlimit="10" x1="164.6" y1="279.8" x2="171.2" y2="276"/>
		<line fill="none" stroke="#333399" stroke-width="3" stroke-miterlimit="10" x1="174.9" y1="286.3" x2="178.1" y2="282.5"/>
	</g>
	<g>
		<g>
			<line fill="none" stroke="#AFAEB4" stroke-miterlimit="10" x1="246.6" y1="270" x2="246.6" y2="276"/>
			
				<line fill="none" stroke="#AFAEB4" stroke-miterlimit="10" stroke-dasharray="13.8503,13.8503" x1="246.6" y1="289.9" x2="246.6" y2="338.3"/>
			<line fill="none" stroke="#AFAEB4" stroke-miterlimit="10" x1="246.6" y1="345.3" x2="246.6" y2="351.3"/>
		</g>
	</g>
	<g>
		<g>
			<line fill="none" stroke="#AFAEB4" stroke-miterlimit="10" x1="288.4" y1="293.9" x2="288.4" y2="299.9"/>
			
				<line fill="none" stroke="#AFAEB4" stroke-miterlimit="10" stroke-dasharray="15.1196,15.1196" x1="288.4" y1="315" x2="288.4" y2="337.7"/>
			<line fill="none" stroke="#AFAEB4" stroke-miterlimit="10" x1="288.4" y1="345.3" x2="288.4" y2="351.3"/>
		</g>
	</g>
	<g>
		<g>
			<line fill="none" stroke="#AFAEB4" stroke-miterlimit="10" x1="320" y1="249" x2="320" y2="255"/>
			
				<line fill="none" stroke="#AFAEB4" stroke-miterlimit="10" stroke-dasharray="12.8886,12.8886" x1="320" y1="267.9" x2="320" y2="338.8"/>
			<line fill="none" stroke="#AFAEB4" stroke-miterlimit="10" x1="320" y1="345.3" x2="320" y2="351.3"/>
		</g>
	</g>
	<g>
		<g>
			<line fill="none" stroke="#AFAEB4" stroke-miterlimit="10" x1="341.9" y1="233.5" x2="341.9" y2="239.5"/>
			
				<line fill="none" stroke="#AFAEB4" stroke-miterlimit="10" stroke-dasharray="11.7502,11.7502" x1="341.9" y1="251.3" x2="341.9" y2="339.4"/>
			<line fill="none" stroke="#AFAEB4" stroke-miterlimit="10" x1="341.9" y1="345.3" x2="341.9" y2="351.3"/>
		</g>
	</g>
</g>
<rect x="191" y="343.5" fill="#C99F7E" width="8.1" height="8.6"/>
<polygon fill="none" stroke="#333399" stroke-width="2" stroke-miterlimit="10" points="524.3,325.7 524.3,356.5 545.7,356.5 
	556.3,365.7 565.6,356.5 586.7,356.5 586.7,325.7 "/>
<rect x="528.7" y="415.8" fill="#D7D9DD" stroke="#333399" stroke-width="3" stroke-miterlimit="10" width="23.7" height="45.2"/>
<rect x="242.5" y="296.7" fill="#C99F7E" width="8.1" height="8.6"/>
<rect x="337.8" y="260.7" fill="#C99F7E" width="8.1" height="8.6"/>
<rect x="315.9" y="263.7" fill="#C99F7E" width="8.1" height="8.6"/>
<rect x="284.3" y="320.4" fill="#C99F7E" width="8.1" height="8.6"/>
<g id="planta_2_">
	<rect x="373.6" y="366" fill="#C99F7E" stroke="#333399" stroke-width="3" stroke-miterlimit="10" width="149.9" height="21.9"/>
	<polygon fill="#C4AB9B" stroke="#333399" stroke-width="3" stroke-miterlimit="10" points="490.1,461 399.6,461 383.6,389 
		505.1,389 	"/>
	<g id="hojas_2_">
		<polygon fill="#8FDBAA" stroke="#333399" stroke-width="3" stroke-miterlimit="10" points="448,334 429.1,317.9 395.1,313.7 
			409.1,337.7 448,349 		"/>
		<polygon fill="#8FDBAA" stroke="#333399" stroke-width="3" stroke-miterlimit="10" points="448.6,334 467.5,317.9 501.5,313.7 
			487.5,337.7 448.6,349 		"/>
	</g>
	
		<line id="tallo_2_" fill="none" stroke="#333399" stroke-width="3" stroke-miterlimit="10" x1="448" y1="294.2" x2="448" y2="366"/>
	<g id="Flor_2_">
		<circle fill="#DDD697" stroke="#333399" stroke-width="3" stroke-miterlimit="10" cx="448.1" cy="233.5" r="60.7"/>
		<circle fill="#E2DCB0" cx="448.1" cy="233.5" r="52.5"/>
		<g id="Rayos_2_">
			<line fill="none" stroke="#333399" stroke-width="2" stroke-miterlimit="10" x1="448.6" y1="154" x2="448.6" y2="165"/>
			<line fill="none" stroke="#333399" stroke-width="2" stroke-miterlimit="10" x1="419.1" y1="150.6" x2="425.3" y2="167.6"/>
			<line fill="none" stroke="#333399" stroke-width="2" stroke-miterlimit="10" x1="398.5" y1="171.9" x2="404.8" y2="179.4"/>
			<line fill="none" stroke="#333399" stroke-width="2" stroke-miterlimit="10" x1="373.3" y1="188.1" x2="388.4" y2="196.8"/>
			<line fill="none" stroke="#333399" stroke-width="2" stroke-miterlimit="10" x1="371" y1="217.9" x2="380.8" y2="219.7"/>
			<line fill="none" stroke="#333399" stroke-width="2" stroke-miterlimit="10" x1="361.1" y1="247.1" x2="381" y2="243.5"/>
			<line fill="none" stroke="#333399" stroke-width="2" stroke-miterlimit="10" x1="377.9" y1="272.4" x2="388.4" y2="266.4"/>
			<line fill="none" stroke="#333399" stroke-width="2" stroke-miterlimit="10" x1="391.5" y1="299.7" x2="403.7" y2="285.1"/>
			<line fill="none" stroke="#333399" stroke-width="2" stroke-miterlimit="10" x1="420.8" y1="308" x2="424.1" y2="299"/>
			<line fill="none" stroke="#333399" stroke-width="2" stroke-miterlimit="10" x1="448.6" y1="320.5" x2="448.6" y2="303"/>
			<line fill="none" stroke="#333399" stroke-width="2" stroke-miterlimit="10" x1="476.5" y1="308.3" x2="473.5" y2="300.1"/>
			<line fill="none" stroke="#333399" stroke-width="2" stroke-miterlimit="10" x1="505.8" y1="299.7" x2="493.5" y2="285.1"/>
			<line fill="none" stroke="#333399" stroke-width="2" stroke-miterlimit="10" x1="518.1" y1="271.7" x2="508.8" y2="266.4"/>
			<line fill="none" stroke="#333399" stroke-width="2" stroke-miterlimit="10" x1="536.2" y1="247" x2="517.8" y2="243.8"/>
			<line fill="none" stroke="#333399" stroke-width="2" stroke-miterlimit="10" x1="528.9" y1="217.5" x2="517.8" y2="219.4"/>
			<line fill="none" stroke="#333399" stroke-width="2" stroke-miterlimit="10" x1="525.6" y1="187.2" x2="508.8" y2="196.8"/>
			<line fill="none" stroke="#333399" stroke-width="2" stroke-miterlimit="10" x1="499.6" y1="170.8" x2="491.6" y2="180.4"/>
			<line fill="none" stroke="#333399" stroke-width="2" stroke-miterlimit="10" x1="478.1" y1="150.6" x2="472.1" y2="167"/>
		</g>
	</g>
	<g id="pesos_2_">
		<path fill="#F7F7F8" stroke="#333399" stroke-width="3" stroke-miterlimit="10" d="M445.5,264.5v-7.3c-4.2-0.1-8.5-1.4-11-3.2
			l1.7-4.8c2.6,1.7,6.3,3.1,10.4,3.1c5.1,0,8.6-3,8.6-7.1c0-4-2.8-6.4-8.1-8.6c-7.3-2.9-11.9-6.2-11.9-12.5c0-6,4.2-10.5,10.9-11.6
			v-7.3h4.5v7c4.3,0.1,7.3,1.3,9.4,2.5l-1.8,4.8c-1.5-0.9-4.5-2.4-9.1-2.4c-5.5,0-7.6,3.3-7.6,6.2c0,3.7,2.7,5.6,8.9,8.2
			c7.4,3,11.2,6.8,11.2,13.2c0,5.7-4,11-11.4,12.2v7.5h-4.7V264.5z"/>
	</g>
</g>
<rect x="582.8" y="306.7" fill="#AFAEB4" stroke="#333399" stroke-width="3" stroke-miterlimit="10" width="113" height="12"/>
<path fill="#C3C4CA" stroke="#333399" stroke-width="3" stroke-miterlimit="10" d="M576.7,430.7c0,0,31.9-23.3,24.8-112h79.6
	c0,0-11.3,76,21.3,112H576.7z"/>
<polygon fill="#9B999E" stroke="#333399" stroke-width="3" stroke-miterlimit="10" points="678.6,243.4 678.6,260.5 651.1,260.5 
	651.1,243.4 629.6,243.4 629.6,260.5 602.1,260.5 602.1,243.4 582.8,243.4 582.8,306.7 695.8,306.7 695.8,243.4 "/>
<rect x="555.2" y="380.6" fill="#D7D9DD" stroke="#333399" stroke-width="3" stroke-miterlimit="10" width="28.1" height="80.4"/>
<line fill="none" stroke="#333399" stroke-width="2" stroke-linecap="square" stroke-linejoin="round" stroke-miterlimit="10" x1="41.3" y1="471.3" x2="840.9" y2="471.3"/>
<line fill="none" stroke="#333399" stroke-width="2" stroke-linecap="square" stroke-linejoin="round" stroke-miterlimit="10" x1="851.5" y1="471.3" x2="877.3" y2="471.3"/>
<line fill="none" stroke="#333399" stroke-width="2" stroke-linecap="square" stroke-linejoin="round" stroke-miterlimit="10" x1="16.5" y1="471.3" x2="30" y2="471.3"/>
<g id="cuadrados_2_">
	<rect x="50.1" y="158.1" fill="none" stroke="#333399" stroke-width="2" stroke-miterlimit="10" width="9.8" height="9.8"/>
	<rect x="278.5" y="137.6" fill="none" stroke="#333399" stroke-width="2" stroke-miterlimit="10" width="11.5" height="10.5"/>
	<rect x="558.8" y="105.9" fill="none" stroke="#333399" stroke-width="2" stroke-miterlimit="10" width="11.5" height="10.1"/>
</g>
<g id="lineas_2_">
	<g>
		<line fill="none" stroke="#333399" stroke-width="2" stroke-miterlimit="10" x1="211.7" y1="13" x2="211.7" y2="21"/>
		<line fill="none" stroke="#333399" stroke-width="2" stroke-miterlimit="10" x1="207.7" y1="17" x2="215.9" y2="17"/>
	</g>
	<g>
		<line fill="none" stroke="#333399" stroke-width="3" stroke-miterlimit="10" x1="119.6" y1="59.6" x2="119.6" y2="72.6"/>
		<line fill="none" stroke="#333399" stroke-width="3" stroke-miterlimit="10" x1="112.9" y1="66.1" x2="126" y2="66.1"/>
	</g>
	<line fill="none" stroke="#333399" stroke-width="2" stroke-miterlimit="10" x1="70.6" y1="163.3" x2="136.6" y2="163.3"/>
	<line fill="none" stroke="#333399" stroke-width="2" stroke-miterlimit="10" x1="23.2" y1="190.2" x2="101.2" y2="190.2"/>
	<line fill="none" stroke="#333399" stroke-width="2" stroke-miterlimit="10" x1="12.6" y1="190.2" x2="17.8" y2="190.2"/>
	<g>
		<line fill="none" stroke="#333399" stroke-width="2" stroke-miterlimit="10" x1="3.9" y1="186" x2="3.9" y2="194"/>
		<line fill="none" stroke="#333399" stroke-width="2" stroke-miterlimit="10" x1="0" y1="190" x2="8.2" y2="190"/>
	</g>
	<line fill="none" stroke="#333399" stroke-width="2" stroke-miterlimit="10" x1="231" y1="17.2" x2="309" y2="17.2"/>
	<line fill="none" stroke="#333399" stroke-width="2" stroke-miterlimit="10" x1="220.3" y1="17.2" x2="225.5" y2="17.2"/>
	<line fill="none" stroke="#333399" stroke-width="2" stroke-miterlimit="10" x1="248.5" y1="142.8" x2="268.5" y2="142.8"/>
	<line fill="none" stroke="#333399" stroke-width="2" stroke-miterlimit="10" x1="109.6" y1="142.8" x2="205.9" y2="142.8"/>
	<line fill="none" stroke="#333399" stroke-width="2" stroke-miterlimit="10" x1="212.2" y1="142.8" x2="220.8" y2="142.8"/>
	<line fill="none" stroke="#333399" stroke-width="2" stroke-miterlimit="10" x1="227.3" y1="142.8" x2="236.9" y2="142.8"/>
	<line fill="none" stroke="#333399" stroke-width="2" stroke-miterlimit="10" x1="576.9" y1="139.6" x2="576.9" y2="152.2"/>
	<line fill="none" stroke="#333399" stroke-width="2" stroke-miterlimit="10" x1="570.2" y1="145.9" x2="583.3" y2="145.9"/>
	<line fill="none" stroke="#333399" stroke-width="2" stroke-miterlimit="10" x1="508.7" y1="48.4" x2="508.7" y2="59.3"/>
	<line fill="none" stroke="#333399" stroke-width="2" stroke-miterlimit="10" x1="503.5" y1="53.8" x2="513.5" y2="53.8"/>
	<line fill="none" stroke="#333399" stroke-width="2" stroke-miterlimit="10" x1="551.8" y1="53.8" x2="637.3" y2="53.8"/>
	<line fill="none" stroke="#333399" stroke-width="2" stroke-miterlimit="10" x1="131.9" y1="66" x2="217.4" y2="66"/>
	<line fill="none" stroke="#333399" stroke-width="2" stroke-miterlimit="10" x1="586.2" y1="145.9" x2="590.7" y2="145.9"/>
	<line fill="none" stroke="#333399" stroke-width="2" stroke-miterlimit="10" x1="596.8" y1="145.9" x2="604.2" y2="145.9"/>
	<line fill="none" stroke="#333399" stroke-width="2" stroke-miterlimit="10" x1="607.8" y1="145.9" x2="669.6" y2="145.9"/>
	<line fill="none" stroke="#333399" stroke-width="2" stroke-miterlimit="10" x1="490.8" y1="111.2" x2="551.8" y2="111.2"/>
	<line fill="none" stroke="#333399" stroke-width="2" stroke-miterlimit="10" x1="467.3" y1="111.2" x2="473.8" y2="111.2"/>
	<line fill="none" stroke="#333399" stroke-width="2" stroke-miterlimit="10" x1="480.3" y1="111.2" x2="483.3" y2="111.2"/>
</g>
<g id="nubes_2_">
	<g>
		<polyline fill="none" stroke="#333399" stroke-width="2" stroke-miterlimit="10" points="40.3,113.9 57,113.9 57,95.1 85.6,95.1 
			85.6,102.5 109.1,102.5 109.1,115.5 		"/>
		<line fill="none" stroke="#333399" stroke-width="2" stroke-miterlimit="10" x1="85.6" y1="102.5" x2="85.6" y2="109.9"/>
	</g>
	<g>
		<polyline fill="none" stroke="#333399" stroke-width="2" stroke-miterlimit="10" points="677,29 693.6,29 693.6,10.2 722.3,10.2 
			722.3,17.6 745.7,17.6 745.7,30.5 		"/>
		<line fill="none" stroke="#333399" stroke-width="2" stroke-miterlimit="10" x1="722.3" y1="17.6" x2="722.3" y2="25"/>
	</g>
	<g>
		<polygon fill="none" stroke="#333399" stroke-width="2" stroke-miterlimit="10" points="196.8,105 262.5,105 262.5,91 246.5,91 
			246.5,81.6 228.8,81.6 228.8,74 203.8,74 203.8,95 196.8,95 		"/>
		<line fill="none" stroke="#333399" stroke-width="2" stroke-miterlimit="10" x1="228.8" y1="92.7" x2="228.8" y2="79.2"/>
		<line fill="none" stroke="#333399" stroke-width="2" stroke-miterlimit="10" x1="246.5" y1="86.6" x2="246.5" y2="96.1"/>
		<line fill="none" stroke="#333399" stroke-width="2" stroke-miterlimit="10" x1="202.3" y1="95" x2="209" y2="95"/>
	</g>
	<g>
		<polygon fill="#F7F7F8" stroke="#333399" stroke-width="3" stroke-miterlimit="10" points="80.2,216 158.7,216 158.7,199.3 
			139.6,199.3 139.6,188 118.5,188 118.5,179 88.6,179 88.6,204.1 80.2,204.1 		"/>
		<line fill="none" stroke="#333399" stroke-width="3" stroke-miterlimit="10" x1="118.5" y1="201.4" x2="118.5" y2="185.2"/>
		<line fill="none" stroke="#333399" stroke-width="3" stroke-miterlimit="10" x1="139.6" y1="194" x2="139.6" y2="205.4"/>
		<line fill="none" stroke="#333399" stroke-width="3" stroke-miterlimit="10" x1="86.9" y1="204.1" x2="94.8" y2="204.1"/>
	</g>
	<g>
		<polyline fill="none" stroke="#333399" stroke-width="2" stroke-miterlimit="10" points="458.3,19.4 458.3,10 479.7,10 479.7,1 
			507.3,1 507.3,19.4 523.3,19.4 		"/>
		<line fill="none" stroke="#333399" stroke-width="2" stroke-miterlimit="10" x1="479.7" y1="10" x2="479.7" y2="17"/>
	</g>
	<g>
		<polygon fill="none" stroke="#333399" stroke-width="2" stroke-miterlimit="10" points="141.9,37.9 76.2,37.9 76.2,24.4 
			92.2,24.4 92.2,15.3 109.9,15.3 109.9,8 134.9,8 134.9,28.3 141.9,28.3 		"/>
	</g>
	<g>
		<polygon fill="none" stroke="#333399" stroke-width="2" stroke-miterlimit="10" points="674.4,105.9 608.7,105.9 608.7,92.4 
			624.7,92.4 624.7,83.3 642.4,83.3 642.4,76 667.4,76 667.4,96.3 674.4,96.3 		"/>
		<line fill="none" stroke="#333399" stroke-width="2" stroke-miterlimit="10" x1="624.7" y1="88.2" x2="624.7" y2="97.3"/>
		<line fill="none" stroke="#333399" stroke-width="2" stroke-miterlimit="10" x1="642.4" y1="94.1" x2="642.4" y2="81"/>
		<line fill="none" stroke="#333399" stroke-width="2" stroke-miterlimit="10" x1="668.8" y1="96.3" x2="662.2" y2="96.3"/>
	</g>
	<g>
		<polyline fill="none" stroke="#333399" stroke-width="2" stroke-miterlimit="10" points="678.1,145.9 691.6,145.9 691.6,131.2 
			714.8,131.2 714.8,137 733.8,137 733.8,147.2 		"/>
		<line fill="none" stroke="#333399" stroke-width="2" stroke-miterlimit="10" x1="714.8" y1="137" x2="714.8" y2="142.8"/>
	</g>
	<g>
		<polygon fill="#F7F7F8" stroke="#333399" stroke-width="3" stroke-miterlimit="10" points="549.9,231.5 615.6,231.5 615.6,218 
			599.6,218 599.6,208.8 581.9,208.8 581.9,201.6 556.9,201.6 556.9,221.8 549.9,221.8 		"/>
		<line fill="none" stroke="#333399" stroke-width="3" stroke-miterlimit="10" x1="581.9" y1="219.6" x2="581.9" y2="206.6"/>
		<line fill="none" stroke="#333399" stroke-width="3" stroke-miterlimit="10" x1="599.6" y1="213.7" x2="599.6" y2="222.9"/>
		<line fill="none" stroke="#333399" stroke-width="3" stroke-miterlimit="10" x1="555.5" y1="221.8" x2="562.1" y2="221.8"/>
	</g>
</g>
<polygon fill="#62A39E" stroke="#333399" stroke-width="3" stroke-miterlimit="10" points="101.4,450.7 65.6,450.4 50.6,395.4 
	117.2,395.4 "/>
<rect x="61.3" y="450.7" fill="#727276" stroke="#333399" stroke-width="3" stroke-miterlimit="10" width="44.6" height="11.8"/>
<path fill="none" stroke="#333399" stroke-width="3" stroke-miterlimit="10" d="M60.3,434.1L60.3,434.1c-6.5,1.8-13.1-2-14.9-8.4
	l-1.8-6.4c-1.8-6.5,2-13.1,8.4-14.9l0,0"/>
<g id="humo_1_">
	<g>
		<g>
			<defs>
				<rect id="SVGID_1_" x="58.8" y="342.7" width="47.6" height="45.9"/>
			</defs>
			<clipPath id="SVGID_2_">
				<use xlink:href="#SVGID_1_"  overflow="visible"/>
			</clipPath>
			<path clip-path="url(#SVGID_2_)" fill="none" stroke="#333399" stroke-width="3" stroke-miterlimit="10" d="M76.7,388.6v-5.4
				c0-6.6,7.3-6,7.3-6h12.5c2.2,0,3.9-1.8,3.9-3.9l0,0c0-2.2-1.8-3.9-3.9-3.9H65.4c-2.1,0-3.9-1.7-3.9-3.9l0,0
				c0-2.1,1.7-3.9,3.9-3.9h13.1l6,0.1h12c2.1,0,3.9-1.7,3.9-3.9l0,0c0-2.1-1.7-3.9-3.9-3.9H65.4c-2.1,0-3.9-1.7-3.9-3.9l0,0
				c0-2.1,1.7-3.9,3.9-3.9h41"/>
		</g>
	</g>
</g>
<g id="porcentaje_2_">
	<polygon fill="none" stroke="#333399" stroke-width="2" stroke-miterlimit="10" points="351.7,58.8 359.2,47.6 372.9,51.3 
		386,45.4 394,56.2 408,61.3 409.2,74.7 417.5,85.5 410.7,97.8 410.5,111.5 398,117 390,127.3 375.5,124.7 363.2,129.8 354.4,119.3 
		340.5,116 340.5,101.1 330.5,90.6 338.3,78.8 338.3,64.6 	"/>
	<g>
		<line fill="none" stroke="#333399" stroke-width="2" stroke-miterlimit="10" x1="374" y1="27.3" x2="374" y2="35.7"/>
		<line fill="none" stroke="#333399" stroke-width="2" stroke-miterlimit="10" x1="351.5" y1="24.7" x2="356.3" y2="37.7"/>
		<line fill="none" stroke="#333399" stroke-width="2" stroke-miterlimit="10" x1="335.9" y1="41" x2="340.5" y2="46.7"/>
		<line fill="none" stroke="#333399" stroke-width="2" stroke-miterlimit="10" x1="316.5" y1="53.3" x2="328" y2="60"/>
		<line fill="none" stroke="#333399" stroke-width="2" stroke-miterlimit="10" x1="314.9" y1="76.1" x2="322.3" y2="77.3"/>
		<line fill="none" stroke="#333399" stroke-width="2" stroke-miterlimit="10" x1="307.3" y1="98.3" x2="322.5" y2="95.7"/>
		<line fill="none" stroke="#333399" stroke-width="2" stroke-miterlimit="10" x1="320" y1="117.7" x2="328" y2="113.1"/>
		<line fill="none" stroke="#333399" stroke-width="2" stroke-miterlimit="10" x1="330.5" y1="138.5" x2="339.8" y2="127.3"/>
		<line fill="none" stroke="#333399" stroke-width="2" stroke-miterlimit="10" x1="352.9" y1="144.8" x2="355.4" y2="138"/>
		<line fill="none" stroke="#333399" stroke-width="2" stroke-miterlimit="10" x1="374" y1="154.4" x2="374" y2="141"/>
		<line fill="none" stroke="#333399" stroke-width="2" stroke-miterlimit="10" x1="395.4" y1="145" x2="393" y2="138.8"/>
		<line fill="none" stroke="#333399" stroke-width="2" stroke-miterlimit="10" x1="417.7" y1="138.5" x2="408.3" y2="127.3"/>
		<line fill="none" stroke="#333399" stroke-width="2" stroke-miterlimit="10" x1="427" y1="117" x2="420" y2="113.1"/>
		<line fill="none" stroke="#333399" stroke-width="2" stroke-miterlimit="10" x1="440.8" y1="98.3" x2="426.8" y2="95.8"/>
		<line fill="none" stroke="#333399" stroke-width="2" stroke-miterlimit="10" x1="435.3" y1="75.7" x2="426.8" y2="77.2"/>
		<line fill="none" stroke="#333399" stroke-width="2" stroke-miterlimit="10" x1="432.8" y1="52.6" x2="420" y2="60"/>
		<line fill="none" stroke="#333399" stroke-width="2" stroke-miterlimit="10" x1="413" y1="40.1" x2="406.9" y2="47.4"/>
		<line fill="none" stroke="#333399" stroke-width="2" stroke-miterlimit="10" x1="396.5" y1="24.7" x2="392" y2="37.2"/>
	</g>
	<line fill="none" stroke="#333399" stroke-width="2" stroke-miterlimit="10" x1="361.2" y1="107" x2="388.5" y2="70.3"/>
	<rect x="356.3" y="70.3" fill="none" stroke="#333399" stroke-width="2" stroke-miterlimit="10" width="12.6" height="13.5"/>
	<rect x="380.4" y="93.8" fill="none" stroke="#333399" stroke-width="2" stroke-miterlimit="10" width="11.7" height="12"/>
</g>
<rect x="495.1" y="399.2" fill="#D7D9DD" stroke="#333399" stroke-width="3" stroke-miterlimit="10" width="23.6" height="61.8"/>
<g id="Techo_x5F_Edi1_1_">
	<rect x="651.8" y="206" fill="#9B999E" stroke="#333399" stroke-width="3" stroke-miterlimit="10" width="123.3" height="17.1"/>
	<rect x="667.8" y="194" fill="#D7D9DD" stroke="#333399" stroke-width="3" stroke-miterlimit="10" width="92.7" height="12"/>
	<line fill="none" stroke="#333399" stroke-width="3" stroke-miterlimit="10" x1="704.4" y1="194" x2="704.4" y2="175.6"/>
	<line fill="none" stroke="#333399" stroke-width="3" stroke-miterlimit="10" x1="722.3" y1="194" x2="722.3" y2="165"/>
</g>
</svg>
