<svg version="1.1" class="img-responsive servicios_icono" id="servicios_icono1" xmlns="http://www.w3.org/2000/svg" xmlns:xlink="http://www.w3.org/1999/xlink" xmlns:a="http://ns.adobe.com/AdobeSVGViewerExtensions/3.0/"	 x="0px" y="0px" width="878.1px" height="456.7px" viewBox="0 0 878.1 456.7" enable-background="new 0 0 878.1 456.7"
	 xml:space="preserve">
<defs>
</defs>
<rect x="124.3" y="53.8" fill="#AFAEB4" stroke="#333399" stroke-width="3" stroke-miterlimit="10" width="128" height="160.3"/>
<path fill="#AFAEB4" stroke="#333399" stroke-width="3" stroke-miterlimit="10" d="M612.1,393.6c0,4.4-3.6,8-8,8H266.2
	c-4.4,0-8-3.6-8-8V198c0-4.4,3.6-8,8-8h337.9c4.4,0,8,3.6,8,8V393.6z"/>
<rect x="272.4" y="202" fill="#F7F7F8" stroke="#333399" stroke-width="3" stroke-miterlimit="10" width="326.2" height="153.1"/>
<line fill="none" stroke="#333399" stroke-width="3" stroke-miterlimit="10" x1="27.4" y1="455.2" x2="857.2" y2="455.2"/>
<line fill="none" stroke="#333399" stroke-width="3" stroke-miterlimit="10" x1="296.9" y1="17.5" x2="435.8" y2="17.5"/>
<rect x="599.2" y="33.8" fill="#73ADA8" stroke="#333399" stroke-width="3" stroke-miterlimit="10" width="34.5" height="109.7"/>
<rect x="641.2" y="17.5" fill="#789E6A" stroke="#333399" stroke-width="3" stroke-miterlimit="10" width="19.5" height="135"/>
<rect x="666.7" y="33.8" fill="#C9BB9E" stroke="#333399" stroke-width="3" stroke-miterlimit="10" width="27" height="118.7"/>
<rect x="701.9" y="33.8" fill="#AA958A" stroke="#333399" stroke-width="3" stroke-miterlimit="10" width="18.8" height="118.7"/>
<line fill="none" stroke="#333399" stroke-width="3" stroke-miterlimit="10" x1="267.6" y1="47.4" x2="310" y2="47.4"/>
<line fill="none" stroke="#333399" stroke-width="3" stroke-miterlimit="10" x1="315" y1="47.4" x2="320.6" y2="47.4"/>
<line fill="none" stroke="#333399" stroke-width="3" stroke-miterlimit="10" x1="327.5" y1="47.4" x2="337.6" y2="47.4"/>
<line fill="none" stroke="#333399" stroke-width="3" stroke-miterlimit="10" x1="306.7" y1="157.4" x2="315" y2="157.4"/>
<line fill="none" stroke="#333399" stroke-width="3" stroke-miterlimit="10" x1="320.6" y1="157.4" x2="323.3" y2="157.4"/>
<line fill="none" stroke="#333399" stroke-width="3" stroke-miterlimit="10" x1="330.7" y1="157.4" x2="392.9" y2="157.4"/>
<line fill="none" stroke="#333399" stroke-width="3" stroke-miterlimit="10" x1="131.1" y1="311" x2="122.8" y2="311"/>
<line fill="none" stroke="#333399" stroke-width="3" stroke-miterlimit="10" x1="117.3" y1="311" x2="114.5" y2="311"/>
<line fill="none" stroke="#333399" stroke-width="3" stroke-miterlimit="10" x1="107.2" y1="311" x2="45" y2="311"/>
<line fill="none" stroke="#333399" stroke-width="3" stroke-miterlimit="10" x1="22.1" y1="92" x2="68.2" y2="92"/>
<line fill="none" stroke="#333399" stroke-width="3" stroke-miterlimit="10" x1="74.6" y1="92" x2="78.3" y2="92"/>
<line fill="none" stroke="#333399" stroke-width="3" stroke-miterlimit="10" x1="84.7" y1="92" x2="89.3" y2="92"/>
<rect x="100.9" y="84.6" fill="none" stroke="#333399" stroke-width="3" stroke-miterlimit="10" width="11.5" height="11.2"/>
<rect x="106.4" y="435" fill="none" stroke="#333399" stroke-width="3" stroke-miterlimit="10" width="83" height="10.5"/>
<circle fill="#AFAEB4" stroke="#333399" stroke-width="3" stroke-miterlimit="10" cx="188.4" cy="293" r="14"/>
<circle fill="#F7F7F8" stroke="#333399" stroke-width="3" stroke-miterlimit="10" cx="188.4" cy="293" r="7.9"/>
<circle fill="#AFAEB4" stroke="#333399" stroke-width="3" stroke-miterlimit="10" cx="95.9" cy="208.6" r="14"/>
<circle fill="#F7F7F8" stroke="#333399" stroke-width="3" stroke-miterlimit="10" cx="95.9" cy="208.6" r="7.9"/>
<circle fill="#AFAEB4" stroke="#333399" stroke-width="3" stroke-miterlimit="10" cx="155.1" cy="402.3" r="14"/>
<line fill="#AFAEB4" stroke="#333399" stroke-width="3" stroke-miterlimit="10" x1="141.4" y1="405.2" x2="141.4" y2="433.6"/>
<line fill="#AFAEB4" stroke="#333399" stroke-width="3" stroke-miterlimit="10" x1="155.1" y1="416.3" x2="155.1" y2="435"/>
<line fill="#AFAEB4" stroke="#333399" stroke-width="3" stroke-miterlimit="10" x1="168.8" y1="405.2" x2="168.8" y2="435"/>
<line fill="none" stroke="#333399" stroke-width="3" stroke-miterlimit="10" x1="155.1" y1="388.3" x2="180.1" y2="304.2"/>
<line fill="none" stroke="#333399" stroke-width="3" stroke-miterlimit="10" x1="163.7" y1="391.3" x2="190.7" y2="306.8"/>
<line fill="none" stroke="#333399" stroke-width="3" stroke-miterlimit="10" x1="167.6" y1="344.5" x2="177.2" y2="349"/>
<line fill="none" stroke="#333399" stroke-width="3" stroke-miterlimit="10" x1="109" y1="213.5" x2="182.2" y2="280.5"/>
<line fill="none" stroke="#333399" stroke-width="3" stroke-miterlimit="10" x1="101.8" y1="221.3" x2="174.4" y2="286.5"/>
<line fill="none" stroke="#333399" stroke-width="3" stroke-miterlimit="10" x1="144.3" y1="259.5" x2="150.2" y2="251.2"/>
<g>
	<path fill="none" stroke="#333399" stroke-width="3" stroke-miterlimit="10" d="M40.6,204.2c0,0,3.8-13.9,20.8-8.8
		c0,0,13.5,3.6,9.2,18.7L40.6,204.2z"/>
	<path fill="none" stroke="#333399" stroke-width="3" stroke-miterlimit="10" d="M26.3,263.8c0,0-4.3,11.6,10.1,16.6
		c0,0,11.3,4.3,15.9-8.4L26.3,263.8z"/>
	<polygon fill="none" stroke="#333399" stroke-width="3" stroke-miterlimit="10" points="30.8,202 27.4,212.7 77.3,228.5 
		79.5,217.1 	"/>
	<polygon fill="none" stroke="#333399" stroke-width="3" stroke-miterlimit="10" points="29.2,214.1 7.3,257.5 71.5,276.8 
		75.5,228.2 	"/>
</g>
<line fill="none" stroke="#333399" stroke-width="3" stroke-miterlimit="10" x1="477.9" y1="166.5" x2="519.4" y2="166.5"/>
<line fill="none" stroke="#333399" stroke-width="3" stroke-miterlimit="10" x1="524.4" y1="166.5" x2="529.9" y2="166.5"/>
<line fill="none" stroke="#333399" stroke-width="3" stroke-miterlimit="10" x1="538.4" y1="166.5" x2="545.9" y2="166.5"/>
<line fill="none" stroke="#333399" stroke-width="3" stroke-miterlimit="10" x1="622.4" y1="196.5" x2="711.3" y2="196.5"/>
<line fill="none" stroke="#333399" stroke-width="3" stroke-miterlimit="10" x1="625.9" y1="297.5" x2="670.4" y2="297.5"/>
<line fill="none" stroke="#333399" stroke-width="3" stroke-miterlimit="10" x1="675.9" y1="297.5" x2="701.9" y2="297.5"/>
<line fill="none" stroke="#333399" stroke-width="3" stroke-miterlimit="10" x1="751.9" y1="244.5" x2="759.9" y2="244.5"/>
<line fill="none" stroke="#333399" stroke-width="3" stroke-miterlimit="10" x1="764.4" y1="244.5" x2="770.4" y2="244.5"/>
<line fill="none" stroke="#333399" stroke-width="3" stroke-miterlimit="10" x1="777.4" y1="244.5" x2="845.4" y2="244.5"/>
<line fill="none" stroke="#333399" stroke-width="3" stroke-miterlimit="10" x1="549.5" y1="1.5" x2="592" y2="1.5"/>
<line fill="none" stroke="#333399" stroke-width="3" stroke-miterlimit="10" x1="597.5" y1="1.5" x2="602.7" y2="1.5"/>
<line fill="none" stroke="#333399" stroke-width="3" stroke-miterlimit="10" x1="606.2" y1="1.5" x2="612.9" y2="1.5"/>
<circle fill="none" stroke="#333399" stroke-width="3" stroke-miterlimit="10" cx="436.8" cy="95.6" r="61.8"/>
<circle fill="none" stroke="#333399" stroke-width="3" stroke-miterlimit="10" cx="436.8" cy="95.6" r="52.5"/>
<g>
	<circle fill="#C9BB9E" stroke="#333399" stroke-miterlimit="10" cx="436.1" cy="49.6" r="1.6"/>
	<circle fill="#C9BB9E" stroke="#333399" stroke-miterlimit="10" cx="425.7" cy="50.8" r="1.6"/>
	<circle fill="#C9BB9E" stroke="#333399" stroke-miterlimit="10" cx="415.9" cy="54.4" r="1.6"/>
	<circle fill="#C9BB9E" stroke="#333399" stroke-miterlimit="10" cx="407.1" cy="60.2" r="1.6"/>
	<circle fill="#C9BB9E" stroke="#333399" stroke-miterlimit="10" cx="399.9" cy="67.8" r="1.6"/>
	<circle fill="#C9BB9E" stroke="#333399" stroke-miterlimit="10" cx="394.7" cy="76.9" r="1.6"/>
	<circle fill="#C9BB9E" stroke="#333399" stroke-miterlimit="10" cx="391.7" cy="86.9" r="1.6"/>
	<circle fill="#C9BB9E" stroke="#333399" stroke-miterlimit="10" cx="391.1" cy="97.4" r="1.6"/>
	<path fill="#C9BB9E" stroke="#333399" stroke-miterlimit="10" d="M392.4,106.2c0.9-0.3,1.7,0.2,2,1.1c0.3,0.9-0.2,1.7-1.1,2
		c-0.8,0.3-1.7-0.2-2-1.1C391.1,107.3,391.6,106.4,392.4,106.2z"/>
	<path fill="#C9BB9E" stroke="#333399" stroke-miterlimit="10" d="M396.2,115.9c0.8-0.4,1.7-0.2,2.2,0.6c0.4,0.8,0.2,1.8-0.6,2.2
		c-0.8,0.4-1.8,0.2-2.2-0.6C395.2,117.4,395.5,116.4,396.2,115.9z"/>
	<circle fill="#C9BB9E" stroke="#333399" stroke-miterlimit="10" cx="403.3" cy="125.7" r="1.6"/>
	<circle fill="#C9BB9E" stroke="#333399" stroke-miterlimit="10" cx="411.3" cy="132.5" r="1.6"/>
	<path fill="#C9BB9E" stroke="#333399" stroke-miterlimit="10" d="M419.2,136.6c0.3-0.8,1.2-1.3,2.1-1c0.8,0.3,1.3,1.2,1,2.1
		c-0.3,0.8-1.2,1.3-2.1,1C419.3,138.4,418.9,137.5,419.2,136.6z"/>
	<circle fill="#C9BB9E" stroke="#333399" stroke-miterlimit="10" cx="430.9" cy="139.6" r="1.6"/>
	<path fill="#C9BB9E" stroke="#333399" stroke-miterlimit="10" d="M439.8,139.8c-0.1-0.9,0.5-1.7,1.4-1.8c0.9-0.1,1.7,0.5,1.8,1.4
		c0.1,0.9-0.5,1.7-1.4,1.8C440.7,141.3,439.9,140.7,439.8,139.8z"/>
	<path fill="#C9BB9E" stroke="#333399" stroke-miterlimit="10" d="M450.1,137.7c-0.3-0.8,0.1-1.8,1-2.1c0.8-0.3,1.8,0.1,2.1,1
		c0.3,0.8-0.1,1.8-1,2.1C451.3,139,450.4,138.6,450.1,137.7z"/>
	<path fill="#C9BB9E" stroke="#333399" stroke-miterlimit="10" d="M459.6,133.3c-0.5-0.7-0.3-1.7,0.5-2.2c0.7-0.5,1.7-0.3,2.2,0.5
		c0.5,0.7,0.3,1.7-0.5,2.2C461.1,134.3,460.1,134.1,459.6,133.3z"/>
	<path fill="#C9BB9E" stroke="#333399" stroke-miterlimit="10" d="M467.8,126.9c-0.6-0.6-0.7-1.6-0.1-2.3c0.6-0.6,1.6-0.7,2.3-0.1
		c0.6,0.6,0.7,1.6,0.1,2.3C469.5,127.5,468.5,127.5,467.8,126.9z"/>
	<path fill="#C9BB9E" stroke="#333399" stroke-miterlimit="10" d="M474.4,118.7c-0.8-0.4-1-1.4-0.6-2.2c0.4-0.8,1.4-1,2.2-0.6
		c0.8,0.4,1,1.4,0.6,2.2C476.2,118.9,475.2,119.2,474.4,118.7z"/>
	<path fill="#C9BB9E" stroke="#333399" stroke-miterlimit="10" d="M478.9,109.2c-0.9-0.3-1.3-1.1-1.1-2c0.3-0.9,1.1-1.3,2-1.1
		c0.8,0.3,1.3,1.1,1.1,2C480.6,109,479.7,109.5,478.9,109.2z"/>
	<path fill="#C9BB9E" stroke="#333399" stroke-miterlimit="10" d="M481.1,99c-0.9,0-1.6-0.8-1.5-1.7c0.1-0.9,0.8-1.6,1.7-1.5
		c0.9,0.1,1.6,0.8,1.5,1.7C482.7,98.4,482,99,481.1,99z"/>
	<path fill="#C9BB9E" stroke="#333399" stroke-miterlimit="10" d="M480.8,88.5c-0.9,0.2-1.7-0.4-1.9-1.3c-0.2-0.9,0.4-1.7,1.3-1.9
		c0.9-0.2,1.7,0.4,1.9,1.3C482.3,87.5,481.7,88.3,480.8,88.5z"/>
	<path fill="#C9BB9E" stroke="#333399" stroke-miterlimit="10" d="M478.2,78.4c-0.8,0.4-1.8,0-2.1-0.8c-0.4-0.8,0-1.8,0.8-2.1
		c0.8-0.3,1.8,0,2.1,0.8C479.4,77.1,479,78,478.2,78.4z"/>
	<path fill="#C9BB9E" stroke="#333399" stroke-miterlimit="10" d="M473.3,69.1c-0.7,0.5-1.7,0.4-2.2-0.3c-0.5-0.7-0.4-1.7,0.3-2.2
		c0.7-0.5,1.7-0.4,2.2,0.3C474.1,67.6,474,68.6,473.3,69.1z"/>
	<path fill="#C9BB9E" stroke="#333399" stroke-miterlimit="10" d="M466.4,61.2c-0.6,0.7-1.6,0.8-2.3,0.2c-0.7-0.6-0.8-1.6-0.2-2.3
		c0.6-0.7,1.6-0.8,2.3-0.2C466.8,59.5,466.9,60.5,466.4,61.2z"/>
	<path fill="#C9BB9E" stroke="#333399" stroke-miterlimit="10" d="M457.8,55.1c-0.4,0.8-1.4,1.1-2.2,0.7c-0.8-0.4-1.1-1.4-0.7-2.2
		c0.4-0.8,1.4-1.1,2.2-0.7C457.9,53.4,458.2,54.4,457.8,55.1z"/>
	<path fill="#C9BB9E" stroke="#333399" stroke-miterlimit="10" d="M448.1,51.2c-0.2,0.9-1.1,1.4-1.9,1.2c-0.9-0.2-1.4-1.1-1.2-1.9
		c0.2-0.9,1.1-1.4,1.9-1.2C447.8,49.5,448.3,50.4,448.1,51.2z"/>
</g>
<line fill="none" stroke="#333399" stroke-width="3" stroke-miterlimit="10" x1="420.6" y1="110.6" x2="436.8" y2="94.4"/>
<line fill="none" stroke="#333399" stroke-width="3" stroke-miterlimit="10" x1="436.8" y1="94.9" x2="436.8" y2="60.2"/>
<g>
	<line fill="none" stroke="#333399" stroke-width="3" stroke-miterlimit="10" x1="724.8" y1="190" x2="724.8" y2="203"/>
	<line fill="none" stroke="#333399" stroke-width="3" stroke-miterlimit="10" x1="718.1" y1="196.5" x2="731.2" y2="196.5"/>
</g>
<g>
	<line fill="none" stroke="#333399" stroke-width="3" stroke-miterlimit="10" x1="295.5" y1="150.9" x2="295.5" y2="163.9"/>
	<line fill="none" stroke="#333399" stroke-width="3" stroke-miterlimit="10" x1="288.8" y1="157.4" x2="301.9" y2="157.4"/>
</g>
<g>
	<line fill="none" stroke="#333399" stroke-width="3" stroke-miterlimit="10" x1="226.3" y1="255" x2="226.3" y2="268"/>
	<line fill="none" stroke="#333399" stroke-width="3" stroke-miterlimit="10" x1="219.6" y1="261.5" x2="232.7" y2="261.5"/>
</g>
<g>
	<line fill="none" stroke="#333399" stroke-width="3" stroke-miterlimit="10" x1="144.5" y1="304.5" x2="144.5" y2="317.5"/>
	<line fill="none" stroke="#333399" stroke-width="3" stroke-miterlimit="10" x1="137.8" y1="311" x2="150.9" y2="311"/>
</g>
<g>
	<line fill="none" stroke="#333399" stroke-width="3" stroke-miterlimit="10" x1="740" y1="238" x2="740" y2="251"/>
	<line fill="none" stroke="#333399" stroke-width="3" stroke-miterlimit="10" x1="733.3" y1="244.5" x2="746.4" y2="244.5"/>
</g>
<rect x="811.4" y="29.8" fill="none" stroke="#333399" stroke-width="3" stroke-miterlimit="10" width="11.5" height="10.5"/>
<rect x="554.5" y="80.4" transform="matrix(0.7071 -0.7071 0.7071 0.7071 103.4814 421.0548)" fill="none" stroke="#333399" stroke-width="3" stroke-miterlimit="10" width="10.9" height="10.5"/>
<rect x="459.7" y="12.3" transform="matrix(0.7071 -0.7071 0.7071 0.7071 123.8601 334.0348)" fill="none" stroke="#333399" stroke-width="3" stroke-miterlimit="10" width="10.9" height="10.5"/>
<rect x="712.6" y="292.3" transform="matrix(0.7071 -0.7071 0.7071 0.7071 -4.660219e-002 594.9086)" fill="none" stroke="#333399" stroke-width="3" stroke-miterlimit="10" width="10.9" height="10.5"/>
<path fill="none" stroke="#333399" stroke-width="3" stroke-miterlimit="10" d="M803.6,361.8c0,7.2-5.9,13.1-13.1,13.1l0,0
	c-7.2,0-13.1-5.9-13.1-13.1v-71.8c0-7.2,5.9-13.1,13.1-13.1l0,0c7.2,0,13.1,5.9,13.1,13.1V361.8z"/>
<rect x="741" y="364.3" fill="#AA958A" stroke="#333399" stroke-width="3" stroke-miterlimit="10" width="104.7" height="17.3"/>
<polygon fill="#C9BB9E" stroke="#333399" stroke-width="3" stroke-miterlimit="10" points="825.6,444.2 764.4,444.2 751.9,382.2 
	834.9,382.2 "/>
<path fill="none" stroke="#333399" stroke-width="3" stroke-miterlimit="10" d="M764,326.3v-26.6c0-5.4-4.3-9.7-9.7-9.7l0,0
	c-5.4,0-9.7,4.3-9.7,9.7v26.6c0,0,1,34.1,32.9,34.1v-18.2C777.4,342.1,764,339.3,764,326.3z"/>
<path fill="none" stroke="#333399" stroke-width="3" stroke-miterlimit="10" d="M816.1,310.6v-24.8c0-5,4-9,9-9l0,0c5,0,9,4,9,9
	v24.8c0,0-0.9,31.8-30.6,31.8v-17C803.6,325.4,816.1,322.8,816.1,310.6z"/>
<line fill="none" stroke="#333399" stroke-width="3" stroke-miterlimit="10" x1="860.6" y1="455.2" x2="878.1" y2="455.2"/>
<line fill="none" stroke="#333399" stroke-width="3" stroke-miterlimit="10" x1="20.6" y1="455.2" x2="0" y2="455.2"/>
<polygon fill="#62A39E" stroke="#333399" stroke-width="3" stroke-miterlimit="10" points="248.4,436.4 212.6,436.1 197.6,381.1 
	264.2,381.1 "/>
<rect x="208.3" y="436.4" fill="#727276" stroke="#333399" stroke-width="3" stroke-miterlimit="10" width="44.6" height="11.8"/>
<path fill="none" stroke="#333399" stroke-width="3" stroke-miterlimit="10" d="M243.5,355.1h-31.1c-2.1,0-3.9-1.7-3.9-3.9l0,0
	c0-2.1,1.7-3.9,3.9-3.9h13.1"/>
<path fill="none" stroke="#333399" stroke-width="3" stroke-miterlimit="10" d="M231.5,347.4h12c2.1,0,3.9-1.7,3.9-3.9l0,0
	c0-2.1-1.7-3.9-3.9-3.9h-31.1c-2.1,0-3.9-1.7-3.9-3.9l0,0c0-2.1,1.7-3.9,3.9-3.9h41"/>
<path fill="none" stroke="#333399" stroke-width="3" stroke-miterlimit="10" d="M243.5,355.1c2.1,0,3.9,1.7,3.9,3.9l0,0
	c0,2.1-1.7,3.9-3.9,3.9H231c0,0-7.3-0.6-7.3,6v5.4"/>
<line fill="none" stroke="#333399" stroke-width="3" stroke-miterlimit="10" x1="243" y1="350.6" x2="243" y2="350.6"/>
<path fill="none" stroke="#333399" stroke-width="3" stroke-miterlimit="10" d="M207.3,419.8L207.3,419.8c-6.5,1.8-13.1-2-14.9-8.4
	l-1.8-6.4c-1.8-6.5,2-13.1,8.4-14.9l0,0"/>
<g>
	<line fill="#C9BB9E" stroke="#333399" stroke-width="3" stroke-miterlimit="10" x1="612.1" y1="371" x2="638.5" y2="397.4"/>
	<g>
		<path fill="#C9BB9E" stroke="#333399" stroke-width="3" stroke-miterlimit="10" d="M590.1,445.7c-3.1,3.1-8.1,3.3-11,0.3
			l-15.7-15.7c-3-3-2.8-7.9,0.3-11l56.1-56.1c3.1-3.1,8.1-3.3,11-0.3l15.7,15.7c3,3,2.8,7.9-0.3,11L590.1,445.7z"/>
		<line fill="#C9BB9E" stroke="#333399" stroke-width="3" stroke-miterlimit="10" x1="598.9" y1="384.2" x2="625.3" y2="410.6"/>
		<line fill="#C9BB9E" stroke="#333399" stroke-width="3" stroke-miterlimit="10" x1="585.9" y1="397.2" x2="612.3" y2="423.6"/>
		<line fill="#C9BB9E" stroke="#333399" stroke-width="3" stroke-miterlimit="10" x1="572.7" y1="410.4" x2="599.1" y2="436.8"/>
	</g>
</g>
<g>
	<line fill="#789E6A" stroke="#333399" stroke-width="3" stroke-miterlimit="10" x1="635.6" y1="410.9" x2="635.6" y2="448.3"/>
	<g>
		<path fill="#789E6A" stroke="#333399" stroke-width="3" stroke-miterlimit="10" d="M567.3,448.3c-4.4,0-8-3.4-8-7.6v-22.1
			c0-4.2,3.6-7.6,8-7.6h79.3c4.4,0,8,3.4,8,7.6v22.1c0,4.2-3.6,7.6-8,7.6H567.3z"/>
		<line fill="#789E6A" stroke="#333399" stroke-width="3" stroke-miterlimit="10" x1="616.9" y1="410.9" x2="616.9" y2="448.3"/>
		<line fill="#789E6A" stroke="#333399" stroke-width="3" stroke-miterlimit="10" x1="598.6" y1="410.9" x2="598.6" y2="448.3"/>
		<line fill="#789E6A" stroke="#333399" stroke-width="3" stroke-miterlimit="10" x1="579.9" y1="410.9" x2="579.9" y2="448.3"/>
	</g>
</g>
<polygon fill="#C9BB9E" stroke="#333399" stroke-width="3" stroke-miterlimit="10" points="282.3,191.1 329.9,191.1 329.9,241.8 
	295.5,241.8 282.3,228.6 "/>
<polygon fill="#AA958A" stroke="#333399" stroke-width="3" stroke-miterlimit="10" points="319,191.1 366.6,191.1 366.6,241.8 
	332.2,241.8 319,228.6 "/>
<line fill="none" stroke="#333399" stroke-width="3" stroke-miterlimit="10" x1="294.8" y1="203.3" x2="319" y2="203.3"/>
<line fill="none" stroke="#333399" stroke-width="3" stroke-miterlimit="10" x1="294.8" y1="212.2" x2="319" y2="212.2"/>
<line fill="none" stroke="#333399" stroke-width="3" stroke-miterlimit="10" x1="295.5" y1="220.3" x2="309.4" y2="220.3"/>
<line fill="none" stroke="#333399" stroke-width="3" stroke-miterlimit="10" x1="329.9" y1="203.3" x2="354.1" y2="203.3"/>
<line fill="none" stroke="#333399" stroke-width="3" stroke-miterlimit="10" x1="329.9" y1="212.2" x2="354.1" y2="212.2"/>
<line fill="none" stroke="#333399" stroke-width="3" stroke-miterlimit="10" x1="330.6" y1="220.3" x2="344.6" y2="220.3"/>
<polyline fill="none" stroke="#333399" stroke-width="3" stroke-miterlimit="10" points="282.3,228.6 295.5,228.6 295.5,241.8 "/>
<polyline fill="none" stroke="#333399" stroke-width="3" stroke-miterlimit="10" points="319,228.6 332.2,228.6 332.2,241.8 "/>
<line fill="none" stroke="#333399" stroke-width="3" stroke-miterlimit="10" x1="258.2" y1="364.8" x2="612.1" y2="364.8"/>
<polygon fill="#D7D9DD" stroke="#333399" stroke-width="3" stroke-miterlimit="10" points="499.1,401.6 511.7,433.2 525.6,433.2 
	525.6,446.6 345,446.6 345,433.2 359.6,433.2 371.7,401.6 "/>
<line fill="none" stroke="#333399" stroke-width="3" stroke-miterlimit="10" x1="359.6" y1="433.2" x2="415.6" y2="433.2"/>
<line fill="none" stroke="#333399" stroke-width="3" stroke-miterlimit="10" x1="489.6" y1="433.2" x2="514.3" y2="433.2"/>
<g>
	<path fill="#737373" stroke="#333399" stroke-miterlimit="10" d="M759.9,433.2c0,8.3-6.7,15-15,15h-69.2c-8.3,0-15-6.7-15-15v-30
		c0-8.3,6.7-15,15-15h69.2c8.3,0,15,6.7,15,15V433.2z"/>
	<path fill="#C3C4CA" stroke="#333399" stroke-miterlimit="10" d="M751.9,430.1c0,6.7-5.8,12.1-13,12.1h-59.9c-7.2,0-13-5.4-13-12.1
		v-24.2c0-6.7,5.8-12.1,13-12.1H739c7.2,0,13,5.4,13,12.1V430.1z"/>
	<ellipse fill="#C3C4CA" stroke="#333399" stroke-miterlimit="10" cx="755.9" cy="416" rx="1.6" ry="5.1"/>
</g>
<g>
	<rect x="286.4" y="406.9" fill="#5C5B5F" stroke="#333399" stroke-width="3" stroke-miterlimit="10" width="19.5" height="36.8"/>
	<polygon fill="#F7F7F8" stroke="#333399" stroke-width="3" stroke-miterlimit="10" points="286.4,391.5 296.1,377.4 305.9,392.3 
		301.3,406.9 292,406.9 	"/>
	<line fill="none" stroke="#333399" stroke-width="3" stroke-miterlimit="10" x1="296.1" y1="392.1" x2="296.1" y2="377.4"/>
	<path fill="none" stroke="#333399" stroke-width="3" stroke-miterlimit="10" d="M299.8,394.6c0,1.9-1.6,3.5-3.5,3.5l0,0
		c-1.9,0-3.5-1.6-3.5-3.5l0,0c0-1.9,1.6-3.5,3.5-3.5l0,0C298.2,391.1,299.8,392.6,299.8,394.6L299.8,394.6z"/>
	<polygon fill="#C9BB9E" stroke="#333399" stroke-width="3" stroke-miterlimit="10" points="368.6,423.7 334,375.6 321.8,384.7 
		349.4,423.7 	"/>
	<line fill="none" stroke="#333399" stroke-width="3" stroke-miterlimit="10" x1="335.5" y1="388.8" x2="340" y2="385.9"/>
	<line fill="none" stroke="#333399" stroke-width="3" stroke-miterlimit="10" x1="341.9" y1="394.6" x2="345.9" y2="392.1"/>
	<line fill="none" stroke="#333399" stroke-width="3" stroke-miterlimit="10" x1="346.8" y1="402.8" x2="350.3" y2="400.5"/>
	<line fill="none" stroke="#333399" stroke-width="3" stroke-miterlimit="10" x1="352.6" y1="409.8" x2="356.9" y2="407.5"/>
	<path fill="#9B999E" stroke="#333399" stroke-width="3" stroke-miterlimit="10" d="M378.9,435.6c0,6-5.4,10.9-12.1,10.9h-72.8
		c-6.7,0-12.1-4.9-12.1-10.9l0,0c0-6,5.4-10.9,12.1-10.9h72.8C373.5,424.7,378.9,429.6,378.9,435.6L378.9,435.6z"/>
</g>
<g>
	<g>
		<g id="XMLID_1_">
			<g>
				<path fill="#C3C4CA" d="M596.6,427.5v12.7c0,4.4-3.4,8-7.6,8h-22.1c-4.2,0-7.6-3.6-7.6-8v-12.7H596.6z"/>
				<rect x="559.3" y="408.8" fill="#62A39E" width="37.3" height="18.7"/>
				<rect x="559.3" y="390.5" fill="#62A39E" width="37.3" height="18.3"/>
				<rect x="559.3" y="371.8" fill="#62A39E" width="37.3" height="18.7"/>
				<path fill="#62A39E" d="M596.6,360.8v11h-37.3v-11c0-4.4,3.4-8,7.6-8H589C593.2,352.8,596.6,356.4,596.6,360.8z"/>
			</g>
			<g>
				<path fill="none" stroke="#333399" stroke-width="3" stroke-miterlimit="10" d="M596.6,427.5v12.7c0,4.4-3.4,8-7.6,8h-22.1
					c-4.2,0-7.6-3.6-7.6-8v-12.7v-18.7v-18.3v-18.7v-11c0-4.4,3.4-8,7.6-8H589c4.2,0,7.6,3.6,7.6,8v11v18.7v18.3V427.5z"/>
				<line fill="none" stroke="#333399" stroke-width="3" stroke-miterlimit="10" x1="559.3" y1="390.5" x2="596.6" y2="390.5"/>
				<line fill="none" stroke="#333399" stroke-width="3" stroke-miterlimit="10" x1="559.3" y1="408.8" x2="596.6" y2="408.8"/>
				<line fill="none" stroke="#333399" stroke-width="3" stroke-miterlimit="10" x1="559.3" y1="427.5" x2="596.6" y2="427.5"/>
			</g>
		</g>
	</g>
	<path fill="none" stroke="#333399" stroke-width="3" stroke-miterlimit="10" d="M582.3,437.1c0,2.6-2.1,4.6-4.6,4.6l0,0
		c-2.6,0-4.6-2.1-4.6-4.6l0,0c0-2.6,2.1-4.6,4.6-4.6l0,0C580.2,432.5,582.3,434.6,582.3,437.1L582.3,437.1z"/>
</g>
<rect x="572.9" y="143.5" fill="#AFAEB4" stroke="#333399" stroke-width="3" stroke-miterlimit="10" width="258" height="18"/>
<circle fill="#AFAEB4" stroke="#333399" stroke-width="3" stroke-miterlimit="10" cx="436.8" cy="94.9" r="5.2"/>
<polygon fill="#C9BB9E" stroke="#333399" stroke-width="3" stroke-miterlimit="10" points="110.8,445.5 74.2,445.5 68.1,387.1 
	116.9,387.1 "/>
<polygon fill="#AA958A" stroke="#333399" stroke-miterlimit="10" points="72.6,359.6 71.2,347 79.8,355.2 "/>
<polygon fill="#AA958A" stroke="#333399" stroke-miterlimit="10" points="91.7,348.8 96.7,337.1 100.1,348.5 "/>
<polygon fill="#AA958A" stroke="#333399" stroke-miterlimit="10" points="107.1,360.8 112.4,349.2 115.5,360.8 "/>
<rect x="77.5" y="356.4" transform="matrix(0.888 -0.4599 0.4599 0.888 -160.0872 78.8345)" fill="none" stroke="#333399" stroke-width="2" stroke-miterlimit="10" width="8.5" height="23.3"/>
<rect x="91.3" y="349" fill="none" stroke="#333399" stroke-width="2" stroke-miterlimit="10" width="9.2" height="27.4"/>
<rect x="106.4" y="360.7" fill="none" stroke="#333399" stroke-width="2" stroke-miterlimit="10" width="9.1" height="16.8"/>
<rect x="62.8" y="376.4" fill="#AA958A" stroke="#333399" stroke-width="3" stroke-miterlimit="10" width="59.7" height="10.6"/>
<line fill="none" stroke="#333399" stroke-width="3" stroke-miterlimit="10" x1="599" y1="49.4" x2="634" y2="49.4"/>
<line fill="none" stroke="#333399" stroke-width="3" stroke-miterlimit="10" x1="599.3" y1="59.5" x2="633.1" y2="59.5"/>
<line fill="none" stroke="#333399" stroke-width="3" stroke-miterlimit="10" x1="641.8" y1="35.3" x2="660.3" y2="35.3"/>
<line fill="none" stroke="#333399" stroke-width="3" stroke-miterlimit="10" x1="641.5" y1="46" x2="660.3" y2="46"/>
<rect x="673.4" y="43.4" fill="none" stroke="#333399" stroke-width="3" stroke-miterlimit="10" width="12.7" height="11.3"/>
<rect x="708.1" y="40.9" fill="#333399" width="5.6" height="5.6"/>
<rect x="708.1" y="48.2" fill="#333399" width="5.6" height="5.6"/>
<rect x="708.1" y="55.5" fill="#333399" width="5.6" height="5.6"/>
<rect x="134.9" y="66.7" fill="#BADBD8" stroke="#333399" stroke-width="3" stroke-miterlimit="10" width="106.4" height="132.6"/>
<g>
	<line fill="none" stroke="#333399" stroke-width="3" stroke-miterlimit="10" x1="156.8" y1="99" x2="219.6" y2="99"/>
	<line fill="none" stroke="#333399" stroke-width="3" stroke-miterlimit="10" x1="156.8" y1="113.9" x2="219.5" y2="113.9"/>
	<line fill="none" stroke="#333399" stroke-width="3" stroke-miterlimit="10" x1="156.8" y1="127.4" x2="219.5" y2="127.4"/>
	<line fill="none" stroke="#333399" stroke-width="3" stroke-miterlimit="10" x1="156.8" y1="142.1" x2="219.6" y2="142.1"/>
	<line fill="none" stroke="#333399" stroke-width="3" stroke-miterlimit="10" x1="156.8" y1="156" x2="219.5" y2="156"/>
	<line fill="none" stroke="#333399" stroke-width="3" stroke-miterlimit="10" x1="156.8" y1="170.9" x2="219.5" y2="170.9"/>
</g>
</svg>
