<svg version="1.1" class="img-responsive servicios_icono" id="servicios_icono4" 
	 xmlns="http://www.w3.org/2000/svg" xmlns:xlink="http://www.w3.org/1999/xlink" xmlns:a="http://ns.adobe.com/AdobeSVGViewerExtensions/3.0/"
	 x="0px" y="0px" width="878.3px" height="472.3px" viewBox="0 0 878.3 472.3" enable-background="new 0 0 878.3 472.3"
	 xml:space="preserve">
<defs>
</defs>
<g>
	<rect x="766.2" y="270" fill="#D7D9DD" stroke="#333399" stroke-width="3" stroke-miterlimit="10" width="50.3" height="190.9"/>
	<line fill="none" stroke="#333399" stroke-width="3" stroke-miterlimit="10" x1="756.5" y1="294.7" x2="809.2" y2="294.7"/>
	<line fill="none" stroke="#333399" stroke-width="3" stroke-miterlimit="10" x1="756.5" y1="302.7" x2="809.2" y2="302.7"/>
	<line fill="none" stroke="#333399" stroke-width="3" stroke-miterlimit="10" x1="756.5" y1="310.7" x2="809.2" y2="310.7"/>
	<line fill="none" stroke="#333399" stroke-width="3" stroke-miterlimit="10" x1="756.5" y1="318.7" x2="809.2" y2="318.7"/>
	<line fill="none" stroke="#333399" stroke-width="3" stroke-miterlimit="10" x1="756.5" y1="326.7" x2="809.2" y2="326.7"/>
	<line fill="none" stroke="#333399" stroke-width="3" stroke-miterlimit="10" x1="756.5" y1="334.7" x2="809.2" y2="334.7"/>
	<line fill="none" stroke="#333399" stroke-width="3" stroke-miterlimit="10" x1="756.5" y1="342.7" x2="809.2" y2="342.7"/>
	<line fill="none" stroke="#333399" stroke-width="3" stroke-miterlimit="10" x1="756.5" y1="350.7" x2="809.2" y2="350.7"/>
	<line fill="none" stroke="#333399" stroke-width="3" stroke-miterlimit="10" x1="756.5" y1="358.7" x2="809.2" y2="358.7"/>
	<line fill="none" stroke="#333399" stroke-width="3" stroke-miterlimit="10" x1="756.5" y1="366.7" x2="809.2" y2="366.7"/>
	<line fill="none" stroke="#333399" stroke-width="3" stroke-miterlimit="10" x1="756.5" y1="374.7" x2="809.2" y2="374.7"/>
	<line fill="none" stroke="#333399" stroke-width="3" stroke-miterlimit="10" x1="756.5" y1="382.7" x2="809.2" y2="382.7"/>
	<line fill="none" stroke="#333399" stroke-width="3" stroke-miterlimit="10" x1="756.5" y1="390.7" x2="809.2" y2="390.7"/>
	<line fill="none" stroke="#333399" stroke-width="3" stroke-miterlimit="10" x1="756.5" y1="398.7" x2="809.2" y2="398.7"/>
	<line fill="none" stroke="#333399" stroke-width="3" stroke-miterlimit="10" x1="756.5" y1="406.7" x2="809.2" y2="406.7"/>
	<line fill="none" stroke="#333399" stroke-width="3" stroke-miterlimit="10" x1="756.5" y1="414.7" x2="809.2" y2="414.7"/>
	<line fill="none" stroke="#333399" stroke-width="3" stroke-miterlimit="10" x1="756.5" y1="422.7" x2="809.2" y2="422.7"/>
	<line fill="none" stroke="#333399" stroke-width="3" stroke-miterlimit="10" x1="756.5" y1="430.7" x2="809.2" y2="430.7"/>
	<rect x="775.2" y="443.8" fill="none" stroke="#333399" stroke-width="3" stroke-miterlimit="10" width="26.7" height="16.2"/>
	<line fill="none" stroke="#333399" stroke-width="3" stroke-miterlimit="10" x1="788.5" y1="445.2" x2="788.5" y2="460.9"/>
	<rect x="664.2" y="223.1" fill="#D7D9DD" stroke="#333399" stroke-width="3" stroke-miterlimit="10" width="102" height="200.7"/>
	<rect x="687.2" y="422.7" fill="#D7D9DD" stroke="#333399" stroke-width="3" stroke-miterlimit="10" width="88" height="11.3"/>
	<rect x="656.5" y="434" fill="#D7D9DD" stroke="#333399" stroke-width="3" stroke-miterlimit="10" width="109.7" height="26.9"/>
	<line fill="none" stroke="#333399" stroke-width="3" stroke-miterlimit="10" x1="689.8" y1="223.1" x2="689.8" y2="422.7"/>
	<line fill="none" stroke="#333399" stroke-width="3" stroke-miterlimit="10" x1="738.5" y1="223.1" x2="738.5" y2="422.7"/>
	<line fill="none" stroke="#333399" stroke-width="3" stroke-miterlimit="10" x1="715.2" y1="223.1" x2="715.2" y2="422.7"/>
	<line fill="none" stroke="#333399" stroke-width="3" stroke-miterlimit="10" x1="664.2" y1="279.4" x2="766.2" y2="279.4"/>
	<line fill="none" stroke="#333399" stroke-width="3" stroke-miterlimit="10" x1="664.2" y1="340.7" x2="766.2" y2="340.7"/>
	<line fill="none" stroke="#333399" stroke-width="3" stroke-miterlimit="10" x1="664.2" y1="382.7" x2="766.2" y2="382.7"/>
	<rect x="651.8" y="206" fill="#9B999E" stroke="#333399" stroke-width="3" stroke-miterlimit="10" width="123.3" height="17.1"/>
	<rect x="667.8" y="194" fill="#D7D9DD" stroke="#333399" stroke-width="3" stroke-miterlimit="10" width="92.7" height="12"/>
	<rect x="692.8" y="443.8" fill="none" stroke="#333399" stroke-width="3" stroke-miterlimit="10" width="47.7" height="16.2"/>
	<line fill="none" stroke="#333399" stroke-width="3" stroke-miterlimit="10" x1="716.7" y1="445.2" x2="716.7" y2="460.9"/>
</g>
<g>
	<path fill="#AFAEB4" stroke="#333399" stroke-width="3" stroke-miterlimit="10" d="M479.1,408.7c0,4.4-3.6,8-8,8H133.2
		c-4.4,0-8-3.6-8-8V213.1c0-4.4,3.6-8,8-8h337.9c4.4,0,8,3.6,8,8V408.7z"/>
	
		<rect x="139.4" y="217.1" fill="#F7F7F8" stroke="#333399" stroke-width="3" stroke-miterlimit="10" width="326.2" height="153.1"/>
	<polygon fill="#D7D9DD" stroke="#333399" stroke-width="3" stroke-miterlimit="10" points="366.1,416.7 378.7,448.3 392.6,448.3 
		392.6,461.7 212,461.7 212,448.3 226.6,448.3 238.8,416.7 	"/>
</g>
<g>
	<polygon fill="#62A39E" stroke="#333399" stroke-width="3" stroke-miterlimit="10" points="116.1,448.7 80.1,448.4 64.9,393.1 
		132,393.1 	"/>
	<rect x="75.7" y="448.7" fill="#727276" stroke="#333399" stroke-width="3" stroke-miterlimit="10" width="44.9" height="11.9"/>
	<path fill="none" stroke="#333399" stroke-width="3" stroke-miterlimit="10" d="M111.2,366.9H79.9c-2.2,0-3.9-1.7-3.9-3.9l0,0
		c0-2.2,1.7-3.9,3.9-3.9h13.2"/>
	<path fill="none" stroke="#333399" stroke-width="3" stroke-miterlimit="10" d="M99.1,359.1h12.1c2.2,0,3.9-1.7,3.9-3.9l0,0
		c0-2.2-1.7-3.9-3.9-3.9H79.9c-2.2,0-3.9-1.7-3.9-3.9l0,0c0-2.2,1.7-3.9,3.9-3.9h41.2"/>
	<path fill="none" stroke="#333399" stroke-width="3" stroke-miterlimit="10" d="M111.2,366.9c2.2,0,3.9,1.7,3.9,3.9l0,0
		c0,2.2-1.7,3.9-3.9,3.9H98.6c0,0-7.4-0.6-7.4,6.1v5.5"/>
	<path fill="none" stroke="#333399" stroke-width="3" stroke-miterlimit="10" d="M74.7,432L74.7,432c-6.5,1.8-13.2-2-15-8.5
		l-1.8-6.4c-1.8-6.5,2-13.2,8.5-15l0,0"/>
</g>
<g>
	<line fill="none" stroke="#333399" stroke-width="3" stroke-miterlimit="10" x1="119.6" y1="59.6" x2="119.6" y2="72.6"/>
	<line fill="none" stroke="#333399" stroke-width="3" stroke-miterlimit="10" x1="112.9" y1="66.1" x2="126" y2="66.1"/>
</g>
<polygon fill="none" stroke="#333399" stroke-width="2" stroke-miterlimit="10" points="344.7,49.8 351.9,39 365,42.6 377.7,36.9 
	385.3,47.2 398.8,52.1 399.9,65 407.9,75.4 401.4,87.2 401.1,100.3 389.1,105.6 381.5,115.5 367.5,113 355.7,117.8 347.2,107.9 
	333.9,104.7 333.9,90.4 324.4,80.2 331.8,69 331.8,55.3 "/>
<g>
	<line fill="none" stroke="#333399" stroke-width="2" stroke-miterlimit="10" x1="366.2" y1="19.5" x2="366.2" y2="27.6"/>
	<line fill="none" stroke="#333399" stroke-width="2" stroke-miterlimit="10" x1="344.6" y1="17" x2="349.1" y2="29.5"/>
	<line fill="none" stroke="#333399" stroke-width="2" stroke-miterlimit="10" x1="329.5" y1="32.6" x2="334" y2="38.1"/>
	<line fill="none" stroke="#333399" stroke-width="2" stroke-miterlimit="10" x1="311" y1="44.5" x2="322" y2="50.9"/>
	<line fill="none" stroke="#333399" stroke-width="2" stroke-miterlimit="10" x1="309.3" y1="66.3" x2="316.5" y2="67.6"/>
	<line fill="none" stroke="#333399" stroke-width="2" stroke-miterlimit="10" x1="302" y1="87.7" x2="316.6" y2="85.1"/>
	<line fill="none" stroke="#333399" stroke-width="2" stroke-miterlimit="10" x1="314.4" y1="106.2" x2="322.1" y2="101.8"/>
	<line fill="none" stroke="#333399" stroke-width="2" stroke-miterlimit="10" x1="324.3" y1="126.2" x2="333.3" y2="115.5"/>
	<line fill="none" stroke="#333399" stroke-width="2" stroke-miterlimit="10" x1="345.8" y1="132.3" x2="348.2" y2="125.7"/>
	<line fill="none" stroke="#333399" stroke-width="2" stroke-miterlimit="10" x1="366.2" y1="141.5" x2="366.2" y2="128.6"/>
	<line fill="none" stroke="#333399" stroke-width="2" stroke-miterlimit="10" x1="386.6" y1="132.5" x2="384.4" y2="126.5"/>
	<line fill="none" stroke="#333399" stroke-width="2" stroke-miterlimit="10" x1="408" y1="126.2" x2="399" y2="115.5"/>
	<line fill="none" stroke="#333399" stroke-width="2" stroke-miterlimit="10" x1="417" y1="105.7" x2="410.3" y2="101.8"/>
	<line fill="none" stroke="#333399" stroke-width="2" stroke-miterlimit="10" x1="430.3" y1="87.7" x2="416.9" y2="85.3"/>
	<line fill="none" stroke="#333399" stroke-width="2" stroke-miterlimit="10" x1="425" y1="66" x2="416.9" y2="67.4"/>
	<line fill="none" stroke="#333399" stroke-width="2" stroke-miterlimit="10" x1="422.6" y1="43.8" x2="410.3" y2="50.9"/>
	<line fill="none" stroke="#333399" stroke-width="2" stroke-miterlimit="10" x1="403.5" y1="31.8" x2="397.7" y2="38.8"/>
	<line fill="none" stroke="#333399" stroke-width="2" stroke-miterlimit="10" x1="387.8" y1="17" x2="383.4" y2="29"/>
</g>
<line fill="none" stroke="#333399" stroke-width="2" stroke-miterlimit="10" x1="353.7" y1="96" x2="380" y2="60.8"/>
<rect x="349.1" y="60.8" fill="none" stroke="#333399" stroke-width="2" stroke-miterlimit="10" width="12.1" height="13"/>
<rect x="372.2" y="83.3" fill="none" stroke="#333399" stroke-width="2" stroke-miterlimit="10" width="11.2" height="11.5"/>
<rect x="465.1" y="429" fill="#D7D9DD" stroke="#333399" stroke-width="3" stroke-miterlimit="10" width="21" height="26.9"/>
<rect x="576.7" y="430.7" fill="#9B999E" stroke="#333399" stroke-width="3" stroke-miterlimit="10" width="125.8" height="30.2"/>
<rect x="373.6" y="366" fill="#C99F7E" stroke="#333399" stroke-width="3" stroke-miterlimit="10" width="149.9" height="21.9"/>
<polygon fill="#C4AB9B" stroke="#333399" stroke-width="3" stroke-miterlimit="10" points="490.1,461 399.6,461 383.6,389 
	505.1,389 "/>
<polygon fill="#8FDBAA" stroke="#333399" stroke-width="3" stroke-miterlimit="10" points="448,334 429.1,317.9 395.1,313.7 
	409.1,337.7 448,349 "/>
<polygon fill="#8FDBAA" stroke="#333399" stroke-width="3" stroke-miterlimit="10" points="448.6,334 467.5,317.9 501.5,313.7 
	487.5,337.7 448.6,349 "/>
<line fill="none" stroke="#333399" stroke-width="3" stroke-miterlimit="10" x1="448" y1="294.2" x2="448" y2="366"/>
<circle fill="#DDD697" stroke="#333399" stroke-width="3" stroke-miterlimit="10" cx="448.1" cy="233.5" r="60.7"/>
<circle fill="#E2DCB0" cx="448.1" cy="233.5" r="52.5"/>
<g>
	<polyline fill="none" stroke="#333399" stroke-miterlimit="10" points="195.1,311 195.1,349.1 247.4,301 278.9,301 288.7,325 
		302.5,325 319.9,268 341.9,265 	"/>
	<path fill="none" stroke="#333399" stroke-miterlimit="10" d="M183.2,282.3v7.3h23.5v-7.3c6.8-4,11.4-11.4,11.4-19.9
		c0-12.8-10.4-23.1-23.1-23.1c-12.8,0-23.1,10.4-23.1,23.1C171.8,270.9,176.4,278.3,183.2,282.3z"/>
	<rect x="182.4" y="289.6" fill="none" stroke="#333399" stroke-miterlimit="10" width="25.6" height="7.2"/>
	<path fill="none" stroke="#333399" stroke-width="2" stroke-miterlimit="10" d="M201.2,297.7v8c0,0,0.1,5.4-5.8,5.4
		c0,0-6.7,0.4-6.7-6.3v-7.1H201.2z"/>
	<line fill="none" stroke="#333399" stroke-width="2" stroke-miterlimit="10" x1="194.4" y1="301.9" x2="188.7" y2="301.9"/>
	<g>
		<line fill="none" stroke="#333399" stroke-width="3" stroke-miterlimit="10" x1="214.8" y1="285.8" x2="212.4" y2="282.9"/>
		<line fill="none" stroke="#333399" stroke-width="3" stroke-miterlimit="10" x1="224.8" y1="279.4" x2="218.9" y2="276"/>
		<line fill="none" stroke="#333399" stroke-width="3" stroke-miterlimit="10" x1="225.7" y1="267.6" x2="221.8" y2="267"/>
		<line fill="none" stroke="#333399" stroke-width="3" stroke-miterlimit="10" x1="229.6" y1="256.1" x2="221.8" y2="257.5"/>
		<line fill="none" stroke="#333399" stroke-width="3" stroke-miterlimit="10" x1="223" y1="246.1" x2="218.8" y2="248.5"/>
		<line fill="none" stroke="#333399" stroke-width="3" stroke-miterlimit="10" x1="217.6" y1="235.3" x2="212.8" y2="241.1"/>
		<line fill="none" stroke="#333399" stroke-width="3" stroke-miterlimit="10" x1="206" y1="232.1" x2="204.7" y2="235.6"/>
		<line fill="none" stroke="#333399" stroke-width="3" stroke-miterlimit="10" x1="195" y1="227.1" x2="195" y2="234"/>
		<line fill="none" stroke="#333399" stroke-width="3" stroke-miterlimit="10" x1="184" y1="231.9" x2="185.2" y2="235.2"/>
		<line fill="none" stroke="#333399" stroke-width="3" stroke-miterlimit="10" x1="172.5" y1="235.3" x2="177.3" y2="241.1"/>
		<line fill="none" stroke="#333399" stroke-width="3" stroke-miterlimit="10" x1="167.6" y1="246.4" x2="171.2" y2="248.5"/>
		<line fill="none" stroke="#333399" stroke-width="3" stroke-miterlimit="10" x1="160.4" y1="256.1" x2="167.7" y2="257.4"/>
		<line fill="none" stroke="#333399" stroke-width="3" stroke-miterlimit="10" x1="163.3" y1="267.8" x2="167.7" y2="267.1"/>
		<line fill="none" stroke="#333399" stroke-width="3" stroke-miterlimit="10" x1="164.6" y1="279.8" x2="171.2" y2="276"/>
		<line fill="none" stroke="#333399" stroke-width="3" stroke-miterlimit="10" x1="174.9" y1="286.3" x2="178.1" y2="282.5"/>
	</g>
</g>
<g>
	<line fill="none" stroke="#333399" stroke-width="2" stroke-miterlimit="10" x1="448.6" y1="154" x2="448.6" y2="165"/>
	<line fill="none" stroke="#333399" stroke-width="2" stroke-miterlimit="10" x1="419.1" y1="150.6" x2="425.3" y2="167.6"/>
	<line fill="none" stroke="#333399" stroke-width="2" stroke-miterlimit="10" x1="398.5" y1="171.9" x2="404.8" y2="179.4"/>
	<line fill="none" stroke="#333399" stroke-width="2" stroke-miterlimit="10" x1="373.3" y1="188.1" x2="388.4" y2="196.8"/>
	<line fill="none" stroke="#333399" stroke-width="2" stroke-miterlimit="10" x1="371" y1="217.9" x2="380.8" y2="219.7"/>
	<line fill="none" stroke="#333399" stroke-width="2" stroke-miterlimit="10" x1="361.1" y1="247.1" x2="381" y2="243.5"/>
	<line fill="none" stroke="#333399" stroke-width="2" stroke-miterlimit="10" x1="377.9" y1="272.4" x2="388.4" y2="266.4"/>
	<line fill="none" stroke="#333399" stroke-width="2" stroke-miterlimit="10" x1="391.5" y1="299.7" x2="403.7" y2="285.1"/>
	<line fill="none" stroke="#333399" stroke-width="2" stroke-miterlimit="10" x1="420.8" y1="308" x2="424.1" y2="299"/>
	<line fill="none" stroke="#333399" stroke-width="2" stroke-miterlimit="10" x1="448.6" y1="320.5" x2="448.6" y2="303"/>
	<line fill="none" stroke="#333399" stroke-width="2" stroke-miterlimit="10" x1="476.5" y1="308.3" x2="473.5" y2="300.1"/>
	<line fill="none" stroke="#333399" stroke-width="2" stroke-miterlimit="10" x1="505.8" y1="299.7" x2="493.5" y2="285.1"/>
	<line fill="none" stroke="#333399" stroke-width="2" stroke-miterlimit="10" x1="518.1" y1="271.7" x2="508.8" y2="266.4"/>
	<line fill="none" stroke="#333399" stroke-width="2" stroke-miterlimit="10" x1="536.2" y1="247" x2="517.8" y2="243.8"/>
	<line fill="none" stroke="#333399" stroke-width="2" stroke-miterlimit="10" x1="528.9" y1="217.5" x2="517.8" y2="219.4"/>
	<line fill="none" stroke="#333399" stroke-width="2" stroke-miterlimit="10" x1="525.6" y1="187.2" x2="508.8" y2="196.8"/>
	<line fill="none" stroke="#333399" stroke-width="2" stroke-miterlimit="10" x1="499.6" y1="170.8" x2="491.6" y2="180.4"/>
	<line fill="none" stroke="#333399" stroke-width="2" stroke-miterlimit="10" x1="478.1" y1="150.6" x2="472.1" y2="167"/>
</g>
<rect x="191" y="343.5" fill="#C99F7E" width="8.1" height="8.6"/>
<g>
	<g>
		<line fill="none" stroke="#AFAEB4" stroke-miterlimit="10" x1="246.6" y1="270" x2="246.6" y2="276"/>
		
			<line fill="none" stroke="#AFAEB4" stroke-miterlimit="10" stroke-dasharray="13.8503,13.8503" x1="246.6" y1="289.9" x2="246.6" y2="338.3"/>
		<line fill="none" stroke="#AFAEB4" stroke-miterlimit="10" x1="246.6" y1="345.3" x2="246.6" y2="351.3"/>
	</g>
</g>
<g>
	<g>
		<line fill="none" stroke="#AFAEB4" stroke-miterlimit="10" x1="288.4" y1="293.9" x2="288.4" y2="299.9"/>
		
			<line fill="none" stroke="#AFAEB4" stroke-miterlimit="10" stroke-dasharray="15.1196,15.1196" x1="288.4" y1="315" x2="288.4" y2="337.7"/>
		<line fill="none" stroke="#AFAEB4" stroke-miterlimit="10" x1="288.4" y1="345.3" x2="288.4" y2="351.3"/>
	</g>
</g>
<g>
	<g>
		<line fill="none" stroke="#AFAEB4" stroke-miterlimit="10" x1="320" y1="249" x2="320" y2="255"/>
		
			<line fill="none" stroke="#AFAEB4" stroke-miterlimit="10" stroke-dasharray="12.8886,12.8886" x1="320" y1="267.9" x2="320" y2="338.8"/>
		<line fill="none" stroke="#AFAEB4" stroke-miterlimit="10" x1="320" y1="345.3" x2="320" y2="351.3"/>
	</g>
</g>
<g>
	<g>
		<line fill="none" stroke="#AFAEB4" stroke-miterlimit="10" x1="341.9" y1="233.5" x2="341.9" y2="239.5"/>
		
			<line fill="none" stroke="#AFAEB4" stroke-miterlimit="10" stroke-dasharray="11.7502,11.7502" x1="341.9" y1="251.3" x2="341.9" y2="339.4"/>
		<line fill="none" stroke="#AFAEB4" stroke-miterlimit="10" x1="341.9" y1="345.3" x2="341.9" y2="351.3"/>
	</g>
</g>
<polygon fill="none" stroke="#333399" stroke-width="2" stroke-miterlimit="10" points="524.3,325.7 524.3,356.5 545.7,356.5 
	556.3,365.7 565.6,356.5 586.7,356.5 586.7,325.7 "/>
<rect x="528.7" y="415.8" fill="#D7D9DD" stroke="#333399" stroke-width="3" stroke-miterlimit="10" width="23.7" height="45.2"/>
<rect x="495.1" y="399.2" fill="#D7D9DD" stroke="#333399" stroke-width="3" stroke-miterlimit="10" width="23.6" height="61.8"/>
<rect x="242.5" y="296.7" fill="#C99F7E" width="8.1" height="8.6"/>
<rect x="337.8" y="260.7" fill="#C99F7E" width="8.1" height="8.6"/>
<rect x="315.9" y="263.7" fill="#C99F7E" width="8.1" height="8.6"/>
<rect x="284.3" y="320.4" fill="#C99F7E" width="8.1" height="8.6"/>
<g>
	<path fill="#F7F7F8" stroke="#333399" stroke-width="3" stroke-miterlimit="10" d="M441.5,264.5v-7.3c-4.2-0.1-8.5-1.4-11-3.2
		l1.7-4.8c2.6,1.7,6.3,3.1,10.4,3.1c5.1,0,8.6-3,8.6-7.1c0-4-2.8-6.4-8.1-8.6c-7.3-2.9-11.9-6.2-11.9-12.5c0-6,4.2-10.5,10.9-11.6
		v-7.3h4.5v7c4.3,0.1,7.3,1.3,9.4,2.5l-1.8,4.8c-1.5-0.9-4.5-2.4-9.1-2.4c-5.5,0-7.6,3.3-7.6,6.2c0,3.7,2.7,5.6,8.9,8.2
		c7.4,3,11.2,6.8,11.2,13.2c0,5.7-4,11-11.4,12.2v7.5H441.5z"/>
</g>
<line fill="none" stroke="#F7F7F8" stroke-width="3" stroke-miterlimit="10" x1="745.7" y1="254" x2="753.4" y2="230.6"/>
<line fill="none" stroke="#F7F7F8" stroke-width="3" stroke-miterlimit="10" x1="749.6" y1="269" x2="756.5" y2="247"/>
<line fill="none" stroke="#F7F7F8" stroke-width="3" stroke-miterlimit="10" x1="697.1" y1="315.1" x2="704.8" y2="291.6"/>
<line fill="none" stroke="#F7F7F8" stroke-width="3" stroke-miterlimit="10" x1="700.9" y1="330.1" x2="707.9" y2="308.1"/>
<line fill="none" stroke="#F7F7F8" stroke-width="2" stroke-miterlimit="10" x1="723.1" y1="365.5" x2="729.6" y2="345.7"/>
<line fill="none" stroke="#F7F7F8" stroke-width="2" stroke-miterlimit="10" x1="726.4" y1="378.2" x2="732.2" y2="359.6"/>
<line fill="none" stroke="#F7F7F8" stroke-width="3" stroke-miterlimit="10" x1="670.9" y1="257.8" x2="678.6" y2="234.4"/>
<line fill="none" stroke="#F7F7F8" stroke-width="3" stroke-miterlimit="10" x1="674.8" y1="272.9" x2="681.7" y2="250.9"/>
<rect x="582.8" y="306.7" fill="#AFAEB4" stroke="#333399" stroke-width="3" stroke-miterlimit="10" width="113" height="12"/>
<path fill="#C3C4CA" stroke="#333399" stroke-width="3" stroke-miterlimit="10" d="M576.7,430.7c0,0,31.9-23.3,24.8-112h79.6
	c0,0-11.3,76,21.3,112H576.7z"/>
<polygon fill="#9B999E" stroke="#333399" stroke-width="3" stroke-miterlimit="10" points="678.6,243.4 678.6,260.5 651.1,260.5 
	651.1,243.4 629.6,243.4 629.6,260.5 602.1,260.5 602.1,243.4 582.8,243.4 582.8,306.7 695.8,306.7 695.8,243.4 "/>
<line fill="none" stroke="#333399" stroke-width="3" stroke-miterlimit="10" x1="704.4" y1="194" x2="704.4" y2="175.6"/>
<line fill="none" stroke="#333399" stroke-width="3" stroke-miterlimit="10" x1="722.3" y1="194" x2="722.3" y2="165"/>
<line fill="none" stroke="#333399" stroke-width="3" stroke-miterlimit="10" x1="791.3" y1="271.3" x2="791.3" y2="242.3"/>
<rect x="555.2" y="380.6" fill="#D7D9DD" stroke="#333399" stroke-width="3" stroke-miterlimit="10" width="28.1" height="80.4"/>
<line fill="none" stroke="#333399" stroke-width="2" stroke-miterlimit="10" x1="70.6" y1="163.3" x2="136.6" y2="163.3"/>
<line fill="none" stroke="#333399" stroke-width="2" stroke-miterlimit="10" x1="23.2" y1="190.2" x2="101.2" y2="190.2"/>
<line fill="none" stroke="#333399" stroke-width="2" stroke-miterlimit="10" x1="12.6" y1="190.2" x2="17.8" y2="190.2"/>
<rect x="50.1" y="158.1" fill="none" stroke="#333399" stroke-width="2" stroke-miterlimit="10" width="9.8" height="9.8"/>
<g>
	<line fill="none" stroke="#333399" stroke-width="2" stroke-miterlimit="10" x1="3.9" y1="186" x2="3.9" y2="194"/>
	<line fill="none" stroke="#333399" stroke-width="2" stroke-miterlimit="10" x1="0" y1="190" x2="8.2" y2="190"/>
</g>
<line fill="none" stroke="#333399" stroke-width="2" stroke-miterlimit="10" x1="231" y1="17.2" x2="309" y2="17.2"/>
<line fill="none" stroke="#333399" stroke-width="2" stroke-miterlimit="10" x1="220.3" y1="17.2" x2="225.5" y2="17.2"/>
<g>
	<line fill="none" stroke="#333399" stroke-width="2" stroke-miterlimit="10" x1="211.7" y1="13" x2="211.7" y2="21"/>
	<line fill="none" stroke="#333399" stroke-width="2" stroke-miterlimit="10" x1="207.7" y1="17" x2="215.9" y2="17"/>
</g>
<g>
	<polyline fill="none" stroke="#333399" stroke-width="2" stroke-miterlimit="10" points="40.3,113.9 57,113.9 57,95.1 85.6,95.1 
		85.6,102.5 109.1,102.5 109.1,115.5 	"/>
	<line fill="none" stroke="#333399" stroke-width="2" stroke-miterlimit="10" x1="85.6" y1="102.5" x2="85.6" y2="109.9"/>
</g>
<g>
	<polyline fill="none" stroke="#333399" stroke-width="2" stroke-miterlimit="10" points="677,29 693.6,29 693.6,10.2 722.3,10.2 
		722.3,17.6 745.7,17.6 745.7,30.5 	"/>
	<line fill="none" stroke="#333399" stroke-width="2" stroke-miterlimit="10" x1="722.3" y1="17.6" x2="722.3" y2="25"/>
</g>
<line fill="none" stroke="#333399" stroke-width="2" stroke-linecap="square" stroke-linejoin="round" stroke-miterlimit="10" x1="41.3" y1="471.3" x2="840.9" y2="471.3"/>
<line fill="none" stroke="#333399" stroke-width="2" stroke-linecap="square" stroke-linejoin="round" stroke-miterlimit="10" x1="851.5" y1="471.3" x2="877.3" y2="471.3"/>
<line fill="none" stroke="#333399" stroke-width="2" stroke-linecap="square" stroke-linejoin="round" stroke-miterlimit="10" x1="16.5" y1="471.3" x2="30" y2="471.3"/>
<line fill="none" stroke="#333399" stroke-width="2" stroke-miterlimit="10" x1="248.5" y1="142.8" x2="268.5" y2="142.8"/>
<g>
	<polygon fill="none" stroke="#333399" stroke-width="2" stroke-miterlimit="10" points="196.8,105 262.5,105 262.5,91 246.5,91 
		246.5,81.6 228.8,81.6 228.8,74 203.8,74 203.8,95 196.8,95 	"/>
	<line fill="none" stroke="#333399" stroke-width="2" stroke-miterlimit="10" x1="228.8" y1="92.7" x2="228.8" y2="79.2"/>
	<line fill="none" stroke="#333399" stroke-width="2" stroke-miterlimit="10" x1="246.5" y1="86.6" x2="246.5" y2="96.1"/>
	<line fill="none" stroke="#333399" stroke-width="2" stroke-miterlimit="10" x1="202.3" y1="95" x2="209" y2="95"/>
</g>
<g>
	<polygon fill="#F7F7F8" stroke="#333399" stroke-width="3" stroke-miterlimit="10" points="80.2,216 158.7,216 158.7,199.3 
		139.6,199.3 139.6,188 118.5,188 118.5,179 88.6,179 88.6,204.1 80.2,204.1 	"/>
	<line fill="#F7F7F8" stroke="#333399" stroke-width="3" stroke-miterlimit="10" x1="118.5" y1="201.4" x2="118.5" y2="185.2"/>
	<line fill="#F7F7F8" stroke="#333399" stroke-width="3" stroke-miterlimit="10" x1="139.6" y1="194" x2="139.6" y2="205.4"/>
	<line fill="#F7F7F8" stroke="#333399" stroke-width="3" stroke-miterlimit="10" x1="86.9" y1="204.1" x2="94.8" y2="204.1"/>
</g>
<line fill="none" stroke="#333399" stroke-width="2" stroke-miterlimit="10" x1="109.6" y1="142.8" x2="205.9" y2="142.8"/>
<rect x="278.5" y="137.6" fill="none" stroke="#333399" stroke-width="2" stroke-miterlimit="10" width="11.5" height="10.5"/>
<g>
	<polyline fill="none" stroke="#333399" stroke-width="2" stroke-miterlimit="10" points="458.3,19.4 458.3,10 479.7,10 479.7,1 
		507.3,1 507.3,19.4 523.3,19.4 	"/>
	<line fill="none" stroke="#333399" stroke-width="2" stroke-miterlimit="10" x1="479.7" y1="10" x2="479.7" y2="17"/>
</g>
<line fill="none" stroke="#333399" stroke-width="2" stroke-miterlimit="10" x1="212.2" y1="142.8" x2="220.8" y2="142.8"/>
<line fill="none" stroke="#333399" stroke-width="2" stroke-miterlimit="10" x1="227.3" y1="142.8" x2="236.9" y2="142.8"/>
<line fill="none" stroke="#333399" stroke-width="2" stroke-miterlimit="10" x1="576.9" y1="139.6" x2="576.9" y2="152.2"/>
<line fill="none" stroke="#333399" stroke-width="2" stroke-miterlimit="10" x1="570.2" y1="145.9" x2="583.3" y2="145.9"/>
<line fill="none" stroke="#333399" stroke-width="2" stroke-miterlimit="10" x1="508.7" y1="48.4" x2="508.7" y2="59.3"/>
<line fill="none" stroke="#333399" stroke-width="2" stroke-miterlimit="10" x1="503.5" y1="53.8" x2="513.5" y2="53.8"/>
<polygon fill="none" stroke="#333399" stroke-width="2" stroke-miterlimit="10" points="674.4,105.9 608.7,105.9 608.7,92.4 
	624.7,92.4 624.7,83.3 642.4,83.3 642.4,76 667.4,76 667.4,96.3 674.4,96.3 "/>
<polygon fill="none" stroke="#333399" stroke-width="2" stroke-miterlimit="10" points="141.9,37.9 76.2,37.9 76.2,24.4 92.2,24.4 
	92.2,15.3 109.9,15.3 109.9,8 134.9,8 134.9,28.3 141.9,28.3 "/>
<line fill="none" stroke="#333399" stroke-width="2" stroke-miterlimit="10" x1="642.4" y1="94.1" x2="642.4" y2="81"/>
<line fill="none" stroke="#333399" stroke-width="2" stroke-miterlimit="10" x1="624.7" y1="88.2" x2="624.7" y2="97.3"/>
<line fill="none" stroke="#333399" stroke-width="2" stroke-miterlimit="10" x1="668.8" y1="96.3" x2="662.2" y2="96.3"/>
<line fill="none" stroke="#333399" stroke-width="2" stroke-miterlimit="10" x1="551.8" y1="53.8" x2="637.3" y2="53.8"/>
<line fill="none" stroke="#333399" stroke-width="2" stroke-miterlimit="10" x1="131.9" y1="66" x2="217.4" y2="66"/>
<line fill="none" stroke="#333399" stroke-width="2" stroke-miterlimit="10" x1="467.3" y1="111.2" x2="473.8" y2="111.2"/>
<line fill="none" stroke="#333399" stroke-width="2" stroke-miterlimit="10" x1="480.3" y1="111.2" x2="483.3" y2="111.2"/>
<line fill="none" stroke="#333399" stroke-width="2" stroke-miterlimit="10" x1="490.8" y1="111.2" x2="551.8" y2="111.2"/>
<rect x="558.8" y="105.9" fill="none" stroke="#333399" stroke-width="2" stroke-miterlimit="10" width="11.5" height="10.1"/>
<line fill="none" stroke="#333399" stroke-width="2" stroke-miterlimit="10" x1="586.2" y1="145.9" x2="590.7" y2="145.9"/>
<line fill="none" stroke="#333399" stroke-width="2" stroke-miterlimit="10" x1="596.8" y1="145.9" x2="604.2" y2="145.9"/>
<line fill="none" stroke="#333399" stroke-width="2" stroke-miterlimit="10" x1="607.8" y1="145.9" x2="669.6" y2="145.9"/>
<polyline fill="none" stroke="#333399" stroke-width="2" stroke-miterlimit="10" points="678.1,145.9 691.6,145.9 691.6,131.2 
	714.8,131.2 714.8,137 733.8,137 733.8,147.2 "/>
<line fill="none" stroke="#333399" stroke-width="2" stroke-miterlimit="10" x1="714.8" y1="137" x2="714.8" y2="142.8"/>
<g>
	<polygon fill="#F7F7F8" stroke="#333399" stroke-width="3" stroke-miterlimit="10" points="549.9,260.5 615.6,260.5 615.6,247 
		599.6,247 599.6,237.8 581.9,237.8 581.9,230.6 556.9,230.6 556.9,250.8 549.9,250.8 	"/>
	<line fill="#F7F7F8" stroke="#333399" stroke-width="3" stroke-miterlimit="10" x1="581.9" y1="248.6" x2="581.9" y2="235.6"/>
	<line fill="#F7F7F8" stroke="#333399" stroke-width="3" stroke-miterlimit="10" x1="599.6" y1="242.7" x2="599.6" y2="251.9"/>
	<line fill="#F7F7F8" stroke="#333399" stroke-width="3" stroke-miterlimit="10" x1="555.5" y1="250.8" x2="562.1" y2="250.8"/>
</g>
</svg>
