<svg version="1.1" class="img-responsive-SVG servicios_icono" id="servicios_icono3" 
	 xmlns="http://www.w3.org/2000/svg" xmlns:xlink="http://www.w3.org/1999/xlink" xmlns:a="http://ns.adobe.com/AdobeSVGViewerExtensions/3.0/"
	 x="0px" y="0px" width="826.9px" height="449.3px" viewBox="0 0 826.9 449.3" enable-background="new 0 0 826.9 449.3"
	 xml:space="preserve" preserveAspectRatio="xMinYMin" >
<defs>
</defs>
<g>
	
		<rect x="120" y="334" fill="#5C5B5F" stroke="#333399" stroke-linecap="round" stroke-linejoin="round" stroke-miterlimit="10" width="161" height="107.9"/>
	
		<rect x="123.8" y="337.7" fill="#E8929C" stroke="#333399" stroke-linecap="round" stroke-linejoin="round" stroke-miterlimit="10" width="141.7" height="88.4"/>
	<polygon fill="#EDEEF0" stroke="#333399" stroke-linecap="round" stroke-linejoin="round" stroke-miterlimit="10" points="
		184.1,366.9 209.4,381.4 184.1,396 	"/>
	<polygon fill="#EDEEF0" stroke="#333399" stroke-linecap="round" stroke-linejoin="round" stroke-miterlimit="10" points="
		129.5,432.1 134.4,434.9 129.5,437.7 	"/>
	
		<line fill="none" stroke="#C3C4CA" stroke-linecap="round" stroke-linejoin="round" stroke-miterlimit="10" x1="200.3" y1="434.5" x2="231.5" y2="434.5"/>
	
		<line fill="none" stroke="#E8929C" stroke-linecap="round" stroke-linejoin="round" stroke-miterlimit="10" x1="140.2" y1="434.5" x2="200.3" y2="434.5"/>
</g>
<path fill="#727276" stroke="#333399" stroke-width="2" stroke-miterlimit="10" d="M574.5,439.8c0,2.8-2.2,5-4.9,5H261.9
	c-2.7,0-4.9-2.2-4.9-5v-203c0-2.8,2.2-5,4.9-5h307.7c2.7,0,4.9,2.2,4.9,5V439.8z"/>
<rect x="270.5" y="245.8" fill="#C3C4CA" width="287.5" height="183"/>
<path fill="#EDEEF0" stroke="#333399" stroke-linecap="round" stroke-linejoin="round" stroke-miterlimit="10" d="M651.8,77.2H549.3
	c-2.8,0-5,2.2-5,5v10.2l-8.7,5.6l8.7,5v9.6c0,2.8,2.2,5,5,5h102.5c2.8,0,5-2.2,5-5V82.2C656.8,79.5,654.6,77.2,651.8,77.2z"/>
<path fill="#EDEEF0" stroke="#333399" stroke-linecap="round" stroke-linejoin="round" stroke-miterlimit="10" d="M182.6,155.6
	h102.5c2.8,0,5-2.2,5-5v-10.2l8.7-5.6l-8.7-5v-9.6c0-2.8-2.2-5-5-5H182.6c-2.8,0-5,2.2-5,5v30.3
	C177.6,153.3,179.9,155.6,182.6,155.6z"/>
<path fill="#EDEEF0" stroke="#333399" stroke-linecap="round" stroke-linejoin="round" stroke-miterlimit="10" d="M182.6,224.6
	h102.5c2.8,0,5-2.2,5-5v-10.2l8.7-5.6l-8.7-5v-9.6c0-2.8-2.2-5-5-5H182.6c-2.8,0-5,2.2-5,5v30.3
	C177.6,222.3,179.9,224.6,182.6,224.6z"/>
<path fill="#EDEEF0" stroke="#333399" stroke-linecap="round" stroke-linejoin="round" stroke-miterlimit="10" d="M651.8,149.7
	H549.3c-2.8,0-5,2.2-5,5v10.2l-8.7,5.6l8.7,5v9.6c0,2.8,2.2,5,5,5h102.5c2.8,0,5-2.2,5-5v-30.3C656.8,152,654.6,149.7,651.8,149.7z"
	/>
<circle fill="#F7F7F8" stroke="#333399" stroke-linecap="round" stroke-linejoin="round" stroke-miterlimit="10" cx="173.3" cy="105.1" r="31.3"/>
<line fill="none" stroke="#333399" stroke-linecap="square" stroke-linejoin="round" stroke-miterlimit="10" x1="610" y1="49.8" x2="676" y2="49.8"/>
<line fill="none" stroke="#333399" stroke-linecap="square" stroke-linejoin="round" stroke-miterlimit="10" x1="588" y1="49.8" x2="593.5" y2="49.8"/>
<line fill="none" stroke="#333399" stroke-linecap="square" stroke-linejoin="round" stroke-miterlimit="10" x1="601" y1="49.8" x2="604.5" y2="49.8"/>
<line fill="none" stroke="#333399" stroke-linecap="square" stroke-linejoin="round" stroke-miterlimit="10" x1="727.5" y1="159.2" x2="788.5" y2="159.2"/>
<line fill="none" stroke="#333399" stroke-linecap="square" stroke-linejoin="round" stroke-miterlimit="10" x1="794.5" y1="159.2" x2="799" y2="159.2"/>
<line fill="none" stroke="#333399" stroke-linecap="square" stroke-linejoin="round" stroke-miterlimit="10" x1="805" y1="159.2" x2="809.5" y2="159.2"/>
<line fill="none" stroke="#333399" stroke-linecap="square" stroke-linejoin="round" stroke-miterlimit="10" x1="725.5" y1="229.3" x2="787.5" y2="229.3"/>
<line fill="none" stroke="#333399" stroke-linecap="square" stroke-linejoin="round" stroke-miterlimit="10" x1="657" y1="257.6" x2="717.5" y2="257.6"/>
<line fill="none" stroke="#333399" stroke-linecap="square" stroke-linejoin="round" stroke-miterlimit="10" x1="726.5" y1="257.6" x2="730" y2="257.6"/>
<line fill="none" stroke="#333399" stroke-linejoin="round" stroke-miterlimit="10" x1="183" y1="28.5" x2="253" y2="28.5"/>
<line fill="none" stroke="#333399" stroke-linejoin="round" stroke-miterlimit="10" x1="229" y1="13.6" x2="293" y2="13.6"/>
<line fill="none" stroke="#333399" stroke-linejoin="round" stroke-miterlimit="10" x1="298" y1="13.6" x2="305" y2="13.6"/>
<line fill="none" stroke="#333399" stroke-linejoin="round" stroke-miterlimit="10" x1="309" y1="13.6" x2="317" y2="13.6"/>
<line fill="none" stroke="#434041" stroke-width="2" stroke-miterlimit="10" x1="601.3" y1="306.5" x2="606" y2="306.5"/>
<g>
	<path fill="#F7F7F8" d="M531.3,426.8c0,2.8-2.2,5-5,5H307.7c-2.8,0-5-2.2-5-5V90.2c0-2.8,2.2-5,5-5h218.7c2.8,0,5,2.2,5,5V426.8z"
		/>
	<g>
		<rect x="325.6" y="89.3" fill="#AAE5E3" width="180.5" height="69.9"/>
		<rect x="341.8" y="138.3" fill="#EDEEF0" stroke="#333399" stroke-width="3" stroke-miterlimit="10" width="41.3" height="41.8"/>
		<line fill="none" stroke="#333399" stroke-width="3" stroke-miterlimit="10" x1="329.7" y1="192.2" x2="389.3" y2="192.2"/>
		<line fill="none" stroke="#333399" stroke-width="3" stroke-miterlimit="10" x1="329.7" y1="202.8" x2="388" y2="202.8"/>
		<line fill="none" stroke="#333399" stroke-width="3" stroke-miterlimit="10" x1="330.2" y1="211.8" x2="370.2" y2="211.8"/>
		<rect x="404.7" y="182.6" fill="#D7D9DD" width="102.1" height="28.6"/>
		<rect x="329.4" y="243" fill="#C3C4CA" width="45.3" height="6.5"/>
		<g>
			<line fill="none" stroke="#333399" stroke-width="3" stroke-miterlimit="10" x1="433.9" y1="193.5" x2="446" y2="193.5"/>
			<line fill="none" stroke="#333399" stroke-width="3" stroke-miterlimit="10" x1="433.9" y1="201.2" x2="464.8" y2="201.2"/>
			<rect x="412" y="190.6" fill="#E8AC9C" width="15.2" height="15"/>
		</g>
		<rect x="411.8" y="280.8" fill="#EDEEF0" width="82.9" height="24.4"/>
		<g>
			<line fill="none" stroke="#333399" stroke-width="3" stroke-miterlimit="10" x1="435.5" y1="290" x2="445.3" y2="290"/>
			<line fill="none" stroke="#333399" stroke-width="3" stroke-miterlimit="10" x1="435.5" y1="296.6" x2="460.6" y2="296.6"/>
			<rect x="417.7" y="287.6" fill="#EF9C81" width="12.4" height="12.8"/>
		</g>
		<line fill="none" stroke="#333399" stroke-width="3" stroke-miterlimit="10" x1="412" y1="218.5" x2="505.6" y2="218.5"/>
		<line fill="none" stroke="#333399" stroke-width="3" stroke-miterlimit="10" x1="412" y1="223.9" x2="438" y2="223.9"/>
		<line fill="none" stroke="#EF9C81" stroke-width="3" stroke-miterlimit="10" x1="412.3" y1="231.9" x2="424.3" y2="231.9"/>
		<line fill="none" stroke="#EF9C81" stroke-width="3" stroke-miterlimit="10" x1="412.3" y1="328.6" x2="424.3" y2="328.6"/>
		<line fill="none" stroke="#333399" stroke-width="3" stroke-miterlimit="10" x1="412" y1="314.2" x2="505.6" y2="314.2"/>
		<line fill="none" stroke="#333399" stroke-width="3" stroke-miterlimit="10" x1="412" y1="319.6" x2="438" y2="319.6"/>
		<rect x="329.3" y="260" fill="#AAE5E3" width="20" height="20"/>
		<rect x="352.3" y="260" fill="#C3C4CA" width="20" height="20"/>
		<rect x="375.3" y="260" fill="#E8AC9C" width="20" height="20"/>
		<rect x="329.3" y="282.3" fill="#E8AC9C" width="20" height="20"/>
		<rect x="352.3" y="282.3" fill="#9B999E" width="20" height="20"/>
		<rect x="375.3" y="282.3" fill="#AAE5E3" width="20" height="20"/>
		<rect x="329.3" y="304.9" fill="#C3C4CA" width="20" height="20"/>
		<rect x="352.3" y="304.9" fill="#E8AC9C" width="20" height="20"/>
		<rect x="410.2" y="341.9" fill="#E8AC9C" width="95.9" height="73.7"/>
		<rect x="375.3" y="304.9" fill="#C3C4CA" width="20" height="20"/>
		<rect x="412.7" y="255.2" fill="#C3C4CA" width="94.7" height="12"/>
		<g>
			<g>
				<path fill="#EF9C81" d="M417.7,264.3c3.2,0,3.2-5,0-5S414.5,264.3,417.7,264.3L417.7,264.3z"/>
			</g>
		</g>
		<rect x="426.7" y="260.8" fill="#EDEEF0" width="73.3" height="2"/>
		<line fill="none" stroke="#333399" stroke-width="3" stroke-miterlimit="10" x1="329.1" y1="341.4" x2="394.2" y2="341.4"/>
		<line fill="none" stroke="#333399" stroke-width="3" stroke-miterlimit="10" x1="332.5" y1="355.4" x2="394.2" y2="355.4"/>
		<line fill="none" stroke="#333399" stroke-width="3" stroke-miterlimit="10" x1="370.1" y1="368.2" x2="394.2" y2="368.2"/>
		<line fill="none" stroke="#333399" stroke-width="3" stroke-miterlimit="10" x1="368.5" y1="380.5" x2="394.2" y2="380.5"/>
	</g>
	<g>
		<g>
			<path fill="#AFAEB4" d="M529.6,61.5c0,2.8-2.2,5-5,5H305.9c-2.8,0-5-2.2-5-5v-20c0-2.8,2.2-5,5-5h218.7c2.8,0,5,2.2,5,5V61.5z"/>
			<g>
				<path fill="#C3C4CA" d="M386.4,59.8c0.1-0.7,0.2-1.4,0.2-2.2c0-5.4-3.3-9.7-7.5-9.7h-27.2c-4.1,0-7.4,4.4-7.4,9.7
					c0,0.7,0.1,1.5,0.2,2.2h-43.5v11.6h228.9V59.8H386.4z"/>
				<rect x="336.3" y="63.8" fill="#F7F7F8" width="163.3" height="4.7"/>
			</g>
			<g>
				<circle fill="#333399" cx="310.7" cy="44.7" r="2.7"/>
				<circle fill="#EF9C81" cx="320.2" cy="44.7" r="2.7"/>
				<circle fill="#D7D9DD" cx="329.5" cy="44.7" r="2.7"/>
			</g>
		</g>
		<g>
			<rect x="303" y="71.9" fill="#EF9C81" width="226.2" height="16.7"/>
			<g>
				<line fill="none" stroke="#FFFFFF" stroke-width="3" stroke-miterlimit="10" x1="327.4" y1="80.5" x2="351.6" y2="80.5"/>
				<line fill="none" stroke="#FFFFFF" stroke-width="3" stroke-miterlimit="10" x1="403.8" y1="80.5" x2="428" y2="80.5"/>
				<line fill="none" stroke="#FFFFFF" stroke-width="3" stroke-miterlimit="10" x1="367.6" y1="80.5" x2="391.9" y2="80.5"/>
				<line fill="none" stroke="#FFFFFF" stroke-width="3" stroke-miterlimit="10" x1="443" y1="80.5" x2="467.3" y2="80.5"/>
				<line fill="none" stroke="#FFFFFF" stroke-width="3" stroke-miterlimit="10" x1="481.2" y1="80.5" x2="505.5" y2="80.5"/>
			</g>
		</g>
		
			<line fill="none" stroke="#333399" stroke-linecap="round" stroke-linejoin="round" stroke-miterlimit="10" x1="302" y1="71.9" x2="529.3" y2="71.9"/>
	</g>
</g>
<path fill="none" stroke="#333399" stroke-width="3" stroke-miterlimit="10" d="M530.6,427.1c0,2.8-2.2,5-5,5H307.1
	c-2.8,0-5-2.2-5-5V40.7c0-2.8,2.2-5,5-5h218.5c2.8,0,5,2.2,5,5V427.1z"/>
<g>
	<polygon fill="#EDEEF0" stroke="#333399" stroke-width="3" stroke-miterlimit="10" points="610.3,409.4 610.3,285.4 690.4,285.4 
		717.9,313.8 717.9,409.4 	"/>
	<polyline fill="#EDEEF0" stroke="#333399" stroke-width="3" stroke-miterlimit="10" points="717.9,314.5 690.4,314.5 690.4,285.4 	
		"/>
</g>
<polygon fill="#FEC2A0" stroke="#333399" stroke-width="3" stroke-miterlimit="10" points="718,354.8 733.5,362.8 733.5,441.8 
	604.5,441.8 604.5,367.8 664,402.8 718,370.3 "/>
<line fill="none" stroke="#333399" stroke-width="3" stroke-miterlimit="10" x1="717.5" y1="370.3" x2="733" y2="362.8"/>
<g>
	<line fill="none" stroke="#333399" stroke-width="3" stroke-miterlimit="10" x1="625" y1="331.8" x2="688" y2="331.8"/>
	<line fill="none" stroke="#333399" stroke-width="3" stroke-miterlimit="10" x1="625" y1="364.8" x2="688" y2="364.8"/>
	<line fill="none" stroke="#333399" stroke-width="3" stroke-miterlimit="10" x1="625" y1="349.8" x2="689" y2="349.8"/>
</g>
<line fill="none" stroke="#333399" stroke-width="2" stroke-miterlimit="10" x1="111.8" y1="244.3" x2="177.8" y2="244.3"/>
<line fill="none" stroke="#333399" stroke-width="2" stroke-miterlimit="10" x1="82.1" y1="276.1" x2="160.1" y2="276.1"/>
<line fill="none" stroke="#333399" stroke-width="2" stroke-miterlimit="10" x1="181.8" y1="244.3" x2="187" y2="244.3"/>
<line fill="none" stroke="#333399" stroke-width="2" stroke-miterlimit="10" x1="71.5" y1="276.1" x2="76.7" y2="276.1"/>
<line fill="none" stroke="#333399" stroke-width="2" stroke-miterlimit="10" x1="190.9" y1="244.3" x2="197.4" y2="244.3"/>
<rect x="91.2" y="239.1" fill="none" stroke="#333399" stroke-width="2" stroke-miterlimit="10" width="9.8" height="9.8"/>
<rect x="323.1" y="9" transform="matrix(0.7071 -0.7071 0.7071 0.7071 86.6136 235.1363)" fill="none" stroke="#333399" stroke-miterlimit="10" width="8" height="8"/>
<g>
	<line fill="none" stroke="#333399" stroke-width="2" stroke-miterlimit="10" x1="62.9" y1="272" x2="62.9" y2="279.9"/>
	<line fill="none" stroke="#333399" stroke-width="2" stroke-miterlimit="10" x1="58.9" y1="275.9" x2="67.1" y2="275.9"/>
</g>
<g>
	<line fill="none" stroke="#333399" stroke-miterlimit="10" x1="263.2" y1="26.1" x2="263.2" y2="31.2"/>
	<line fill="none" stroke="#333399" stroke-miterlimit="10" x1="260.7" y1="28.6" x2="265.8" y2="28.6"/>
</g>
<line fill="none" stroke="#333399" stroke-width="2" stroke-miterlimit="10" x1="192" y1="145.2" x2="264" y2="145.2"/>
<line fill="none" stroke="#333399" stroke-width="2" stroke-miterlimit="10" x1="202" y1="139.2" x2="262.7" y2="139.2"/>
<line fill="none" stroke="#333399" stroke-width="2" stroke-miterlimit="10" x1="213.3" y1="133.2" x2="262" y2="133.2"/>
<line fill="none" stroke="#333399" stroke-width="2" stroke-miterlimit="10" x1="184.7" y1="199.2" x2="257.3" y2="199.2"/>
<line fill="none" stroke="#333399" stroke-width="2" stroke-miterlimit="10" x1="184" y1="204.5" x2="255.3" y2="204.5"/>
<line fill="none" stroke="#333399" stroke-width="2" stroke-miterlimit="10" x1="185.3" y1="211.8" x2="233.3" y2="211.8"/>
<line fill="none" stroke="#333399" stroke-width="2" stroke-linecap="round" stroke-linejoin="round" stroke-miterlimit="10" x1="557.3" y1="85.8" x2="631.3" y2="85.8"/>
<line fill="none" stroke="#333399" stroke-width="2" stroke-linecap="round" stroke-linejoin="round" stroke-miterlimit="10" x1="557.3" y1="95.8" x2="628.7" y2="95.8"/>
<line fill="none" stroke="#333399" stroke-width="2" stroke-linecap="round" stroke-linejoin="round" stroke-miterlimit="10" x1="558.7" y1="103.8" x2="633.3" y2="103.8"/>
<line fill="none" stroke="#333399" stroke-width="2" stroke-linecap="round" stroke-linejoin="round" stroke-miterlimit="10" x1="557.3" y1="161.2" x2="636.5" y2="161.2"/>
<line fill="none" stroke="#333399" stroke-width="2" stroke-linecap="round" stroke-linejoin="round" stroke-miterlimit="10" x1="557.3" y1="171.2" x2="633.7" y2="171.2"/>
<line fill="none" stroke="#333399" stroke-width="2" stroke-linecap="round" stroke-linejoin="round" stroke-miterlimit="10" x1="558.8" y1="179.2" x2="638.7" y2="179.2"/>
<circle fill="#F7F7F8" stroke="#333399" stroke-width="2" stroke-linecap="round" stroke-linejoin="round" stroke-miterlimit="10" cx="663.3" cy="191.1" r="31.3"/>
<polygon fill="#62A39E" stroke="#333399" stroke-width="3" stroke-miterlimit="10" points="91.2,429.3 55.4,429 40.3,374 106.9,374 
	"/>
<rect x="51" y="429.3" fill="#727276" stroke="#333399" stroke-width="3" stroke-miterlimit="10" width="44.6" height="11.8"/>
<path fill="none" stroke="#333399" stroke-width="3" stroke-miterlimit="10" d="M86.2,348H55.2c-2.1,0-3.9-1.7-3.9-3.9l0,0
	c0-2.1,1.7-3.9,3.9-3.9h13.1"/>
<path fill="none" stroke="#333399" stroke-width="3" stroke-miterlimit="10" d="M74.2,340.2h12c2.1,0,3.9-1.7,3.9-3.9l0,0
	c0-2.1-1.7-3.9-3.9-3.9H55.2c-2.1,0-3.9-1.7-3.9-3.9l0,0c0-2.1,1.7-3.9,3.9-3.9h41"/>
<path fill="none" stroke="#333399" stroke-width="3" stroke-miterlimit="10" d="M86.2,348c2.1,0,3.9,1.7,3.9,3.9l0,0
	c0,2.1-1.7,3.9-3.9,3.9H73.8c0,0-7.3-0.6-7.3,6v5.4"/>
<path fill="none" stroke="#333399" stroke-width="3" stroke-miterlimit="10" d="M50,412.7L50,412.7c-6.5,1.8-13.1-2-14.9-8.4
	l-1.8-6.4c-1.8-6.5,2-13.1,8.4-14.9l0,0"/>
<g>
	<line fill="none" stroke="#333399" stroke-width="3" stroke-miterlimit="10" x1="708.5" y1="179.2" x2="702.3" y2="180.6"/>
	<line fill="none" stroke="#333399" stroke-width="3" stroke-miterlimit="10" x1="703.3" y1="160.3" x2="694" y2="167.7"/>
	<line fill="none" stroke="#333399" stroke-width="3" stroke-miterlimit="10" x1="691.8" y1="152.9" x2="688.4" y2="157.4"/>
	<line fill="none" stroke="#333399" stroke-width="3" stroke-miterlimit="10" x1="679.3" y1="140.6" x2="676.2" y2="150.3"/>
	<line fill="none" stroke="#333399" stroke-width="3" stroke-miterlimit="10" x1="661.9" y1="143.1" x2="662.2" y2="148.9"/>
	<line fill="none" stroke="#333399" stroke-width="3" stroke-miterlimit="10" x1="636.1" y1="233.7" x2="642.9" y2="224.8"/>
	<line fill="none" stroke="#333399" stroke-width="3" stroke-miterlimit="10" x1="650.3" y1="234.2" x2="652.1" y2="228.2"/>
	<line fill="none" stroke="#333399" stroke-width="3" stroke-miterlimit="10" x1="666.7" y1="241.3" x2="666.2" y2="230.4"/>
	<line fill="none" stroke="#333399" stroke-width="3" stroke-miterlimit="10" x1="682.7" y1="233.3" x2="680.1" y2="227.3"/>
	<line fill="none" stroke="#333399" stroke-width="3" stroke-miterlimit="10" x1="699.6" y1="227.5" x2="691.9" y2="219.2"/>
	<line fill="none" stroke="#333399" stroke-width="3" stroke-miterlimit="10" x1="705.6" y1="210.5" x2="699" y2="207.2"/>
	<line fill="none" stroke="#333399" stroke-width="3" stroke-miterlimit="10" x1="714.3" y1="195.6" x2="704.2" y2="194.3"/>
</g>
<g>
	<line fill="none" stroke="#333399" stroke-width="3" stroke-miterlimit="10" x1="125" y1="112.9" x2="131.3" y2="111.9"/>
	<line fill="none" stroke="#333399" stroke-width="3" stroke-miterlimit="10" x1="129" y1="132" x2="138.8" y2="125.2"/>
	<line fill="none" stroke="#333399" stroke-width="3" stroke-miterlimit="10" x1="140.1" y1="140.2" x2="143.8" y2="135.8"/>
	<line fill="none" stroke="#333399" stroke-width="3" stroke-miterlimit="10" x1="151.9" y1="153.2" x2="155.5" y2="143.7"/>
	<line fill="none" stroke="#333399" stroke-width="3" stroke-miterlimit="10" x1="169.3" y1="151.7" x2="169.4" y2="145.9"/>
	<line fill="none" stroke="#333399" stroke-width="3" stroke-miterlimit="10" x1="200.5" y1="62.8" x2="193.2" y2="71.3"/>
	<line fill="none" stroke="#333399" stroke-width="3" stroke-miterlimit="10" x1="186.4" y1="61.5" x2="184.2" y2="67.4"/>
	<line fill="none" stroke="#333399" stroke-width="3" stroke-miterlimit="10" x1="170.4" y1="53.4" x2="170.3" y2="64.3"/>
	<line fill="none" stroke="#333399" stroke-width="3" stroke-miterlimit="10" x1="154" y1="60.4" x2="156.2" y2="66.6"/>
	<line fill="none" stroke="#333399" stroke-width="3" stroke-miterlimit="10" x1="136.8" y1="65.2" x2="144" y2="74"/>
	<line fill="none" stroke="#333399" stroke-width="3" stroke-miterlimit="10" x1="129.8" y1="81.8" x2="136.1" y2="85.5"/>
	<line fill="none" stroke="#333399" stroke-width="3" stroke-miterlimit="10" x1="120.2" y1="96.2" x2="130.2" y2="98.1"/>
</g>
<line fill="none" stroke="#333399" stroke-width="4" stroke-miterlimit="10" x1="173.1" y1="81.3" x2="173.1" y2="114.3"/>
<rect x="169.2" y="117.9" fill="none" stroke="#333399" stroke-width="4" stroke-miterlimit="10" width="7" height="7.9"/>
<polyline fill="none" stroke="#333399" stroke-width="3" stroke-miterlimit="10" points="656.4,183.8 656.4,172.8 672.4,172.8 
	672.4,187.8 661.9,198.3 661.9,205.8 "/>
<rect x="658.7" y="208.4" fill="none" stroke="#333399" stroke-width="3" stroke-miterlimit="10" width="6.2" height="5.8"/>
<g>
	<line fill="none" stroke="#333399" stroke-miterlimit="10" x1="556" y1="38.1" x2="566.8" y2="45.6"/>
	<line fill="none" stroke="#333399" stroke-miterlimit="10" x1="557.6" y1="57.7" x2="567.9" y2="49.4"/>
	
		<circle fill="#EDEEF0" stroke="#333399" stroke-linecap="round" stroke-linejoin="round" stroke-miterlimit="10" cx="569.5" cy="47.3" r="4"/>
	
		<circle fill="#EDEEF0" stroke="#333399" stroke-linecap="round" stroke-linejoin="round" stroke-miterlimit="10" cx="551.8" cy="36.6" r="4.8"/>
	
		<circle fill="#EDEEF0" stroke="#333399" stroke-linecap="round" stroke-linejoin="round" stroke-miterlimit="10" cx="553" cy="59.3" r="5"/>
</g>
<line fill="none" stroke="#333399" stroke-miterlimit="10" x1="254.3" y1="28.5" x2="258.2" y2="28.5"/>
<g>
	<polygon fill="#FFFFFF" stroke="#333399" stroke-width="2" stroke-miterlimit="10" points="259.4,91.2 325.1,91.2 325.1,77.2 
		309.1,77.2 309.1,67.7 291.4,67.7 291.4,60.2 266.4,60.2 266.4,81.2 259.4,81.2 	"/>
	<line fill="#FFFFFF" stroke="#333399" stroke-width="2" stroke-miterlimit="10" x1="291.4" y1="78.9" x2="291.4" y2="65.4"/>
	<line fill="#FFFFFF" stroke="#333399" stroke-width="2" stroke-miterlimit="10" x1="309.1" y1="72.8" x2="309.1" y2="82.3"/>
	<line fill="#FFFFFF" stroke="#333399" stroke-width="2" stroke-miterlimit="10" x1="264.9" y1="81.2" x2="271.6" y2="81.2"/>
</g>
<g>
	<polygon fill="#FFFFFF" stroke="#333399" stroke-width="2" stroke-miterlimit="10" points="712,83.5 646.3,83.5 646.3,69.5 
		662.3,69.5 662.3,60 680,60 680,52.5 705,52.5 705,73.5 712,73.5 	"/>
	<line fill="#FFFFFF" stroke="#333399" stroke-width="2" stroke-miterlimit="10" x1="680" y1="71.2" x2="680" y2="57.7"/>
	<line fill="#FFFFFF" stroke="#333399" stroke-width="2" stroke-miterlimit="10" x1="662.3" y1="65.1" x2="662.3" y2="74.6"/>
	<line fill="#FFFFFF" stroke="#333399" stroke-width="2" stroke-miterlimit="10" x1="706.4" y1="73.5" x2="699.8" y2="73.5"/>
</g>
<g>
	<polyline fill="none" stroke="#333399" stroke-width="2" stroke-miterlimit="10" points="574.4,19.8 591.1,19.8 591.1,1 619.8,1 
		619.8,8.4 643.2,8.4 643.2,21.3 	"/>
	<line fill="none" stroke="#333399" stroke-width="2" stroke-miterlimit="10" x1="619.8" y1="8.4" x2="619.8" y2="15.8"/>
</g>
<g>
	<polyline fill="none" stroke="#333399" stroke-width="2" stroke-miterlimit="10" points="54.9,199.8 71.5,199.8 71.5,181 
		100.2,181 100.2,188.4 123.6,188.4 123.6,201.4 	"/>
	<line fill="none" stroke="#333399" stroke-width="2" stroke-miterlimit="10" x1="100.2" y1="188.4" x2="100.2" y2="195.8"/>
</g>
<line fill="none" stroke="#333399" stroke-width="2" stroke-linecap="square" stroke-linejoin="round" stroke-miterlimit="10" x1="22.5" y1="448.3" x2="789.4" y2="448.3"/>
<line fill="none" stroke="#333399" stroke-width="2" stroke-linecap="square" stroke-linejoin="round" stroke-miterlimit="10" x1="800.1" y1="448.3" x2="825.9" y2="448.3"/>
<line fill="none" stroke="#333399" stroke-width="2" stroke-linecap="square" stroke-linejoin="round" stroke-miterlimit="10" x1="1" y1="448.3" x2="14.5" y2="448.3"/>
<rect x="378.4" y="429.3" fill="#D7D9DD" stroke="#2D3083" stroke-width="3" stroke-miterlimit="10" width="184.6" height="15.8"/>
<g>
	<path fill="#5C5B5F" stroke="#333399" stroke-linecap="round" stroke-linejoin="round" stroke-miterlimit="10" d="M382,440.8
		c0,2.8-2.2,5-5,5H241c-2.8,0-5-2.2-5-5v-70c0-2.8,2.2-5,5-5h136c2.8,0,5,2.2,5,5V440.8z"/>
	<rect x="246" y="376.8" fill="#C3C4CA" width="123" height="60"/>
	<rect x="252" y="386.2" fill="#EDEEF0" width="29.3" height="11.3"/>
	<rect x="252" y="402.2" fill="#EDEEF0" width="102.7" height="4.7"/>
	<rect x="252" y="412.8" fill="#EDEEF0" width="102.7" height="4.7"/>
	<rect x="252" y="423.5" fill="#EDEEF0" width="102.7" height="4.7"/>
</g>
<g>
	<path fill="#636363" stroke="#333399" stroke-width="2" stroke-miterlimit="10" d="M630.7,440.6c0,2.7-2.9,4.9-6.4,4.9H558
		c-3.5,0-6.4-2.2-6.4-4.9V306.7c0-2.7,2.9-4.9,6.4-4.9h66.3c3.5,0,6.4,2.2,6.4,4.9V440.6z"/>
	<rect x="560.4" y="316.8" fill="#C3C4CA" width="62.9" height="112.7"/>
	<rect x="570.9" y="378.8" fill="#E6E7E9" width="43" height="8.7"/>
	<rect x="570.9" y="393" fill="#E6E7E9" width="43" height="8.7"/>
	<rect x="578.6" y="407.7" fill="#FEC2A0" width="26.3" height="11.2"/>
	<circle fill="#FAC69F" cx="593.6" cy="352.6" r="22"/>
	<line fill="none" stroke="#434041" stroke-width="2" stroke-miterlimit="10" x1="579" y1="307.5" x2="596.7" y2="307.5"/>
	<g>
		<circle fill="#5C5B5F" cx="573.8" cy="383.6" r="0.6"/>
		<circle fill="#5C5B5F" cx="577.1" cy="383.6" r="0.6"/>
		<circle fill="#5C5B5F" cx="580.4" cy="383.6" r="0.6"/>
		<circle fill="#5C5B5F" cx="583.7" cy="383.6" r="0.6"/>
		<circle fill="#5C5B5F" cx="587" cy="383.6" r="0.6"/>
		<circle fill="#5C5B5F" cx="590.3" cy="383.6" r="0.6"/>
		<circle fill="#5C5B5F" cx="593.6" cy="383.6" r="0.6"/>
		<circle fill="#5C5B5F" cx="596.9" cy="383.6" r="0.6"/>
		<circle fill="#5C5B5F" cx="600.2" cy="383.6" r="0.6"/>
		<circle fill="#5C5B5F" cx="603.6" cy="383.6" r="0.6"/>
		<circle fill="#5C5B5F" cx="606.9" cy="383.6" r="0.6"/>
		<circle fill="#5C5B5F" cx="610.2" cy="383.6" r="0.6"/>
	</g>
	<g>
		<circle fill="#5C5B5F" cx="573.8" cy="397.6" r="0.6"/>
		<circle fill="#5C5B5F" cx="577.1" cy="397.6" r="0.6"/>
		<circle fill="#5C5B5F" cx="580.4" cy="397.6" r="0.6"/>
		<circle fill="#5C5B5F" cx="583.7" cy="397.6" r="0.6"/>
		<circle fill="#5C5B5F" cx="587" cy="397.6" r="0.6"/>
		<circle fill="#5C5B5F" cx="590.3" cy="397.6" r="0.6"/>
		<circle fill="#5C5B5F" cx="593.6" cy="397.6" r="0.6"/>
		<circle fill="#5C5B5F" cx="596.9" cy="397.6" r="0.6"/>
		<circle fill="#5C5B5F" cx="600.2" cy="397.6" r="0.6"/>
		<circle fill="#5C5B5F" cx="603.6" cy="397.6" r="0.6"/>
		<circle fill="#5C5B5F" cx="606.9" cy="397.6" r="0.6"/>
		<circle fill="#5C5B5F" cx="610.2" cy="397.6" r="0.6"/>
	</g>
</g>
</svg>
