<svg version="1.1" class="img-responsive-SVG servicios_icono" id="servicios_icono2"
	 xmlns="http://www.w3.org/2000/svg" xmlns:xlink="http://www.w3.org/1999/xlink" xmlns:a="http://ns.adobe.com/AdobeSVGViewerExtensions/3.0/"
	 x="0px" y="0px" width="879px" height="443.3px" viewBox="0 0 879 443.3" enable-background="new 0 0 879 443.3"
	 xml:space="preserve" preserveAspectRatio="xMinYMin">
<defs>
</defs>
<rect id="fondo_1_" x="117.7" y="92.7" fill="#C3C4CA" stroke="#333399" stroke-width="2" stroke-miterlimit="10" width="202.5" height="340.6"/>
<g id="celular_con_flechita_1_">
	<g id="XMLID_2_">
		<g>
			<rect x="137.8" y="405.7" fill="#F7A9B2" width="182.4" height="17.1"/>
			<rect x="151.2" y="380.6" fill="#F7A9B2" width="169" height="15.2"/>
			
				<rect id="Imagen_3_" x="137.8" y="239.6" fill="#99D1CB" stroke="#333399" stroke-width="2" stroke-miterlimit="10" width="77.3" height="31"/>
			<polygon id="Frnja_1_" fill="#D6B39A" stroke="#333399" stroke-width="2" stroke-miterlimit="10" points="188.5,110.5 
				188.5,100.6 161.8,100.6 161.8,110.5 117.7,110.5 117.7,121.3 320.2,121.3 320.2,110.5 			"/>
			<g id="Imagen_2_servicio">
				
					<rect x="137.9" y="157.2" fill="#C9BB9E" stroke="#333399" stroke-width="2" stroke-miterlimit="10" width="77.3" height="75.1"/>
				<path fill="#F7F7F8" d="M199,204.2l-8.1,3.5l-0.4,0.2l-3,8.1l-6.8-17.1c0.6-0.5,1.1-1,1.4-1.6L199,204.2z"/>
				<path fill="#C99F7E" d="M183.2,193.4c0,1.4-0.4,2.7-1.1,3.8l-2.5-1l1.1,2.7c-1.2,1-2.8,1.6-4.5,1.6c-3.9,0-7.1-3.1-7.1-7
					s3.2-7,7.1-7C180,186.3,183.2,189.5,183.2,193.4z"/>
				<path fill="#F7F7F8" d="M179.6,196.1l2.5,1c-0.4,0.6-0.9,1.2-1.4,1.6L179.6,196.1z"/>
				<rect x="185.7" y="191" fill="#333399" width="10.5" height="3.7"/>
				<polygon fill="#333399" points="191.4,180.6 184,188 181.4,185.4 188.8,178"/>
				<rect x="174.2" y="201.6" fill="#333399" width="3.8" height="10.4"/>
				<rect x="174.2" y="174" fill="#333399" width="3.8" height="10.4"/>
				<polygon fill="#333399" points="171,185.4 168.3,188 160.9,180.6 163.6,178"/>
				<polygon fill="#333399" points="171,200.8 163.6,208.2 160.9,205.6 168.3,198.2"/>
				<rect x="157" y="191" fill="#333399" width="10.5" height="3.7"/>
				<line fill="none" stroke="#333399" stroke-width="2" stroke-miterlimit="10" x1="202.6" y1="219.2" x2="190.9" y2="207.6"/>
			</g>
		</g>
		<g>
			<line fill="none" stroke="#333399" stroke-width="2" stroke-miterlimit="10" x1="320.2" y1="395.8" x2="320.2" y2="405.7"/>
			<g id="Tilde_1_">
				<path fill="#FFFFFF" stroke="#31328C" stroke-width="2" stroke-miterlimit="10" d="M254.6,248.4c0.5,1.5,0.9,3.1,0.9,4.7
					c0,7.5-6.1,13.5-13.7,13.5c-7.6,0-13.7-6-13.7-13.5c0-1.1,0.1-2.2,0.4-3.3c1.5-5.9,6.9-10.2,13.3-10.2c3.9,0,7.5,1.6,9.9,4.3
					C253,245.2,254,246.7,254.6,248.4z"/>
				<polyline fill="none" stroke="#333399" stroke-width="2" stroke-miterlimit="10" points="260.3,242.8 254.6,248.4 241.9,261.1 
					232.2,251.6"/>
			</g>
			<g id="LineasFanPage_1_">
				<line fill="none" stroke="#333399" stroke-width="2" stroke-miterlimit="10" x1="231.8" y1="161.2" x2="299.2" y2="161.2"/>
				<line fill="none" stroke="#333399" stroke-width="2" stroke-miterlimit="10" x1="231.8" y1="177" x2="299.2" y2="177"/>
				<line fill="none" stroke="#333399" stroke-width="2" stroke-miterlimit="10" x1="231.8" y1="192.8" x2="299.2" y2="192.8"/>
				<line fill="none" stroke="#333399" stroke-width="2" stroke-miterlimit="10" x1="231.8" y1="208.6" x2="299.2" y2="208.6"/>
				<line fill="none" stroke="#333399" stroke-width="3" stroke-miterlimit="10" x1="231.8" y1="226.6" x2="273.2" y2="226.6"/>
				<line fill="none" stroke="#333399" stroke-width="2" stroke-miterlimit="10" x1="137.2" y1="286.4" x2="297.1" y2="286.4"/>
				<line fill="none" stroke="#333399" stroke-width="2" stroke-miterlimit="10" x1="137.2" y1="298.1" x2="297.1" y2="298.1"/>
				<line fill="none" stroke="#333399" stroke-width="2" stroke-miterlimit="10" x1="137.2" y1="309.8" x2="297.1" y2="309.8"/>
				<line fill="none" stroke="#333399" stroke-width="2" stroke-miterlimit="10" x1="137.2" y1="321.6" x2="297.1" y2="321.6"/>
				<line fill="none" stroke="#333399" stroke-width="2" stroke-miterlimit="10" x1="137.2" y1="333.3" x2="297.1" y2="333.3"/>
				<line fill="none" stroke="#333399" stroke-width="2" stroke-miterlimit="10" x1="137.2" y1="345" x2="297.1" y2="345"/>
				<line fill="none" stroke="#333399" stroke-width="2" stroke-miterlimit="10" x1="137.2" y1="356.8" x2="297.1" y2="356.8"/>
			</g>
		</g>
	</g>
</g>
<g id="Compu-billete_1_">
	
		<rect x="180.7" y="304.6" fill="#9B999E" stroke="#333399" stroke-width="2" stroke-linecap="round" stroke-linejoin="round" stroke-miterlimit="10" width="163.7" height="121.3"/>
	<g>
		<rect x="191.7" y="315.9" fill="#C3C4CA" width="152.7" height="110"/>
	</g>
	<rect x="172.7" y="425.9" fill="#9B999E" stroke="#333399" stroke-width="2" stroke-miterlimit="10" width="170.1" height="10"/>
	<g>
		<rect x="230.7" y="345.3" fill="#727276" width="102.1" height="34.2"/>
		<path fill="#333399" d="M333.8,380.5H229.7v-36.2h104.1V380.5z M231.7,378.5h100.1v-32.2H231.7V378.5z"/>
	</g>
	<g>
		<rect x="241.6" y="354.5" fill="#C3C4CA" width="80.6" height="18.1"/>
		<path fill="#333399" d="M323.2,373.6h-82.6v-20.1h82.6V373.6z M242.6,371.6h78.6v-16.1h-78.6V371.6z"/>
	</g>
</g>
<g id="CASA_1_">
	<g>
		<rect x="342.2" y="263.3" fill="#F7F7F8" width="262.4" height="172.7"/>
		<path fill="#333399" d="M605.6,437H341.2V262.3h264.4V437z M343.2,435h260.4V264.3H343.2V435z"/>
	</g>
	<rect x="353.5" y="273" fill="#9B999E" stroke="#333399" stroke-width="2" stroke-miterlimit="10" width="70.6" height="60.9"/>
	<rect x="353.5" y="343.6" fill="#9B999E" stroke="#333399" stroke-width="2" stroke-miterlimit="10" width="70.6" height="63.5"/>
	<rect x="519.3" y="273" fill="#9B999E" stroke="#333399" stroke-width="2" stroke-miterlimit="10" width="70.6" height="60.9"/>
	<rect x="435.2" y="273" fill="#9B999E" stroke="#333399" stroke-width="2" stroke-miterlimit="10" width="73.4" height="153.2"/>
	<rect x="519.3" y="343.6" fill="#9B999E" stroke="#333399" stroke-width="2" stroke-miterlimit="10" width="70.6" height="63.5"/>
	<g>
		<rect x="333.8" y="263.3" fill="#C99F7E" stroke="#333399" stroke-width="2" stroke-miterlimit="10" width="25.3" height="19.3"/>
		<rect x="384.5" y="263.3" fill="#C99F7E" stroke="#333399" stroke-width="2" stroke-miterlimit="10" width="25.3" height="19.3"/>
		<rect x="359.2" y="263.3" fill="#C9BB9E" stroke="#333399" stroke-width="2" stroke-miterlimit="10" width="25.3" height="14.7"/>
		<rect x="435.2" y="263.3" fill="#C99F7E" stroke="#333399" stroke-width="2" stroke-miterlimit="10" width="25.3" height="19.3"/>
		<rect x="409.8" y="263.3" fill="#C9BB9E" stroke="#333399" stroke-width="2" stroke-miterlimit="10" width="25.3" height="14.7"/>
		<rect x="485.8" y="263.3" fill="#C99F7E" stroke="#333399" stroke-width="2" stroke-miterlimit="10" width="25.3" height="19.3"/>
		<rect x="460.5" y="263.3" fill="#C9BB9E" stroke="#333399" stroke-width="2" stroke-miterlimit="10" width="25.3" height="14.7"/>
		<rect x="536.5" y="263.3" fill="#C99F7E" stroke="#333399" stroke-width="2" stroke-miterlimit="10" width="25.3" height="19.3"/>
		<rect x="511.2" y="263.3" fill="#C9BB9E" stroke="#333399" stroke-width="2" stroke-miterlimit="10" width="25.3" height="14.7"/>
		<rect x="587.2" y="263.3" fill="#C99F7E" stroke="#333399" stroke-width="2" stroke-miterlimit="10" width="25.3" height="19.3"/>
		<rect x="561.8" y="263.3" fill="#C9BB9E" stroke="#333399" stroke-width="2" stroke-miterlimit="10" width="25.3" height="14.7"/>
	</g>
	<polygon fill="#C3C4CA" stroke="#333399" stroke-width="2" stroke-miterlimit="10" points="612.5,265.7 333.8,265.7 342.7,241.7 
		604.7,241.7 	"/>
	<rect x="342.2" y="227.5" fill="none" stroke="#333399" stroke-width="2" stroke-miterlimit="10" width="262.4" height="14.1"/>
	<rect x="337.7" y="218.2" fill="none" stroke="#333399" stroke-width="2" stroke-miterlimit="10" width="270.9" height="9.3"/>
	<rect x="328.4" y="201.6" fill="none" stroke="#333399" stroke-width="2" stroke-miterlimit="10" width="287.8" height="16.6"/>
	<rect x="342.2" y="412.2" fill="#434041" stroke="#333399" stroke-width="2" stroke-miterlimit="10" width="80.3" height="23.8"/>
	<rect x="519.3" y="412.2" fill="#434041" stroke="#333399" stroke-width="2" stroke-miterlimit="10" width="85.4" height="23.8"/>
</g>
<rect x="604.7" y="333.9" fill="#99D1CB" stroke="#333399" stroke-width="2" stroke-miterlimit="10" width="80.6" height="102.1"/>
<g>
	<rect x="695.3" y="364.8" fill="#C9BB9E" stroke="#333399" stroke-width="2" stroke-miterlimit="10" width="80.2" height="20.1"/>
	<rect x="704.5" y="384.9" fill="#C99F7E" stroke="#333399" stroke-width="2" stroke-miterlimit="10" width="65.7" height="51.1"/>
</g>
<circle fill="#FFFFFF" stroke="#333399" stroke-width="2" stroke-miterlimit="10" cx="100.6" cy="378.8" r="56.2"/>
<g id="cuadrdos_1_">
	<rect x="676.2" y="259" fill="none" stroke="#333399" stroke-width="2" stroke-miterlimit="10" width="10.7" height="10.3"/>
	<rect x="652.7" y="136.7" fill="none" stroke="#333399" stroke-width="2" stroke-miterlimit="10" width="11.5" height="10.5"/>
	<rect x="269.4" y="48.3" fill="none" stroke="#333399" stroke-width="2" stroke-miterlimit="10" width="11.5" height="10.5"/>
	<rect x="21" y="169.6" fill="none" stroke="#333399" stroke-width="2" stroke-miterlimit="10" width="11.5" height="10.5"/>
</g>
<g id="Lineas_1_">
	<line fill="none" stroke="#333399" stroke-width="2" stroke-miterlimit="10" x1="710.4" y1="306.7" x2="710.4" y2="318"/>
	<line fill="none" stroke="#333399" stroke-width="2" stroke-miterlimit="10" x1="705.2" y1="312.3" x2="715.2" y2="312.3"/>
	<line fill="none" stroke="#333399" stroke-width="2" stroke-miterlimit="10" x1="670.8" y1="171.6" x2="670.8" y2="184.6"/>
	<line fill="none" stroke="#333399" stroke-width="2" stroke-miterlimit="10" x1="664" y1="178.1" x2="677.2" y2="178.1"/>
	<line fill="none" stroke="#333399" stroke-width="2" stroke-miterlimit="10" x1="351.7" y1="66.5" x2="351.7" y2="79.5"/>
	<line fill="none" stroke="#333399" stroke-width="2" stroke-miterlimit="10" x1="344.9" y1="73" x2="358.1" y2="73"/>
	<line fill="none" stroke="#333399" stroke-width="2" stroke-miterlimit="10" x1="602.6" y1="77" x2="602.6" y2="88.3"/>
	<line fill="none" stroke="#333399" stroke-width="2" stroke-miterlimit="10" x1="597.3" y1="82.7" x2="607.4" y2="82.7"/>
	<g>
		<line fill="none" stroke="#333399" stroke-width="2" stroke-miterlimit="10" x1="800" y1="42.9" x2="800" y2="54.2"/>
		<line fill="none" stroke="#333399" stroke-width="2" stroke-miterlimit="10" x1="794.8" y1="48.6" x2="804.8" y2="48.6"/>
	</g>
	<line fill="none" stroke="#333399" stroke-width="2" stroke-miterlimit="10" x1="37.4" y1="30.4" x2="37.4" y2="41.6"/>
	<line fill="none" stroke="#333399" stroke-width="2" stroke-miterlimit="10" x1="32.1" y1="36" x2="42.1" y2="36"/>
	<line fill="none" stroke="#333399" stroke-width="2" stroke-miterlimit="10" x1="749.2" y1="280.7" x2="810.2" y2="280.7"/>
	<line fill="none" stroke="#333399" stroke-width="2" stroke-miterlimit="10" x1="697.2" y1="263.3" x2="758.8" y2="263.3"/>
	<line fill="none" stroke="#333399" stroke-width="2" stroke-miterlimit="10" x1="737.4" y1="280.7" x2="743.8" y2="280.7"/>
	<line fill="none" stroke="#333399" stroke-width="2" stroke-miterlimit="10" x1="645.7" y1="82.7" x2="731.2" y2="82.7"/>
	<line fill="none" stroke="#333399" stroke-width="2" stroke-miterlimit="10" x1="561.2" y1="142.2" x2="567.7" y2="142.2"/>
	<line fill="none" stroke="#333399" stroke-width="2" stroke-miterlimit="10" x1="574.2" y1="142.2" x2="577.2" y2="142.2"/>
	<line fill="none" stroke="#333399" stroke-width="2" stroke-miterlimit="10" x1="584.7" y1="142.2" x2="645.7" y2="142.2"/>
	<line fill="none" stroke="#333399" stroke-width="2" stroke-miterlimit="10" x1="494.3" y1="178.4" x2="500.8" y2="178.4"/>
	<line fill="none" stroke="#333399" stroke-width="2" stroke-miterlimit="10" x1="507.3" y1="178.4" x2="510.3" y2="178.4"/>
	<line fill="none" stroke="#333399" stroke-width="2" stroke-miterlimit="10" x1="517.8" y1="178.4" x2="578.8" y2="178.4"/>
	<line fill="none" stroke="#333399" stroke-width="2" stroke-miterlimit="10" x1="171.8" y1="53.5" x2="259" y2="53.5"/>
	<line fill="none" stroke="#333399" stroke-width="2" stroke-miterlimit="10" x1="254" y1="73" x2="317" y2="73"/>
	<line fill="none" stroke="#333399" stroke-width="2" stroke-miterlimit="10" x1="680" y1="178.1" x2="684.5" y2="178.1"/>
	<line fill="none" stroke="#333399" stroke-width="2" stroke-miterlimit="10" x1="690.7" y1="178.1" x2="698" y2="178.1"/>
	<line fill="none" stroke="#333399" stroke-width="2" stroke-miterlimit="10" x1="701.7" y1="178.1" x2="763.4" y2="178.1"/>
	<line fill="none" stroke="#333399" stroke-width="2" stroke-miterlimit="10" x1="321.2" y1="73" x2="326.8" y2="73"/>
	<line fill="none" stroke="#333399" stroke-width="2" stroke-miterlimit="10" x1="331" y1="73" x2="337.4" y2="73"/>
	<line fill="none" stroke="#333399" stroke-width="2" stroke-miterlimit="10" x1="12.3" y1="255.8" x2="12.3" y2="268.8"/>
	<line fill="none" stroke="#333399" stroke-width="2" stroke-miterlimit="10" x1="19" y1="262.3" x2="5.9" y2="262.3"/>
	<line fill="none" stroke="#333399" stroke-width="2" stroke-miterlimit="10" x1="110" y1="262.3" x2="46.9" y2="262.3"/>
	<line fill="none" stroke="#333399" stroke-width="2" stroke-miterlimit="10" x1="42.8" y1="262.3" x2="37.1" y2="262.3"/>
	<line fill="none" stroke="#333399" stroke-width="2" stroke-miterlimit="10" x1="32.9" y1="262.3" x2="26.6" y2="262.3"/>
</g>
<path fill="none" stroke="#333399" stroke-width="2" stroke-miterlimit="10" d="M125.1,372"/>
<g id="veinticuatro">
	<circle fill="#A3CEEF" stroke="#333399" stroke-width="2" stroke-miterlimit="10" cx="100.6" cy="378.8" r="46.7"/>
	<g>
		<path fill="none" stroke="#333399" stroke-width="2" stroke-miterlimit="10" d="M129.1,378.8c0-16.8-13.6-30.4-30.4-30.4
			S68.3,362,68.3,378.8s13.6,30.4,30.4,30.4"/>
		<polyline fill="none" stroke="#333399" stroke-width="2" stroke-miterlimit="10" points="123.2,372.5 129.1,379.2 132.9,371.6 		
			"/>
	</g>
</g>
<g>
	<path fill="#C99F7E" stroke="#333399" stroke-width="2" d="M98.1,389.8H81.9v-4.4l5.4-5.4c1.9-2,3.2-3.4,4-4.5
		c0.7-1,1.1-2.1,1.1-3.3c0-1.2-0.3-2-0.9-2.5S90,369,88.9,369c-1.7,0-3.5,0.2-5.5,0.5l-0.9,0.1l-0.3-4.1c2.5-0.8,5.1-1.1,7.7-1.1
		c5.3,0,8,2.4,8,7.2c0,1.9-0.4,3.5-1.2,4.9c-0.8,1.4-2.3,3-4.4,5l-4.4,4h10.4v4.3H98.1z"/>
	<path fill="#C99F7E" stroke="#333399" stroke-width="2" d="M112.8,389.8v-4.1h-10.6v-4l6.2-16.9h5.8l-6.7,16.4h5.4v-7h5.2v7h2.4
		v4.6h-2.4v4.1h-5.3V389.8z"/>
</g>
<g>
	<rect x="37.1" y="441.3" fill="#333399" width="820.3" height="2"/>
	<rect x="872.4" y="441.3" fill="#333399" width="6.6" height="2"/>
	<rect y="441.3" fill="#333399" width="26.6" height="2"/>
</g>
<rect x="612.1" y="347.8" fill="#C99F7E" stroke="#333399" stroke-width="2" stroke-miterlimit="10" width="8.6" height="7.7"/>
<rect x="664.8" y="347.8" fill="#C99F7E" stroke="#333399" stroke-width="2" stroke-miterlimit="10" width="8.6" height="7.7"/>
<path fill="none" stroke="#333399" stroke-width="2" stroke-miterlimit="10" d="M616.3,351.6c0,0-2.5-35.5,25.6-35.5
	c0,0,25.8-2.2,27.1,35.5"/>
<g>
	<circle fill="#C9BB9E" stroke="#333399" stroke-width="2" stroke-miterlimit="10" cx="99.8" cy="339.4" r="2.1"/>
	<circle fill="#C9BB9E" stroke="#333399" stroke-width="2" stroke-miterlimit="10" cx="86.2" cy="341.8" r="2.1"/>
	<circle fill="#C9BB9E" stroke="#333399" stroke-width="2" stroke-miterlimit="10" cx="74.2" cy="348.8" r="2.1"/>
	<circle fill="#C9BB9E" stroke="#333399" stroke-width="2" stroke-miterlimit="10" cx="65.3" cy="359.4" r="2.1"/>
	<circle fill="#C9BB9E" stroke="#333399" stroke-width="2" stroke-miterlimit="10" cx="60.5" cy="372.4" r="2.1"/>
	<circle fill="#C9BB9E" stroke="#333399" stroke-width="2" stroke-miterlimit="10" cx="60.5" cy="386.3" r="2.1"/>
	<circle fill="#C9BB9E" stroke="#333399" stroke-width="2" stroke-miterlimit="10" cx="65.3" cy="399.3" r="2.1"/>
	<path fill="#C9BB9E" stroke="#333399" stroke-width="2" stroke-miterlimit="10" d="M72.5,408.5c0.8-0.9,2.1-1,3-0.3
		c0.9,0.8,1,2.1,0.3,3c-0.8,0.9-2.1,1-3,0.3S71.8,409.4,72.5,408.5z"/>
	<circle fill="#C9BB9E" stroke="#333399" stroke-width="2" stroke-miterlimit="10" cx="86.2" cy="416.8" r="2.1"/>
	<circle fill="#C9BB9E" stroke="#333399" stroke-width="2" stroke-miterlimit="10" cx="99.8" cy="419.2" r="2.1"/>
	<path fill="#C9BB9E" stroke="#333399" stroke-width="2" stroke-miterlimit="10" d="M111.5,417.6c-0.4-1.1,0.2-2.3,1.3-2.7
		c1.1-0.4,2.3,0.2,2.7,1.3c0.4,1.1-0.2,2.3-1.3,2.7C113.1,419.2,111.9,418.7,111.5,417.6z"/>
	<circle fill="#C9BB9E" stroke="#333399" stroke-width="2" stroke-miterlimit="10" cx="125.5" cy="409.9" r="2.1"/>
	<circle fill="#C9BB9E" stroke="#333399" stroke-width="2" stroke-miterlimit="10" cx="134.4" cy="399.3" r="2.1"/>
	<path fill="#C9BB9E" stroke="#333399" stroke-width="2" stroke-miterlimit="10" d="M138.8,388.4c-1.2-0.2-1.9-1.3-1.7-2.5
		s1.3-1.9,2.5-1.7c1.2,0.2,1.9,1.3,1.7,2.5C141,387.8,139.9,388.6,138.8,388.4z"/>
	<circle fill="#C9BB9E" stroke="#333399" stroke-width="2" stroke-miterlimit="10" cx="139.1" cy="372.4" r="2.1"/>
	<circle fill="#C9BB9E" stroke="#333399" stroke-width="2" stroke-miterlimit="10" cx="134.4" cy="359.4" r="2.1"/>
	<path fill="#C9BB9E" stroke="#333399" stroke-width="2" stroke-miterlimit="10" d="M127.1,350.1c-0.8,0.9-2.1,1-3,0.3
		c-0.9-0.8-1-2.1-0.3-3c0.8-0.9,2.1-1,3-0.3C127.8,347.9,127.9,349.2,127.1,350.1z"/>
	<path fill="#C9BB9E" stroke="#333399" stroke-width="2" stroke-miterlimit="10" d="M115.5,342.6c-0.4,1.1-1.6,1.7-2.7,1.3
		c-1.1-0.4-1.7-1.6-1.3-2.7c0.4-1.1,1.6-1.7,2.7-1.3C115.3,340.2,115.9,341.5,115.5,342.6z"/>
</g>
<g id="porcentaje_1_">
	<polygon fill="none" stroke="#333399" stroke-width="2" stroke-miterlimit="10" points="450.9,73.7 458.4,62.4 472.1,66.2 
		485.3,60.2 493.2,71 507.3,76.1 508.4,89.5 516.8,100.3 509.9,112.6 509.7,126.3 497.2,131.8 489.3,142.1 474.7,139.5 462.4,144.6 
		453.6,134.2 439.7,130.9 439.7,115.9 429.8,105.4 437.5,93.7 437.5,79.4 	"/>
	<g>
		<line fill="none" stroke="#333399" stroke-width="2" stroke-miterlimit="10" x1="473.3" y1="42.1" x2="473.3" y2="50.5"/>
		<line fill="none" stroke="#333399" stroke-width="2" stroke-miterlimit="10" x1="450.8" y1="39.5" x2="455.5" y2="52.5"/>
		<line fill="none" stroke="#333399" stroke-width="2" stroke-miterlimit="10" x1="435.1" y1="55.8" x2="439.8" y2="61.5"/>
		<line fill="none" stroke="#333399" stroke-width="2" stroke-miterlimit="10" x1="415.8" y1="68.2" x2="427.3" y2="74.8"/>
		<line fill="none" stroke="#333399" stroke-width="2" stroke-miterlimit="10" x1="414.1" y1="90.9" x2="421.5" y2="92.2"/>
		<line fill="none" stroke="#333399" stroke-width="2" stroke-miterlimit="10" x1="406.5" y1="113.1" x2="421.7" y2="110.5"/>
		<line fill="none" stroke="#333399" stroke-width="2" stroke-miterlimit="10" x1="419.3" y1="132.5" x2="427.3" y2="127.9"/>
		<line fill="none" stroke="#333399" stroke-width="2" stroke-miterlimit="10" x1="429.7" y1="153.3" x2="439" y2="142.2"/>
		<line fill="none" stroke="#333399" stroke-width="2" stroke-miterlimit="10" x1="452.1" y1="159.6" x2="454.6" y2="152.8"/>
		<line fill="none" stroke="#333399" stroke-width="2" stroke-miterlimit="10" x1="473.3" y1="169.2" x2="473.3" y2="155.8"/>
		<line fill="none" stroke="#333399" stroke-width="2" stroke-miterlimit="10" x1="494.6" y1="159.9" x2="492.3" y2="153.6"/>
		<line fill="none" stroke="#333399" stroke-width="2" stroke-miterlimit="10" x1="516.9" y1="153.3" x2="507.5" y2="142.2"/>
		<line fill="none" stroke="#333399" stroke-width="2" stroke-miterlimit="10" x1="526.3" y1="131.9" x2="519.3" y2="127.9"/>
		<line fill="none" stroke="#333399" stroke-width="2" stroke-miterlimit="10" x1="540.1" y1="113.1" x2="526.1" y2="110.7"/>
		<line fill="none" stroke="#333399" stroke-width="2" stroke-miterlimit="10" x1="534.6" y1="90.5" x2="526.1" y2="92"/>
		<line fill="none" stroke="#333399" stroke-width="2" stroke-miterlimit="10" x1="532" y1="67.4" x2="519.3" y2="74.8"/>
		<line fill="none" stroke="#333399" stroke-width="2" stroke-miterlimit="10" x1="512.2" y1="54.9" x2="506.1" y2="62.2"/>
		<line fill="none" stroke="#333399" stroke-width="2" stroke-miterlimit="10" x1="495.8" y1="39.5" x2="491.2" y2="52"/>
	</g>
	<line fill="none" stroke="#333399" stroke-width="2" stroke-miterlimit="10" x1="460.4" y1="121.8" x2="487.7" y2="85.1"/>
	<rect x="455.5" y="85.1" fill="none" stroke="#333399" stroke-width="2" stroke-miterlimit="10" width="12.6" height="13.5"/>
	<rect x="479.6" y="108.6" fill="none" stroke="#333399" stroke-width="2" stroke-miterlimit="10" width="11.7" height="12"/>
</g>
<circle fill="#434041" stroke="#333399" stroke-width="2" stroke-miterlimit="10" cx="498.5" cy="350.4" r="4.3"/>
<line fill="none" stroke="#D7D9DD" stroke-width="2" stroke-miterlimit="10" x1="374.8" y1="308.6" x2="390.3" y2="293.1"/>
<line fill="none" stroke="#D7D9DD" stroke-width="2" stroke-miterlimit="10" x1="383.8" y1="316.1" x2="413" y2="286.9"/>
<line fill="none" stroke="#D7D9DD" stroke-width="2" stroke-miterlimit="10" x1="538.8" y1="384.1" x2="554.3" y2="368.6"/>
<line fill="none" stroke="#D7D9DD" stroke-width="2" stroke-miterlimit="10" x1="547.8" y1="391.6" x2="577" y2="362.4"/>
<line fill="none" stroke="#D7D9DD" stroke-width="2" stroke-miterlimit="10" x1="561.8" y1="305.1" x2="570.8" y2="296.1"/>
<line fill="none" stroke="#D7D9DD" stroke-width="2" stroke-miterlimit="10" x1="559.8" y1="315.1" x2="584" y2="292.5"/>
<line fill="none" stroke="#D7D9DD" stroke-width="2" stroke-miterlimit="10" x1="378.3" y1="376.6" x2="387.3" y2="367.6"/>
<line fill="none" stroke="#D7D9DD" stroke-width="2" stroke-miterlimit="10" x1="376.3" y1="386.6" x2="400.5" y2="364"/>
<rect x="626.2" y="371.9" fill="#789E6A" stroke="#333399" stroke-width="2" stroke-miterlimit="10" width="88.3" height="64.1"/>
<g>
	<rect x="640.9" y="382.1" fill="#DF040B" stroke="#333399" stroke-width="2" stroke-miterlimit="10" width="8.6" height="7.3"/>
	<rect x="693.6" y="382.1" fill="#DF040B" stroke="#333399" stroke-width="2" stroke-miterlimit="10" width="8.6" height="7.3"/>
	<path fill="none" stroke="#333399" stroke-width="2" stroke-miterlimit="10" d="M645.2,385.7c0,0-2.5,35.2,25.6,35.2
		c0,0,25.8,2.2,27.1-35.2"/>
</g>
<g id="Nubes_1_">
	<g>
		<polygon fill="none" stroke="#333399" stroke-width="2" stroke-miterlimit="10" points="649.5,246.3 715.2,246.3 715.2,232.3 
			699.2,232.3 699.2,222.9 681.5,222.9 681.5,215.3 656.5,215.3 656.5,236.3 649.5,236.3 		"/>
		<line fill="none" stroke="#333399" stroke-width="2" stroke-miterlimit="10" x1="681.5" y1="234" x2="681.5" y2="220.5"/>
		<line fill="none" stroke="#333399" stroke-width="2" stroke-miterlimit="10" x1="699.2" y1="227.9" x2="699.2" y2="237.4"/>
		<line fill="none" stroke="#333399" stroke-width="2" stroke-miterlimit="10" x1="655" y1="236.3" x2="661.7" y2="236.3"/>
	</g>
	<g>
		<polygon fill="none" stroke="#333399" stroke-width="2" stroke-miterlimit="10" points="355.9,178.4 421.6,178.4 421.6,164.4 
			405.6,164.4 405.6,155 387.9,155 387.9,147.4 362.9,147.4 362.9,168.4 355.9,168.4 		"/>
		<line fill="none" stroke="#333399" stroke-width="2" stroke-miterlimit="10" x1="387.9" y1="166.1" x2="387.9" y2="152.6"/>
		<line fill="none" stroke="#333399" stroke-width="2" stroke-miterlimit="10" x1="405.6" y1="160" x2="405.6" y2="169.5"/>
		<line fill="none" stroke="#333399" stroke-width="2" stroke-miterlimit="10" x1="361.5" y1="168.4" x2="368.1" y2="168.4"/>
	</g>
	<g>
		<polygon fill="none" stroke="#333399" stroke-width="2" stroke-miterlimit="10" points="318.8,32 384.5,32 384.5,18 368.5,18 
			368.5,8.5 350.8,8.5 350.8,1 325.8,1 325.8,22 318.8,22 		"/>
		<line fill="none" stroke="#333399" stroke-width="2" stroke-miterlimit="10" x1="350.8" y1="19.7" x2="350.8" y2="6.2"/>
		<line fill="none" stroke="#333399" stroke-width="2" stroke-miterlimit="10" x1="368.5" y1="13.6" x2="368.5" y2="23.1"/>
		<line fill="none" stroke="#333399" stroke-width="2" stroke-miterlimit="10" x1="324.4" y1="22" x2="331" y2="22"/>
	</g>
	<g>
		<polygon id="Nube_1_" fill="#FFFFFF" stroke="#333399" stroke-width="2" stroke-miterlimit="10" points="31.5,154.2 121.1,154.2 
			121.1,135.1 99.3,135.1 99.3,122.1 75.1,122.1 75.1,111.8 41,111.8 41,140.5 31.5,140.5 		"/>
	</g>
	<g>
		<polygon fill="none" stroke="#333399" stroke-width="2" stroke-miterlimit="10" points="768.2,136.7 702.5,136.7 702.5,122.7 
			718.5,122.7 718.5,113.2 736.2,113.2 736.2,105.7 761.2,105.7 761.2,126.7 768.2,126.7 		"/>
		<line fill="none" stroke="#333399" stroke-width="2" stroke-miterlimit="10" x1="736.2" y1="124.4" x2="736.2" y2="110.9"/>
		<line fill="none" stroke="#333399" stroke-width="2" stroke-miterlimit="10" x1="718.5" y1="118.2" x2="718.5" y2="127.7"/>
		<line fill="none" stroke="#333399" stroke-width="2" stroke-miterlimit="10" x1="762.7" y1="126.7" x2="756" y2="126.7"/>
	</g>
	<g>
		<polyline fill="none" stroke="#333399" stroke-width="2" stroke-miterlimit="10" points="564.4,47.2 584.7,47.2 584.7,31.7 
			615.2,31.7 615.2,39.4 640.2,39.4 640.2,48.6 		"/>
		<line fill="none" stroke="#333399" stroke-width="2" stroke-miterlimit="10" x1="615.2" y1="36" x2="615.2" y2="44.8"/>
	</g>
	<g>
		<polyline fill="none" stroke="#333399" stroke-width="2" stroke-miterlimit="10" points="771.9,178.1 785.4,178.1 785.4,162.9 
			808.7,162.9 808.7,168.9 827.7,168.9 827.7,179.4 		"/>
		<line fill="none" stroke="#333399" stroke-width="2" stroke-miterlimit="10" x1="808.7" y1="168.9" x2="808.7" y2="174.9"/>
	</g>
	<g>
		<polyline fill="none" stroke="#333399" stroke-width="2" stroke-miterlimit="10" points="69.4,61.2 69.4,51.8 90.7,51.8 
			90.7,42.8 118.4,42.8 118.4,61.2 134.4,61.2 		"/>
		<line fill="none" stroke="#333399" stroke-width="2" stroke-miterlimit="10" x1="90.7" y1="51.8" x2="90.7" y2="58.8"/>
	</g>
	<g>
		<polyline fill="none" stroke="#333399" stroke-width="2" stroke-miterlimit="10" points="75,227.4 75,218.1 53.7,218.1 53.7,209 
			26,209 26,227.4 10,227.4 		"/>
		<line fill="none" stroke="#333399" stroke-width="2" stroke-miterlimit="10" x1="53.7" y1="218.1" x2="53.7" y2="225.1"/>
	</g>
</g>
<g id="Billete_2_">
	<polyline fill="#9B999E" stroke="#333399" stroke-width="2" stroke-miterlimit="10" points="253.7,305.8 244.7,361.4 247,364.3 
		315.5,364.3 318,361.4 308.1,305.8 	"/>
	<path fill="#7CC194" stroke="#333399" stroke-width="2" stroke-miterlimit="10" d="M259.7,307.5l-3.3,38.8c0,0,8.3,2,8.3,10h32
		c0,0,2.8-9.9,8.3-9.9l-3.5-38.9H259.7z"/>
	<path fill="#B0EAC2" d="M280,344v-3.8c-2.2,0-4.4-0.7-5.8-1.7l0.9-2.5c1.4,0.9,3.3,1.6,5.4,1.6c2.7,0,4.5-1.5,4.5-3.7
		c0-2.1-1.5-3.3-4.3-4.5c-3.8-1.5-6.2-3.2-6.2-6.5c0-3.1,2.2-5.5,5.7-6.1V313h2.3v3.6c2.3,0.1,3.8,0.7,4.9,1.3l-0.9,2.5
		c-0.8-0.5-2.3-1.3-4.7-1.3c-2.9,0-4,1.7-4,3.2c0,2,1.4,2.9,4.7,4.3c3.9,1.6,5.8,3.5,5.8,6.9c0,3-2.1,5.8-5.9,6.4v3.9H280V344z"/>
</g>
<rect x="181.8" y="305.8" fill="#9B999E" width="159.4" height="9.1"/>
<path fill="#333399" d="M342.2,426.9H190.7v-112h151.1L342.2,426.9z M192.7,424.9h149.5v-108H192.7V424.9z"/>
<rect x="242.5" y="355.6" fill="#C3C4CA" width="78.7" height="2.3"/>
<line fill="none" stroke="#333399" stroke-width="2" stroke-miterlimit="10" x1="241.6" y1="354.5" x2="322.2" y2="354.5"/>
<rect x="204.4" y="316.9" fill="#C3C4CA" width="132.4" height="27.4"/>
<rect x="240.1" y="345.9" fill="#727276" width="88.3" height="7.6"/>
<line fill="none" stroke="#333399" stroke-width="2" stroke-miterlimit="10" x1="230.7" y1="345.3" x2="332.8" y2="345.3"/>
</svg>
