
<svg id="Line6-SVG" class="img-responsive" version="1.0" 
	 xmlns="http://www.w3.org/2000/svg" xmlns:xlink="http://www.w3.org/1999/xlink" xmlns:a="http://ns.adobe.com/AdobeSVGViewerExtensions/3.0/"
	 x="0px" y="0px" width="1241.1px" height="357.2px" viewBox="0 0 1241.1 357.2" enable-background="new 0 0 1241.1 357.2"
	 xml:space="preserve">
<line fill="none" stroke="#9FCBDE" stroke-width="12" stroke-miterlimit="10" x1="109.1" y1="0" x2="109.1" y2="191.4"/>
<rect x="0" y="185.4" fill="#D18D63" width="177.1" height="171.8"/>
<rect x="43.8" y="161.7" fill="#DCD1BA" width="177.1" height="171.8"/>
<path fill="#F7FBFD" d="M133.8,321.8c-3,0-6,0-9,0c-0.3-0.1-0.5-0.2-0.8-0.2c-7.4-0.6-14.7-2.1-21.6-4.9
	c-8.3-3.2-15.7-7.8-22.4-13.7c-6.1-5.4-11.1-11.6-15.1-18.7c-4.8-8.4-7.9-17.4-9.1-26.9c-0.2-1.8-0.5-3.6-0.7-5.4c0-3,0-6,0-9
	c0.1-0.3,0.2-0.6,0.2-0.9c0.6-3.8,0.9-7.6,1.8-11.3c2.7-12.3,8.4-23.1,16.7-32.5c4.7-5.4,10.1-9.9,16.2-13.7
	c9.1-5.7,18.9-9.3,29.6-10.6c1.8-0.2,3.5-0.5,5.3-0.7c3,0,6,0,9,0c0.3,0.1,0.5,0.2,0.8,0.2c7.4,0.6,14.7,2.1,21.6,4.9
	c8.3,3.2,15.7,7.8,22.4,13.7c5.3,4.7,9.8,10.1,13.6,16.1c5.7,9.1,9.2,18.9,10.6,29.5c0.2,1.8,0.5,3.6,0.7,5.4c0,3,0,6,0,9
	c-0.1,0.3-0.2,0.6-0.2,0.9c-0.6,3.7-0.9,7.4-1.7,11.1c-2.7,12.4-8.4,23.2-16.7,32.7c-4.7,5.4-10.1,9.9-16.2,13.7
	c-9.1,5.7-18.9,9.2-29.5,10.6C137.4,321.3,135.6,321.6,133.8,321.8z M138,218.6c7.7,22.2,15.3,44.2,23,66.5c0.2-0.5,0.3-0.7,0.3-0.8
	c3.1-10,6.2-20,9.2-30c0.8-2.7,1.4-5.6,1.6-8.5c0.6-7.1-2-13.3-5.6-19.2c-2-3.3-4.2-6.5-5.3-10.3c-1.7-6.1,1.2-12,7.1-14
	c1.1-0.4,2.3-0.4,3.4-0.6c0-0.1,0-0.3,0-0.4c-18.9-15.1-40-19.7-63.3-12.3c-13.5,4.3-24.2,12.6-32.1,24.5c4.9,0.1,9.6-0.1,14.4-0.3
	c2.1-0.1,4.3-0.3,6.4-0.4c1.6,0,2.5,0.8,2.6,2.3c0.1,1.4-0.7,2.4-2.2,2.7c-1,0.2-2,0.2-2.9,0.3c-1.4,0.1-2.9,0.3-4.4,0.4
	c7.7,22.4,15.4,44.6,23.2,67.1c1.1-3.2,2-6,3-8.9c3.6-10.4,7.1-20.7,10.7-31.1c0.1-0.4,0.2-0.9,0.1-1.2c-3.1-8.4-6.3-16.8-9.4-25.2
	c-0.3-0.7-0.6-0.9-1.3-0.9c-2-0.1-3.9-0.3-5.9-0.6c-1.4-0.2-2.2-1.2-2.1-2.5c0.1-1.4,1.1-2.4,2.6-2.4c1.1,0,2.2,0,3.3,0.1
	c8.2,0.7,16.4,0.8,24.6,0.2c2.1-0.1,4.2-0.3,6.3-0.3c1.6,0,2.4,1,2.4,2.5c0,1.5-0.9,2.4-2.7,2.5C142.7,218.2,140.5,218.3,138,218.6z
	 M130.6,253.4c-0.1,0-0.2,0-0.3,0c-6.3,17.8-12.6,35.6-18.9,53.5c8,3.8,28.8,3.3,38.9-0.9C143.7,288.5,137.1,271,130.6,253.4z
	 M71.2,222.5c-14.8,31.7,1.6,68,30.2,80.6C91.4,276.2,81.3,249.5,71.2,222.5z M161.3,301c32.8-18.8,38.7-58,24-82.5
	c0,0.5,0,0.9,0,1.2c0.4,4.6,0.1,9.1-0.7,13.6c-0.9,5.5-3.1,10.6-4.9,15.8c-2.5,7-5,13.9-7.4,20.8c-2.8,7.8-5.5,15.6-8.3,23.4
	C163.1,295.9,162.3,298.3,161.3,301z"/>
<line fill="none" x1="109.1" y1="140.4" x2="1241.1" y2="140.4"/>
</svg>
