
<svg id="Line6-SVG" class="img-responsive" version="1.0"
	 xmlns="http://www.w3.org/2000/svg" xmlns:xlink="http://www.w3.org/1999/xlink" xmlns:a="http://ns.adobe.com/AdobeSVGViewerExtensions/3.0/"
	 x="0px" y="0px" viewBox="0 0 1248.4 227.6" enable-background="new 0 0 1248.4 227.6"
	 xml:space="preserve">
<defs>
</defs>
<line fill="none" stroke="#9FCBDE" stroke-width="12" stroke-miterlimit="10" x1="108.8" y1="0" x2="108.8" y2="191.4"/>
<rect x="0" y="90.2" fill="#D18D63" width="141.6" height="137.4"/>
<rect x="35.1" y="71.3" fill="#DCD1BA" width="141.6" height="137.4"/>
<path fill="#F7FBFD" d="M107,199.3c-2.4,0-4.8,0-7.2,0c-0.2-0.1-0.4-0.1-0.6-0.2c-6-0.5-11.7-1.7-17.3-3.9
	c-6.6-2.6-12.6-6.2-17.9-10.9c-4.8-4.3-8.9-9.3-12.1-14.9c-3.8-6.7-6.3-13.9-7.3-21.5c-0.2-1.4-0.4-2.9-0.6-4.3c0-2.4,0-4.8,0-7.2
	c0.1-0.2,0.1-0.5,0.2-0.7c0.5-3,0.7-6.1,1.4-9.1c2.2-9.8,6.7-18.4,13.4-26c3.8-4.3,8.1-7.9,13-11c7.3-4.5,15.2-7.4,23.7-8.5
	c1.4-0.2,2.8-0.4,4.2-0.6c2.4,0,4.8,0,7.2,0c0.2,0.1,0.4,0.1,0.6,0.2c6,0.5,11.7,1.7,17.3,3.9c6.6,2.6,12.6,6.2,17.9,10.9
	c4.2,3.8,7.9,8.1,10.9,12.9c4.5,7.2,7.4,15.1,8.5,23.6c0.2,1.4,0.4,2.9,0.6,4.3c0,2.4,0,4.8,0,7.2c-0.1,0.2-0.1,0.5-0.2,0.7
	c-0.4,3-0.7,6-1.4,8.9c-2.1,9.9-6.7,18.6-13.4,26.1c-3.8,4.3-8.1,7.9-13,11c-7.3,4.5-15.1,7.4-23.6,8.5
	C109.8,198.9,108.4,199.1,107,199.3z M110.4,116.8c6.1,17.8,12.2,35.3,18.4,53.2c0.2-0.4,0.2-0.5,0.3-0.7c2.5-8,5-16,7.3-24
	c0.7-2.2,1.1-4.5,1.3-6.8c0.5-5.7-1.6-10.6-4.5-15.3c-1.6-2.6-3.4-5.2-4.2-8.2c-1.3-4.9,1-9.6,5.7-11.2c0.9-0.3,1.8-0.3,2.7-0.5
	c0-0.1,0-0.2,0-0.3c-15.1-12.1-32-15.7-50.6-9.8c-10.8,3.4-19.3,10.1-25.7,19.6c3.9,0,7.7-0.1,11.5-0.2c1.7-0.1,3.4-0.2,5.1-0.3
	c1.3,0,2,0.7,2.1,1.8c0.1,1.1-0.6,1.9-1.8,2.2c-0.8,0.1-1.6,0.2-2.4,0.2c-1.1,0.1-2.3,0.2-3.5,0.3c6.2,17.9,12.3,35.6,18.5,53.7
	c0.9-2.6,1.6-4.8,2.4-7.1c2.8-8.3,5.7-16.6,8.5-24.9c0.1-0.3,0.1-0.7,0-1c-2.5-6.7-5-13.4-7.5-20.1c-0.2-0.6-0.5-0.7-1-0.7
	c-1.6-0.1-3.1-0.2-4.7-0.5c-1.1-0.2-1.8-1-1.7-2c0.1-1.1,0.9-1.9,2-1.9c0.9,0,1.8,0,2.7,0.1c6.6,0.5,13.1,0.6,19.7,0.2
	c1.7-0.1,3.3-0.2,5-0.3c1.2,0,1.9,0.8,1.9,2c0,1.2-0.7,1.9-2.1,2C114.1,116.4,112.3,116.6,110.4,116.8z M104.4,144.6
	c-0.1,0-0.2,0-0.3,0c-5,14.2-10.1,28.5-15.1,42.7c6.4,3.1,23,2.7,31.1-0.7C114.9,172.7,109.6,158.6,104.4,144.6z M56.9,119.9
	c-11.9,25.4,1.2,54.3,24.2,64.5C73.1,162.9,65,141.5,56.9,119.9z M129,182.7c26.2-15,30.9-46.4,19.2-65.9c0,0.4,0,0.7,0,1
	c0.4,3.6,0.1,7.2-0.5,10.8c-0.7,4.4-2.4,8.5-3.9,12.6c-2,5.6-4,11.1-5.9,16.7c-2.2,6.2-4.4,12.5-6.6,18.7
	C130.4,178.6,129.7,180.5,129,182.7z"/>
<line fill="none" x1="0" y1="171.7" x2="1248.4" y2="171.7"/>
</svg>
