<svg id="misela2" version="1.0" xmlns="http://www.w3.org/2000/svg" xmlns:xlink="http://www.w3.org/1999/xlink" x="0px" y="0px" width="317.3px" height="180.7px" viewBox="0 0 317.3 180.7" enable-background="new 0 0 317.3 180.7" xml:space="preserve">
    <g opacity="0.7">
        <path fill="#9FCBDE" d="M43.8,0h30.9l25.9,155.4h5.5L140.4,0.5h34.3L209,155.4h5.8L240.6,0h30.9l-35.6,180.7h-47.2L157.5,35.9
            l-30.9,144.9H79.1L43.8,0z"/>
    </g>
    <g opacity="0.7">
        <path fill="#DCD1BA" d="M0,39.1h19.9l16.7,100.3h3.6l22.1-99.9h22.1l22.1,99.9h3.7L127,39.1h19.9l-23,116.6H93.5L73.4,62.2
            l-19.9,93.5H22.8L0,39.1z"/>
    </g>
    <g opacity="0.7">
        <path fill="#DCD1BA" d="M170.4,39.1h19.9L207,139.4h3.6l22.1-99.9h22.1l22.1,99.9h3.7l16.7-100.3h19.9l-23,116.6h-30.5l-20.1-93.5
            l-19.9,93.5h-30.6L170.4,39.1z"/>
    </g>
</svg>
